<svg width="289" height="89" viewBox="0 0 289 89" fill="none" xmlns="http://www.w3.org/2000/svg">
<path d="M68.25 36.3125H94.25V38.75C91.3333 39.1667 89.0417 40.0417 87.375 41.375C85.7083 42.6667 83.5417 45.7083 80.875 50.5C78.2083 55.2917 74.4583 60.6458 69.625 66.5625C73.875 70.3958 77.3333 73.0625 80 74.5625C81.875 75.6042 83.7083 76.125 85.5 76.125C88.5833 76.125 91.375 74.1042 93.875 70.0625L96.4375 71.4375C93.0208 78.1458 89.375 82.9167 85.5 85.75C82.5417 87.875 79.1667 88.9375 75.375 88.9375C72.125 88.9375 69.0208 88.25 66.0625 86.875C63.1458 85.4583 59.5833 82.8333 55.375 79C50.1667 82.5 45.2708 85.0417 40.6875 86.625C36.1042 88.1667 31.3333 88.9375 26.375 88.9375C18.4583 88.9375 12.1667 86.7917 7.5 82.5C2.83333 78.2083 0.5 73.1667 0.5 67.375C0.5 61.125 2.72917 55.6875 7.1875 51.0625C11.6458 46.4375 18.125 42.4375 26.625 39.0625C25.5417 36.3542 24.7292 33.7083 24.1875 31.125C23.6458 28.5417 23.375 26.0417 23.375 23.625C23.375 16.9583 25.7083 11.4167 30.375 7C35.0833 2.54167 41.0833 0.3125 48.375 0.3125C54.25 0.3125 58.8958 1.79167 62.3125 4.75C65.7708 7.66667 67.5 11.0833 67.5 15C67.5 19.7083 65.7292 23.75 62.1875 27.125C58.6875 30.4583 53.125 33.5208 45.5 36.3125C50.2083 44.6042 57.1042 53.5417 66.1875 63.125C72.3125 56.25 75.375 50.3542 75.375 45.4375C75.375 43.6875 74.7708 42.2083 73.5625 41C72.3542 39.75 70.5833 39 68.25 38.75V36.3125ZM43.375 32.5625C47.75 30.9375 50.6875 29.2083 52.1875 27.375C53.6875 25.5 54.4375 23.25 54.4375 20.625C54.4375 15.9583 53.2083 12.0208 50.75 8.8125C49.125 6.6875 47.125 5.625 44.75 5.625C42.7917 5.625 41.1042 6.39583 39.6875 7.9375C38.3125 9.47917 37.625 11.5625 37.625 14.1875C37.625 16.2292 37.9583 18.4167 38.625 20.75C39.2917 23.0833 40.875 27.0208 43.375 32.5625ZM28.375 43.0625C25.0417 44.4792 22.6875 45.9792 21.3125 47.5625C19.3542 49.8958 18.375 52.5 18.375 55.375C18.375 59.2917 19.5 63.1875 21.75 67.0625C24.0417 70.9375 26.7917 73.9375 30 76.0625C33.2083 78.1875 36.4167 79.25 39.625 79.25C41.2083 79.25 42.9792 78.9167 44.9375 78.25C46.9375 77.5417 49.1042 76.5 51.4375 75.125C41.3958 64.8333 33.7083 54.1458 28.375 43.0625Z" fill="black"/>
<path d="M105.188 55.0625L145.438 0.5H153.062V55.0625H160.812V68H153.062V87H135.875V68H105.188V55.0625ZM111.25 55.0625H135.875V21.625L111.25 55.0625ZM225.312 44.625C225.312 53.0833 224.125 60.9792 221.75 68.3125C220.333 72.8125 218.417 76.5 216 79.375C213.625 82.25 210.917 84.5417 207.875 86.25C204.833 87.9167 201.521 88.75 197.938 88.75C193.854 88.75 190.167 87.7083 186.875 85.625C183.583 83.5417 180.667 80.5625 178.125 76.6875C176.292 73.8542 174.688 70.0833 173.312 65.375C171.521 59 170.625 52.4167 170.625 45.625C170.625 36.4167 171.917 27.9583 174.5 20.25C176.625 13.875 179.854 9 184.188 5.625C188.521 2.20833 193.104 0.5 197.938 0.5C202.854 0.5 207.438 2.1875 211.688 5.5625C215.979 8.89583 219.125 13.3958 221.125 19.0625C223.917 26.8542 225.312 35.375 225.312 44.625ZM206.062 44.5C206.062 29.6667 205.979 21.0208 205.812 18.5625C205.396 12.7708 204.396 8.85417 202.812 6.8125C201.771 5.47917 200.083 4.8125 197.75 4.8125C195.958 4.8125 194.542 5.3125 193.5 6.3125C191.958 7.77083 190.917 10.3542 190.375 14.0625C189.833 17.7292 189.562 30.5833 189.562 52.625C189.562 64.625 189.979 72.6667 190.812 76.75C191.438 79.7083 192.333 81.6875 193.5 82.6875C194.667 83.6875 196.208 84.1875 198.125 84.1875C200.208 84.1875 201.771 83.5208 202.812 82.1875C204.562 79.8542 205.562 76.25 205.812 71.375L206.062 44.5ZM233.188 55.0625L273.438 0.5H281.062V55.0625H288.812V68H281.062V87H263.875V68H233.188V55.0625ZM239.25 55.0625H263.875V21.625L239.25 55.0625Z" fill="white" fill-opacity="0.75"/>
</svg>
