<svg width="375" height="140" viewBox="0 0 375 140" fill="none" xmlns="http://www.w3.org/2000/svg">
<path d="M113.849 66.4448C113.571 64.3005 113.352 62.3745 113.193 60.667C113.035 58.9197 112.955 57.3908 112.955 56.0804C112.955 48.1383 115.417 41.5464 120.341 36.3046C125.265 31.0231 131.083 28.3823 137.794 28.3823C142.083 28.3823 145.518 29.5935 148.099 32.0158C150.72 34.4382 152.03 37.3371 152.03 40.7124C152.03 44.9615 150.759 48.6148 148.218 51.6725C144.446 56.279 138.41 60.3493 130.11 63.8835C132.771 72.4213 134.597 77.941 135.59 80.4428C136.583 82.9445 137.913 85.6647 139.581 88.6033C141.844 86.1015 143.473 83.6792 144.465 81.3363C145.458 78.9536 145.955 77.0078 145.955 75.4988C145.955 74.2281 145.577 73.1162 144.823 72.1631C144.068 71.2101 142.837 70.5152 141.13 70.0783L141.844 67.934H164.718L163.824 70.0783C161.68 70.5946 159.873 71.4682 158.404 72.6992C156.934 73.9303 154.214 77.2064 150.243 82.5276C147.424 86.3398 144.624 89.6953 141.844 92.5942C145.021 97.0021 147.92 100.04 150.541 101.708C152.209 102.82 154.115 103.376 156.259 103.376C157.49 103.376 158.563 103.177 159.476 102.78C160.389 102.383 161.501 101.628 162.812 100.516H164.718C162.812 104.607 160.29 107.684 157.153 109.749C154.016 111.814 150.462 112.847 146.491 112.847C143.155 112.847 140.157 112.191 137.496 110.881C134.836 109.531 132.016 107.267 129.038 104.09C124.948 106.989 120.818 109.173 116.648 110.643C112.518 112.112 108.349 112.847 104.139 112.847C98.024 112.847 93.1594 111.139 89.5458 107.724C85.9321 104.309 84.1253 100.298 84.1253 95.6916C84.1253 92.0382 84.8996 88.782 86.4484 85.9228C87.9971 83.0637 90.9356 80.006 95.2641 76.7497C99.5925 73.4934 105.787 70.0585 113.849 66.4448ZM129.038 59.4161C132.334 57.0732 134.736 54.6707 136.245 52.2086C138.35 48.8332 139.402 45.2394 139.402 41.4272C139.402 38.5681 138.807 36.3641 137.615 34.8154C136.662 33.6638 135.451 33.088 133.982 33.088C132.195 33.088 130.785 33.8028 129.753 35.2324C128.244 37.3768 127.489 40.6926 127.489 45.1799C127.489 47.2051 127.608 49.409 127.847 51.7917C128.125 54.1346 128.522 56.6761 129.038 59.4161ZM114.742 70.9123C110.175 73.414 106.899 76.0151 104.914 78.7154C102.968 81.376 101.995 84.5727 101.995 88.3055C101.995 92.8722 103.405 96.7241 106.224 99.8612C109.083 102.959 112.26 104.507 115.755 104.507C117.264 104.507 118.932 104.17 120.758 103.495C122.585 102.82 124.57 101.827 126.715 100.516C124.292 96.8631 121.95 92.2567 119.686 86.6972C117.462 81.1377 115.814 75.8761 114.742 70.9123Z" fill="black"/>
<path d="M79.0078 76.3184H71.625L70.1484 78.1465L68.4609 80.168C68.1328 80.6016 67.8926 80.9941 67.7402 81.3457C67.623 81.6152 67.5645 81.8848 67.5645 82.1543C67.5645 82.4355 67.7109 82.6992 68.0039 82.9453C68.3086 83.1797 68.8066 83.3145 69.498 83.3496V84H62.3789L62.5547 83.3496C63.1875 83.2441 63.75 83.0215 64.2422 82.6816C64.8984 82.2129 65.8418 81.2461 67.0723 79.7812L83.9648 59.6191H84.7559L83.9648 79.1309C83.9297 80.1504 83.9121 80.7656 83.9121 80.9766C83.9121 81.7734 84.0703 82.3535 84.3867 82.7168C84.7148 83.0801 85.2539 83.291 86.0039 83.3496L85.8281 84H75.5098L75.7031 83.3496C76.7227 83.2559 77.3086 83.1738 77.4609 83.1035C77.7891 82.9395 78.0879 82.5996 78.3574 82.084C78.627 81.5566 78.791 80.6484 78.8496 79.3594L79.0078 76.3184ZM79.0078 74.877L79.4648 67.1074L72.8379 74.877H79.0078ZM98.7656 72.3633L96.6562 79.5879C96.3516 80.6074 96.1992 81.3574 96.1992 81.8379C96.1992 82.2832 96.3809 82.6406 96.7441 82.9102C97.1074 83.1797 97.8633 83.3262 99.0117 83.3496L98.7656 84H87.2871L87.498 83.3496C88.6465 83.3496 89.4844 83.127 90.0117 82.6816C90.5508 82.2363 91.043 81.2402 91.4883 79.6934L95.918 64.4004C96.1641 63.5449 96.2871 62.8711 96.2871 62.3789C96.2871 61.9102 96.1348 61.5527 95.8301 61.3066C95.5254 61.0605 94.8164 60.8965 93.7031 60.8145L93.8789 60.1641H103.758C106.582 60.1641 108.568 60.6562 109.717 61.6406C110.865 62.625 111.439 63.8906 111.439 65.4375C111.439 67.0664 110.771 68.5371 109.436 69.8496C108.592 70.6699 107.098 71.3789 104.953 71.9766L107.098 79.2012C107.672 81.1348 108.17 82.3008 108.592 82.6992C109.025 83.0977 109.74 83.3145 110.736 83.3496V84H103.318L99.9434 72.3633L99.3633 72.3984C99.2344 72.3984 99.0352 72.3867 98.7656 72.3633ZM99.0117 71.3086C99.4219 71.332 99.7676 71.3438 100.049 71.3438C101.76 71.3438 103.166 70.7578 104.268 69.5859C105.369 68.4141 105.92 66.8789 105.92 64.9805C105.92 63.8555 105.627 63 105.041 62.4141C104.455 61.8281 103.682 61.5352 102.721 61.5352C102.486 61.5352 102.211 61.541 101.895 61.5527L99.0117 71.3086ZM138.387 59.6191L136.629 67.1953H135.943C135.861 65.1328 135.352 63.5977 134.414 62.5898C133.488 61.5703 132.275 61.0605 130.775 61.0605C129.158 61.0605 127.547 61.752 125.941 63.1348C124.336 64.5176 122.977 66.6328 121.863 69.4805C120.961 71.7891 120.51 74.0684 120.51 76.3184C120.51 78.334 121.002 79.875 121.986 80.9414C122.982 81.9961 124.342 82.5234 126.064 82.5234C127.459 82.5234 128.73 82.2188 129.879 81.6094C131.027 81 132.188 80.0098 133.359 78.6387H134.203C132.75 80.8184 131.279 82.3477 129.791 83.2266C128.314 84.1055 126.504 84.5449 124.359 84.5449C121.488 84.5449 119.174 83.6777 117.416 81.9434C115.67 80.1973 114.797 77.9238 114.797 75.123C114.797 72.498 115.494 69.9961 116.889 67.6172C118.283 65.2266 120.287 63.2988 122.9 61.834C125.525 60.3574 128.133 59.6191 130.723 59.6191C131.707 59.6191 132.932 59.8301 134.396 60.252C135.146 60.4629 135.668 60.5684 135.961 60.5684C136.547 60.5684 137.139 60.252 137.736 59.6191H138.387ZM141.428 60.8145L141.621 60.1641H153.258L153.029 60.8145C151.975 60.8145 151.166 61.0488 150.604 61.5176C150.053 61.9863 149.566 62.9648 149.145 64.4531L144.785 79.7109C144.469 80.7891 144.311 81.5098 144.311 81.873C144.311 82.2949 144.475 82.623 144.803 82.8574C145.225 83.1621 146.021 83.3262 147.193 83.3496L147.018 84H135.188L135.381 83.3496C136.564 83.3496 137.432 83.127 137.982 82.6816C138.533 82.2246 139.031 81.2344 139.477 79.7109L143.871 64.4531C144.141 63.5156 144.275 62.8066 144.275 62.3262C144.275 61.8926 144.111 61.5527 143.783 61.3066C143.455 61.0605 142.67 60.8965 141.428 60.8145ZM160.693 73.0488L158.76 79.6934C158.49 80.6309 158.355 81.293 158.355 81.6797C158.355 82.2188 158.531 82.6289 158.883 82.9102C159.234 83.1797 160.031 83.3262 161.273 83.3496L161.045 84H149.408L149.602 83.3496C150.586 83.3379 151.283 83.2441 151.693 83.0684C152.104 82.8809 152.443 82.582 152.713 82.1719C152.912 81.9023 153.211 81.0762 153.609 79.6934L158.021 64.5586C158.326 63.5508 158.479 62.8301 158.479 62.3965C158.479 61.9629 158.285 61.5996 157.898 61.3066C157.512 61.002 156.809 60.8379 155.789 60.8145L155.982 60.1641H165.422C168.012 60.1641 169.875 60.4922 171.012 61.1484C172.77 62.1797 173.648 63.7266 173.648 65.7891C173.648 67.7812 172.77 69.5391 171.012 71.0625C169.266 72.5742 166.91 73.3301 163.945 73.3301C163.055 73.3301 161.971 73.2363 160.693 73.0488ZM161.045 71.6953C161.807 71.7891 162.439 71.8359 162.943 71.8359C164.561 71.8359 165.832 71.0977 166.758 69.6211C167.684 68.1445 168.146 66.6035 168.146 64.998C168.146 63.9082 167.848 63.0645 167.25 62.4668C166.652 61.8574 165.826 61.5527 164.771 61.5527C164.549 61.5527 164.273 61.5645 163.945 61.5879L161.045 71.6953ZM186.094 61.4824L183.439 70.7285H184.248C186.381 70.7285 187.934 70.4473 188.906 69.8848C189.891 69.3223 190.723 68.3262 191.402 66.8965H192.053L189.381 76.1777H188.766C188.871 75.5566 188.924 75.0527 188.924 74.666C188.924 74.0215 188.73 73.4941 188.344 73.084C187.969 72.6738 187.477 72.3809 186.867 72.2051C186.469 72.0879 185.643 72.0293 184.389 72.0293H183.018L180.732 80.0273C180.533 80.7305 180.434 81.252 180.434 81.5918C180.434 81.8613 180.562 82.0781 180.82 82.2422C181.195 82.4766 181.904 82.5938 182.947 82.5938C184.951 82.5938 186.838 82.1719 188.607 81.3281C190.377 80.4727 191.965 79.1836 193.371 77.4609H194.092L191.613 84H171.223L171.434 83.3496C172.629 83.3496 173.502 83.127 174.053 82.6816C174.604 82.2246 175.102 81.2285 175.547 79.6934L180.029 64.3477C180.275 63.4922 180.398 62.8184 180.398 62.3262C180.398 61.8809 180.24 61.541 179.924 61.3066C179.607 61.0605 178.887 60.8965 177.762 60.8145L177.955 60.1641H196.957L195.428 66.123H194.795C194.748 64.9512 194.566 64.125 194.25 63.6445C193.758 62.8945 193.102 62.3496 192.281 62.0098C191.473 61.6582 190.154 61.4824 188.326 61.4824H186.094ZM214.377 84H195.34L195.533 83.3496C196.67 83.3496 197.496 83.1328 198.012 82.6992C198.539 82.2539 199.025 81.2637 199.471 79.7285L203.9 64.418C204.146 63.5742 204.27 62.9121 204.27 62.4316C204.27 61.9629 204.094 61.5879 203.742 61.3066C203.391 61.0254 202.699 60.8613 201.668 60.8145L201.861 60.1641H213.305L213.111 60.8145C212.01 60.8379 211.184 61.084 210.633 61.5527C210.094 62.0215 209.613 62.9766 209.191 64.418L205.148 78.4277C204.633 80.209 204.375 81.293 204.375 81.6797C204.375 81.9141 204.504 82.1367 204.762 82.3477C205.031 82.5469 205.459 82.6465 206.045 82.6465C207.99 82.6465 209.865 82.2012 211.67 81.3105C213.486 80.4199 215.021 79.0898 216.275 77.3203H217.014L214.377 84ZM233.098 76.3184H225.715L224.238 78.1465L222.551 80.168C222.223 80.6016 221.982 80.9941 221.83 81.3457C221.713 81.6152 221.654 81.8848 221.654 82.1543C221.654 82.4355 221.801 82.6992 222.094 82.9453C222.398 83.1797 222.896 83.3145 223.588 83.3496V84H216.469L216.645 83.3496C217.277 83.2441 217.84 83.0215 218.332 82.6816C218.988 82.2129 219.932 81.2461 221.162 79.7812L238.055 59.6191H238.846L238.055 79.1309C238.02 80.1504 238.002 80.7656 238.002 80.9766C238.002 81.7734 238.16 82.3535 238.477 82.7168C238.805 83.0801 239.344 83.291 240.094 83.3496L239.918 84H229.6L229.793 83.3496C230.812 83.2559 231.398 83.1738 231.551 83.1035C231.879 82.9395 232.178 82.5996 232.447 82.084C232.717 81.5566 232.881 80.6484 232.939 79.3594L233.098 76.3184ZM233.098 74.877L233.555 67.1074L226.928 74.877H233.098ZM269.414 59.6191L267.762 67.2656H267.094C267 65.0391 266.496 63.4395 265.582 62.4668C264.68 61.4824 263.408 60.9902 261.768 60.9902C260.08 60.9902 258.393 61.5879 256.705 62.7832C255.018 63.9668 253.576 65.8008 252.381 68.2852C251.197 70.7578 250.605 73.3594 250.605 76.0898C250.605 78.4336 251.133 80.2266 252.188 81.4688C253.242 82.6992 254.479 83.3145 255.896 83.3145C256.494 83.3145 257.221 83.1445 258.076 82.8047L259.904 76.5117C260.209 75.457 260.361 74.7656 260.361 74.4375C260.361 74.0039 260.174 73.6406 259.799 73.3477C259.436 73.043 258.803 72.8906 257.9 72.8906L258.076 72.2227H268.359L268.201 72.8906C267.592 72.9258 267.111 73.043 266.76 73.2422C266.42 73.4297 266.15 73.7109 265.951 74.0859C265.834 74.3086 265.652 74.8828 265.406 75.8086L263.244 83.1387C260.783 84.0762 258.193 84.5449 255.475 84.5449C253.377 84.5449 251.59 84.1641 250.113 83.4023C248.648 82.6406 247.43 81.4336 246.457 79.7812C245.496 78.1289 245.016 76.248 245.016 74.1387C245.016 69.6387 247.014 65.9297 251.01 63.0117C254.139 60.75 257.689 59.6191 261.662 59.6191C262.354 59.6191 262.992 59.6543 263.578 59.7246C264.012 59.7832 264.773 59.9473 265.863 60.2168C266.566 60.3926 267.047 60.4805 267.305 60.4805C267.82 60.4805 268.307 60.1934 268.764 59.6191H269.414ZM279.24 71.1328H287.959L289.893 64.4707C290.15 63.5566 290.279 62.8594 290.279 62.3789C290.279 61.9102 290.121 61.5527 289.805 61.3066C289.488 61.0605 288.727 60.8965 287.52 60.8145L287.713 60.1641H299.561L299.367 60.8145C298.207 60.8145 297.328 61.0605 296.73 61.5527C296.133 62.0449 295.623 63.0176 295.201 64.4707L290.771 79.7285C290.479 80.7246 290.332 81.4395 290.332 81.873C290.332 82.3066 290.49 82.6348 290.807 82.8574C291.217 83.1621 291.961 83.3262 293.039 83.3496L292.863 84H281.244L281.508 83.3496C282.633 83.3496 283.459 83.1328 283.986 82.6992C284.525 82.2539 285.018 81.2637 285.463 79.7285L287.52 72.627H278.836L276.797 79.7285C276.504 80.7012 276.357 81.4219 276.357 81.8906C276.357 82.3125 276.533 82.6582 276.885 82.9277C277.248 83.1855 277.957 83.3262 279.012 83.3496L278.836 84H267.375L267.568 83.3496C268.693 83.3496 269.514 83.1328 270.029 82.6992C270.557 82.2539 271.043 81.2637 271.488 79.7285L275.918 64.4707C276.176 63.5918 276.305 62.9004 276.305 62.3965C276.305 61.916 276.146 61.5527 275.83 61.3066C275.525 61.0605 274.787 60.8965 273.615 60.8145L273.809 60.1641H285.463L285.199 60.8145C284.121 60.8145 283.307 61.0488 282.756 61.5176C282.205 61.9746 281.701 62.959 281.244 64.4707L279.24 71.1328ZM301.529 60.8145L301.723 60.1641H313.359L313.131 60.8145C312.076 60.8145 311.268 61.0488 310.705 61.5176C310.154 61.9863 309.668 62.9648 309.246 64.4531L304.887 79.7109C304.57 80.7891 304.412 81.5098 304.412 81.873C304.412 82.2949 304.576 82.623 304.904 82.8574C305.326 83.1621 306.123 83.3262 307.295 83.3496L307.119 84H295.289L295.482 83.3496C296.666 83.3496 297.533 83.127 298.084 82.6816C298.635 82.2246 299.133 81.2344 299.578 79.7109L303.973 64.4531C304.242 63.5156 304.377 62.8066 304.377 62.3262C304.377 61.8926 304.213 61.5527 303.885 61.3066C303.557 61.0605 302.771 60.8965 301.529 60.8145Z" fill="white" fill-opacity="0.75"/>
</svg>
