<svg width="353" height="144" viewBox="0 0 353 144" fill="none" xmlns="http://www.w3.org/2000/svg">
<path d="M46.125 15.6562L43 29.125H41.7812C41.6354 25.4583 40.7292 22.7292 39.0625 20.9375C37.4167 19.125 35.2604 18.2188 32.5938 18.2188C29.7188 18.2188 26.8542 19.4479 24 21.9062C21.1458 24.3646 18.7292 28.125 16.75 33.1875C15.1458 37.2917 14.3438 41.3438 14.3438 45.3438C14.3438 48.9271 15.2188 51.6667 16.9688 53.5625C18.7396 55.4375 21.1562 56.375 24.2188 56.375C26.6979 56.375 28.9583 55.8333 31 54.75C33.0417 53.6667 35.1042 51.9062 37.1875 49.4688H38.6875C36.1042 53.3438 33.4896 56.0625 30.8438 57.625C28.2188 59.1875 25 59.9688 21.1875 59.9688C16.0833 59.9688 11.9688 58.4271 8.84375 55.3438C5.73958 52.2396 4.1875 48.1979 4.1875 43.2188C4.1875 38.5521 5.42708 34.1042 7.90625 29.875C10.3854 25.625 13.9479 22.1979 18.5938 19.5938C23.2604 16.9688 27.8958 15.6562 32.5 15.6562C34.25 15.6562 36.4271 16.0312 39.0312 16.7812C40.3646 17.1562 41.2917 17.3438 41.8125 17.3438C42.8542 17.3438 43.9062 16.7812 44.9688 15.6562H46.125ZM68.625 45.3438H55.5L52.875 48.5938L49.875 52.1875C49.2917 52.9583 48.8646 53.6562 48.5938 54.2812C48.3854 54.7604 48.2812 55.2396 48.2812 55.7188C48.2812 56.2188 48.5417 56.6875 49.0625 57.125C49.6042 57.5417 50.4896 57.7812 51.7188 57.8438V59H39.0625L39.375 57.8438C40.5 57.6562 41.5 57.2604 42.375 56.6562C43.5417 55.8229 45.2188 54.1042 47.4062 51.5L77.4375 15.6562H78.8438L77.4375 50.3438C77.375 52.1562 77.3438 53.25 77.3438 53.625C77.3438 55.0417 77.625 56.0729 78.1875 56.7188C78.7708 57.3646 79.7292 57.7396 81.0625 57.8438L80.75 59H62.4062L62.75 57.8438C64.5625 57.6771 65.6042 57.5312 65.875 57.4062C66.4583 57.1146 66.9896 56.5104 67.4688 55.5938C67.9479 54.6562 68.2396 53.0417 68.3438 50.75L68.625 45.3438ZM68.625 42.7812L69.4375 28.9688L57.6562 42.7812H68.625ZM103.75 38.3125L100 51.1562C99.4583 52.9688 99.1875 54.3021 99.1875 55.1562C99.1875 55.9479 99.5104 56.5833 100.156 57.0625C100.802 57.5417 102.146 57.8021 104.188 57.8438L103.75 59H83.3438L83.7188 57.8438C85.7604 57.8438 87.25 57.4479 88.1875 56.6562C89.1458 55.8646 90.0208 54.0938 90.8125 51.3438L98.6875 24.1562C99.125 22.6354 99.3438 21.4375 99.3438 20.5625C99.3438 19.7292 99.0729 19.0938 98.5312 18.6562C97.9896 18.2188 96.7292 17.9271 94.75 17.7812L95.0625 16.625H112.625C117.646 16.625 121.177 17.5 123.219 19.25C125.26 21 126.281 23.25 126.281 26C126.281 28.8958 125.094 31.5104 122.719 33.8438C121.219 35.3021 118.562 36.5625 114.75 37.625L118.562 50.4688C119.583 53.9062 120.469 55.9792 121.219 56.6875C121.99 57.3958 123.26 57.7812 125.031 57.8438V59H111.844L105.844 38.3125L104.812 38.375C104.583 38.375 104.229 38.3542 103.75 38.3125ZM104.188 36.4375C104.917 36.4792 105.531 36.5 106.031 36.5C109.073 36.5 111.573 35.4583 113.531 33.375C115.49 31.2917 116.469 28.5625 116.469 25.1875C116.469 23.1875 115.948 21.6667 114.906 20.625C113.865 19.5833 112.49 19.0625 110.781 19.0625C110.365 19.0625 109.875 19.0729 109.312 19.0938L104.188 36.4375ZM159.844 59H126L126.344 57.8438C128.365 57.8438 129.833 57.4583 130.75 56.6875C131.688 55.8958 132.552 54.1354 133.344 51.4062L141.219 24.1875C141.656 22.6875 141.875 21.5104 141.875 20.6562C141.875 19.8229 141.562 19.1562 140.938 18.6562C140.312 18.1562 139.083 17.8646 137.25 17.7812L137.594 16.625H157.938L157.594 17.7812C155.635 17.8229 154.167 18.2604 153.188 19.0938C152.229 19.9271 151.375 21.625 150.625 24.1875L143.438 49.0938C142.521 52.2604 142.062 54.1875 142.062 54.875C142.062 55.2917 142.292 55.6875 142.75 56.0625C143.229 56.4167 143.99 56.5938 145.031 56.5938C148.49 56.5938 151.823 55.8021 155.031 54.2188C158.26 52.6354 160.99 50.2708 163.219 47.125H164.531L159.844 59Z" fill="white" fill-opacity="0.75"/>
<path d="M89.5723 63.1641H98.9941C101.092 63.1641 102.592 63.2754 103.494 63.498C104.678 63.7793 105.592 64.3301 106.236 65.1504C106.893 65.959 107.221 66.8789 107.221 67.9102C107.221 68.7539 106.963 69.6152 106.447 70.4941C105.932 71.373 105.158 72.0996 104.127 72.6738C103.107 73.2363 101.537 73.7578 99.416 74.2383C101.619 74.8594 103.148 75.6562 104.004 76.6289C104.859 77.6016 105.287 78.7324 105.287 80.0215C105.287 81.2285 104.865 82.4238 104.021 83.6074C103.178 84.7793 102.059 85.6406 100.664 86.1914C99.2695 86.7305 96.7148 87 93 87H83.0859L83.3145 86.3496C84.2754 86.3496 84.9609 86.2617 85.3711 86.0859C85.793 85.9102 86.127 85.6406 86.373 85.2773C86.6309 84.9023 86.9297 84.1289 87.2695 82.957L91.5234 68.2969C91.957 66.8086 92.1738 65.8125 92.1738 65.3086C92.1738 64.8984 91.998 64.5586 91.6465 64.2891C91.3066 64.0195 90.5566 63.8613 89.3965 63.8145L89.5723 63.1641ZM94.9688 73.6934C96.5625 73.6699 97.8164 73.418 98.7305 72.9375C99.6562 72.457 100.395 71.6719 100.945 70.582C101.508 69.4805 101.789 68.4434 101.789 67.4707C101.789 66.5566 101.502 65.8125 100.928 65.2383C100.354 64.6641 99.5859 64.3887 98.625 64.4121L97.6582 64.4473L94.9688 73.6934ZM94.5469 75.0117L91.5059 85.6113C92.0918 85.6348 92.5312 85.6465 92.8242 85.6465C95.4375 85.6465 97.2539 84.9199 98.2734 83.4668C99.293 82.002 99.8027 80.4375 99.8027 78.7734C99.8027 77.9766 99.6035 77.2734 99.2051 76.6641C98.8184 76.043 98.3145 75.6152 97.6934 75.3809C97.0723 75.1348 96.0234 75.0117 94.5469 75.0117ZM129.053 63.1641H137.121L136.963 63.8145C136.037 63.8848 135.322 64.1074 134.818 64.4824C134.01 65.0801 133.406 66.0645 133.008 67.4355L129.844 78.3691C128.859 81.7793 127.523 84.1641 125.836 85.5234C124.148 86.8711 122.004 87.5449 119.402 87.5449C117.926 87.5449 116.625 87.334 115.5 86.9121C114.375 86.4902 113.549 86.0156 113.021 85.4883C112.494 84.9609 112.09 84.3105 111.809 83.5371C111.527 82.752 111.387 82.0957 111.387 81.5684C111.387 80.7363 111.621 79.5059 112.09 77.877L115.113 67.4355C115.383 66.498 115.518 65.8008 115.518 65.3438C115.518 64.8984 115.348 64.5527 115.008 64.3066C114.68 64.0605 113.906 63.8965 112.688 63.8145L112.881 63.1641H124.764L124.553 63.8145C123.404 63.8145 122.525 64.0605 121.916 64.5527C121.318 65.0449 120.814 66.0059 120.404 67.4355L117.363 77.877C116.859 79.623 116.607 81.0234 116.607 82.0781C116.607 83.0391 116.994 83.877 117.768 84.5918C118.541 85.3066 119.619 85.6641 121.002 85.6641C122.268 85.6641 123.34 85.4355 124.219 84.9785C125.109 84.5098 125.848 83.8594 126.434 83.0273C127.207 81.9141 127.898 80.3203 128.508 78.2461L131.619 67.4355C131.795 66.8145 131.883 66.2988 131.883 65.8887C131.883 65.1621 131.625 64.6055 131.109 64.2188C130.746 63.9492 129.996 63.8145 128.859 63.8145L129.053 63.1641ZM159.973 62.6191L158.215 70.1953H157.529C157.447 68.1328 156.938 66.5977 156 65.5898C155.074 64.5703 153.861 64.0605 152.361 64.0605C150.744 64.0605 149.133 64.752 147.527 66.1348C145.922 67.5176 144.562 69.6328 143.449 72.4805C142.547 74.7891 142.096 77.0684 142.096 79.3184C142.096 81.334 142.588 82.875 143.572 83.9414C144.568 84.9961 145.928 85.5234 147.65 85.5234C149.045 85.5234 150.316 85.2188 151.465 84.6094C152.613 84 153.773 83.0098 154.945 81.6387H155.789C154.336 83.8184 152.865 85.3477 151.377 86.2266C149.9 87.1055 148.09 87.5449 145.945 87.5449C143.074 87.5449 140.76 86.6777 139.002 84.9434C137.256 83.1973 136.383 80.9238 136.383 78.123C136.383 75.498 137.08 72.9961 138.475 70.6172C139.869 68.2266 141.873 66.2988 144.486 64.834C147.111 63.3574 149.719 62.6191 152.309 62.6191C153.293 62.6191 154.518 62.8301 155.982 63.252C156.732 63.4629 157.254 63.5684 157.547 63.5684C158.133 63.5684 158.725 63.252 159.322 62.6191H159.973ZM168.744 74.1328H177.463L179.396 67.4707C179.654 66.5566 179.783 65.8594 179.783 65.3789C179.783 64.9102 179.625 64.5527 179.309 64.3066C178.992 64.0605 178.23 63.8965 177.023 63.8145L177.217 63.1641H189.064L188.871 63.8145C187.711 63.8145 186.832 64.0605 186.234 64.5527C185.637 65.0449 185.127 66.0176 184.705 67.4707L180.275 82.7285C179.982 83.7246 179.836 84.4395 179.836 84.873C179.836 85.3066 179.994 85.6348 180.311 85.8574C180.721 86.1621 181.465 86.3262 182.543 86.3496L182.367 87H170.748L171.012 86.3496C172.137 86.3496 172.963 86.1328 173.49 85.6992C174.029 85.2539 174.521 84.2637 174.967 82.7285L177.023 75.627H168.34L166.301 82.7285C166.008 83.7012 165.861 84.4219 165.861 84.8906C165.861 85.3125 166.037 85.6582 166.389 85.9277C166.752 86.1855 167.461 86.3262 168.516 86.3496L168.34 87H156.879L157.072 86.3496C158.197 86.3496 159.018 86.1328 159.533 85.6992C160.061 85.2539 160.547 84.2637 160.992 82.7285L165.422 67.4707C165.68 66.5918 165.809 65.9004 165.809 65.3965C165.809 64.916 165.65 64.5527 165.334 64.3066C165.029 64.0605 164.291 63.8965 163.119 63.8145L163.312 63.1641H174.967L174.703 63.8145C173.625 63.8145 172.811 64.0488 172.26 64.5176C171.709 64.9746 171.205 65.959 170.748 67.4707L168.744 74.1328ZM196.764 74.1328H205.482L207.416 67.4707C207.674 66.5566 207.803 65.8594 207.803 65.3789C207.803 64.9102 207.645 64.5527 207.328 64.3066C207.012 64.0605 206.25 63.8965 205.043 63.8145L205.236 63.1641H217.084L216.891 63.8145C215.73 63.8145 214.852 64.0605 214.254 64.5527C213.656 65.0449 213.146 66.0176 212.725 67.4707L208.295 82.7285C208.002 83.7246 207.855 84.4395 207.855 84.873C207.855 85.3066 208.014 85.6348 208.33 85.8574C208.74 86.1621 209.484 86.3262 210.562 86.3496L210.387 87H198.768L199.031 86.3496C200.156 86.3496 200.982 86.1328 201.51 85.6992C202.049 85.2539 202.541 84.2637 202.986 82.7285L205.043 75.627H196.359L194.32 82.7285C194.027 83.7012 193.881 84.4219 193.881 84.8906C193.881 85.3125 194.057 85.6582 194.408 85.9277C194.771 86.1855 195.48 86.3262 196.535 86.3496L196.359 87H184.898L185.092 86.3496C186.217 86.3496 187.037 86.1328 187.553 85.6992C188.08 85.2539 188.566 84.2637 189.012 82.7285L193.441 67.4707C193.699 66.5918 193.828 65.9004 193.828 65.3965C193.828 64.916 193.67 64.5527 193.354 64.3066C193.049 64.0605 192.311 63.8965 191.139 63.8145L191.332 63.1641H202.986L202.723 63.8145C201.645 63.8145 200.83 64.0488 200.279 64.5176C199.729 64.9746 199.225 65.959 198.768 67.4707L196.764 74.1328ZM227.684 64.4824L225.029 73.7285H225.838C227.971 73.7285 229.523 73.4473 230.496 72.8848C231.48 72.3223 232.312 71.3262 232.992 69.8965H233.643L230.971 79.1777H230.355C230.461 78.5566 230.514 78.0527 230.514 77.666C230.514 77.0215 230.32 76.4941 229.934 76.084C229.559 75.6738 229.066 75.3809 228.457 75.2051C228.059 75.0879 227.232 75.0293 225.979 75.0293H224.607L222.322 83.0273C222.123 83.7305 222.023 84.252 222.023 84.5918C222.023 84.8613 222.152 85.0781 222.41 85.2422C222.785 85.4766 223.494 85.5938 224.537 85.5938C226.541 85.5938 228.428 85.1719 230.197 84.3281C231.967 83.4727 233.555 82.1836 234.961 80.4609H235.682L233.203 87H212.812L213.023 86.3496C214.219 86.3496 215.092 86.127 215.643 85.6816C216.193 85.2246 216.691 84.2285 217.137 82.6934L221.619 67.3477C221.865 66.4922 221.988 65.8184 221.988 65.3262C221.988 64.8809 221.83 64.541 221.514 64.3066C221.197 64.0605 220.477 63.8965 219.352 63.8145L219.545 63.1641H238.547L237.018 69.123H236.385C236.338 67.9512 236.156 67.125 235.84 66.6445C235.348 65.8945 234.691 65.3496 233.871 65.0098C233.062 64.6582 231.744 64.4824 229.916 64.4824H227.684ZM243.064 63.8145L243.258 63.1641H254.895L254.666 63.8145C253.611 63.8145 252.803 64.0488 252.24 64.5176C251.689 64.9863 251.203 65.9648 250.781 67.4531L246.422 82.7109C246.105 83.7891 245.947 84.5098 245.947 84.873C245.947 85.2949 246.111 85.623 246.439 85.8574C246.861 86.1621 247.658 86.3262 248.83 86.3496L248.654 87H236.824L237.018 86.3496C238.201 86.3496 239.068 86.127 239.619 85.6816C240.17 85.2246 240.668 84.2344 241.113 82.7109L245.508 67.4531C245.777 66.5156 245.912 65.8066 245.912 65.3262C245.912 64.8926 245.748 64.5527 245.42 64.3066C245.092 64.0605 244.307 63.8965 243.064 63.8145ZM273.123 62.6191L271.137 70.7051H270.557C270.428 69.4395 270.199 68.4258 269.871 67.6641C269.379 66.5625 268.723 65.7129 267.902 65.1152C267.094 64.5176 266.215 64.2188 265.266 64.2188C264.352 64.2188 263.549 64.5703 262.857 65.2734C262.178 65.9648 261.838 66.75 261.838 67.6289C261.838 68.4961 262.072 69.3516 262.541 70.1953C263.021 71.0273 264.146 72.2871 265.916 73.9746C267.334 75.3223 268.283 76.4824 268.764 77.4551C269.256 78.4277 269.502 79.4824 269.502 80.6191C269.502 81.8965 269.162 83.0742 268.482 84.1523C267.803 85.2305 266.812 86.0684 265.512 86.666C264.223 87.252 262.758 87.5449 261.117 87.5449C260.109 87.5449 258.838 87.3926 257.303 87.0879C255.779 86.7949 254.766 86.6484 254.262 86.6484C253.863 86.6484 253.506 86.7129 253.189 86.8418C252.873 86.959 252.48 87.1934 252.012 87.5449H251.326L253.453 78.457H254.121C254.273 80.0508 254.596 81.4102 255.088 82.5352C255.58 83.6484 256.283 84.5215 257.197 85.1543C258.111 85.7754 259.154 86.0859 260.326 86.0859C261.486 86.0859 262.453 85.7051 263.227 84.9434C264.012 84.1699 264.404 83.2676 264.404 82.2363C264.404 81.3574 264.182 80.5137 263.736 79.7051C263.303 78.8965 262.301 77.7188 260.73 76.1719C259.172 74.625 258.094 73.2422 257.496 72.0234C257.062 71.1211 256.846 70.1602 256.846 69.1406C256.846 67.3711 257.543 65.8418 258.938 64.5527C260.332 63.2637 262.154 62.6191 264.404 62.6191C265.424 62.6191 266.766 62.8477 268.43 63.3047C269.402 63.5742 270.088 63.709 270.486 63.709C270.826 63.709 271.131 63.6387 271.4 63.498C271.67 63.3457 271.986 63.0527 272.35 62.6191H273.123ZM277.922 63.1641H297.1L295.289 69.5801H294.656C294.68 69.2402 294.691 68.9414 294.691 68.6836C294.691 67.4648 294.334 66.5215 293.619 65.8535C292.904 65.1738 291.697 64.7871 289.998 64.6934L284.689 82.6406C284.396 83.6367 284.25 84.375 284.25 84.8555C284.25 85.3008 284.432 85.6582 284.795 85.9277C285.158 86.1855 285.896 86.3262 287.01 86.3496L286.852 87H275.021L275.232 86.3496C276.439 86.3496 277.318 86.127 277.869 85.6816C278.42 85.2246 278.924 84.2109 279.381 82.6406L284.689 64.6934C282.861 64.752 281.332 65.1504 280.102 65.8887C278.871 66.627 277.746 67.8574 276.727 69.5801H276.041L277.922 63.1641ZM307.77 64.4824L305.115 73.7285H305.924C308.057 73.7285 309.609 73.4473 310.582 72.8848C311.566 72.3223 312.398 71.3262 313.078 69.8965H313.729L311.057 79.1777H310.441C310.547 78.5566 310.6 78.0527 310.6 77.666C310.6 77.0215 310.406 76.4941 310.02 76.084C309.645 75.6738 309.152 75.3809 308.543 75.2051C308.145 75.0879 307.318 75.0293 306.064 75.0293H304.693L302.408 83.0273C302.209 83.7305 302.109 84.252 302.109 84.5918C302.109 84.8613 302.238 85.0781 302.496 85.2422C302.871 85.4766 303.58 85.5938 304.623 85.5938C306.627 85.5938 308.514 85.1719 310.283 84.3281C312.053 83.4727 313.641 82.1836 315.047 80.4609H315.768L313.289 87H292.898L293.109 86.3496C294.305 86.3496 295.178 86.127 295.729 85.6816C296.279 85.2246 296.777 84.2285 297.223 82.6934L301.705 67.3477C301.951 66.4922 302.074 65.8184 302.074 65.3262C302.074 64.8809 301.916 64.541 301.6 64.3066C301.283 64.0605 300.562 63.8965 299.438 63.8145L299.631 63.1641H318.633L317.104 69.123H316.471C316.424 67.9512 316.242 67.125 315.926 66.6445C315.434 65.8945 314.777 65.3496 313.957 65.0098C313.148 64.6582 311.83 64.4824 310.002 64.4824H307.77ZM328.512 75.3633L326.402 82.5879C326.098 83.6074 325.945 84.3574 325.945 84.8379C325.945 85.2832 326.127 85.6406 326.49 85.9102C326.854 86.1797 327.609 86.3262 328.758 86.3496L328.512 87H317.033L317.244 86.3496C318.393 86.3496 319.23 86.127 319.758 85.6816C320.297 85.2363 320.789 84.2402 321.234 82.6934L325.664 67.4004C325.91 66.5449 326.033 65.8711 326.033 65.3789C326.033 64.9102 325.881 64.5527 325.576 64.3066C325.271 64.0605 324.562 63.8965 323.449 63.8145L323.625 63.1641H333.504C336.328 63.1641 338.314 63.6562 339.463 64.6406C340.611 65.625 341.186 66.8906 341.186 68.4375C341.186 70.0664 340.518 71.5371 339.182 72.8496C338.338 73.6699 336.844 74.3789 334.699 74.9766L336.844 82.2012C337.418 84.1348 337.916 85.3008 338.338 85.6992C338.771 86.0977 339.486 86.3145 340.482 86.3496V87H333.064L329.689 75.3633L329.109 75.3984C328.98 75.3984 328.781 75.3867 328.512 75.3633ZM328.758 74.3086C329.168 74.332 329.514 74.3438 329.795 74.3438C331.506 74.3438 332.912 73.7578 334.014 72.5859C335.115 71.4141 335.666 69.8789 335.666 67.9805C335.666 66.8555 335.373 66 334.787 65.4141C334.201 64.8281 333.428 64.5352 332.467 64.5352C332.232 64.5352 331.957 64.541 331.641 64.5527L328.758 74.3086Z" fill="white" fill-opacity="0.75"/>
<path d="M48.4401 70.4448C48.1622 68.3005 47.9438 66.3745 47.7849 64.667C47.6261 62.9197 47.5467 61.3908 47.5467 60.0804C47.5467 52.1383 50.0087 45.5464 54.9328 40.3046C59.8569 35.0231 65.6745 32.3823 72.3856 32.3823C76.6743 32.3823 80.1093 33.5935 82.6904 36.0158C85.3113 38.4382 86.6218 41.3371 86.6218 44.7124C86.6218 48.9615 85.351 52.6148 82.8096 55.6725C79.0371 60.279 73.0011 64.3493 64.7016 67.8835C67.3622 76.4213 69.1889 81.941 70.1816 84.4428C71.1744 86.9445 72.5047 89.6647 74.1725 92.6033C76.436 90.1015 78.0642 87.6792 79.0569 85.3363C80.0497 82.9536 80.5461 81.0078 80.5461 79.4988C80.5461 78.2281 80.1688 77.1162 79.4143 76.1631C78.6598 75.2101 77.4288 74.5152 75.7212 74.0783L76.436 71.934H99.3093L98.4158 74.0783C96.2714 74.5946 94.4646 75.4682 92.9953 76.6992C91.526 77.9303 88.8058 81.2064 84.8348 86.5276C82.0154 90.3398 79.2158 93.6953 76.436 96.5942C79.6129 101.002 82.5117 104.04 85.1326 105.708C86.8005 106.82 88.7066 107.376 90.8509 107.376C92.082 107.376 93.1541 107.177 94.0675 106.78C94.9808 106.383 96.0927 105.628 97.4032 104.516H99.3093C97.4032 108.607 94.8816 111.684 91.7444 113.749C88.6073 115.814 85.0532 116.847 81.0822 116.847C77.7465 116.847 74.7483 116.191 72.0877 114.881C69.4271 113.531 66.6077 111.267 63.6294 108.09C59.5392 110.989 55.4093 113.173 51.2397 114.643C47.1098 116.112 42.9402 116.847 38.7309 116.847C32.6155 116.847 27.751 115.139 24.1373 111.724C20.5237 108.309 18.7168 104.298 18.7168 99.6916C18.7168 96.0382 19.4912 92.782 21.0399 89.9228C22.5886 87.0637 25.5272 84.006 29.8556 80.7497C34.1841 77.4934 40.3789 74.0585 48.4401 70.4448ZM63.6294 63.4161C66.9254 61.0732 69.3279 58.6707 70.8369 56.2086C72.9415 52.8332 73.9938 49.2394 73.9938 45.4272C73.9938 42.5681 73.3982 40.3641 72.2069 38.8154C71.2538 37.6638 70.0426 37.088 68.5734 37.088C66.7864 37.088 65.3767 37.8028 64.3442 39.2324C62.8352 41.3768 62.0807 44.6926 62.0807 49.1799C62.0807 51.2051 62.1998 53.409 62.4381 55.7917C62.7161 58.1346 63.1132 60.6761 63.6294 63.4161ZM49.3336 74.9123C44.7669 77.414 41.4908 80.0151 39.5053 82.7154C37.5595 85.376 36.5866 88.5727 36.5866 92.3055C36.5866 96.8722 37.9963 100.724 40.8157 103.861C43.6749 106.959 46.8517 108.507 50.3462 108.507C51.8552 108.507 53.5231 108.17 55.3498 107.495C57.1764 106.82 59.162 105.827 61.3063 104.516C58.884 100.863 56.5411 96.2567 54.2776 90.6972C52.0538 85.1377 50.4058 79.8761 49.3336 74.9123Z" fill="black"/>
</svg>
