<svg width="375" height="140" viewBox="0 0 375 140" fill="none" xmlns="http://www.w3.org/2000/svg">
<path d="M113.849 66.4448C113.571 64.3005 113.352 62.3745 113.193 60.667C113.035 58.9197 112.955 57.3908 112.955 56.0804C112.955 48.1383 115.417 41.5464 120.341 36.3046C125.265 31.0231 131.083 28.3823 137.794 28.3823C142.083 28.3823 145.518 29.5935 148.099 32.0158C150.72 34.4382 152.03 37.3371 152.03 40.7124C152.03 44.9615 150.759 48.6148 148.218 51.6725C144.446 56.279 138.41 60.3493 130.11 63.8835C132.771 72.4213 134.597 77.941 135.59 80.4428C136.583 82.9445 137.913 85.6647 139.581 88.6033C141.844 86.1015 143.473 83.6792 144.465 81.3363C145.458 78.9536 145.955 77.0078 145.955 75.4988C145.955 74.2281 145.577 73.1162 144.823 72.1631C144.068 71.2101 142.837 70.5152 141.13 70.0783L141.844 67.934H164.718L163.824 70.0783C161.68 70.5946 159.873 71.4682 158.404 72.6992C156.934 73.9303 154.214 77.2064 150.243 82.5276C147.424 86.3398 144.624 89.6953 141.844 92.5942C145.021 97.0021 147.92 100.04 150.541 101.708C152.209 102.82 154.115 103.376 156.259 103.376C157.49 103.376 158.563 103.177 159.476 102.78C160.389 102.383 161.501 101.628 162.812 100.516H164.718C162.812 104.607 160.29 107.684 157.153 109.749C154.016 111.814 150.462 112.847 146.491 112.847C143.155 112.847 140.157 112.191 137.496 110.881C134.836 109.531 132.016 107.267 129.038 104.09C124.948 106.989 120.818 109.173 116.648 110.643C112.518 112.112 108.349 112.847 104.139 112.847C98.024 112.847 93.1594 111.139 89.5458 107.724C85.9321 104.309 84.1253 100.298 84.1253 95.6916C84.1253 92.0382 84.8996 88.782 86.4484 85.9228C87.9971 83.0637 90.9356 80.006 95.2641 76.7497C99.5925 73.4934 105.787 70.0585 113.849 66.4448ZM129.038 59.4161C132.334 57.0732 134.736 54.6707 136.245 52.2086C138.35 48.8332 139.402 45.2394 139.402 41.4272C139.402 38.5681 138.807 36.3641 137.615 34.8154C136.662 33.6638 135.451 33.088 133.982 33.088C132.195 33.088 130.785 33.8028 129.753 35.2324C128.244 37.3768 127.489 40.6926 127.489 45.1799C127.489 47.2051 127.608 49.409 127.847 51.7917C128.125 54.1346 128.522 56.6761 129.038 59.4161ZM114.742 70.9123C110.175 73.414 106.899 76.0151 104.914 78.7154C102.968 81.376 101.995 84.5727 101.995 88.3055C101.995 92.8722 103.405 96.7241 106.224 99.8612C109.083 102.959 112.26 104.507 115.755 104.507C117.264 104.507 118.932 104.17 120.758 103.495C122.585 102.82 124.57 101.827 126.715 100.516C124.292 96.8631 121.95 92.2567 119.686 86.6972C117.462 81.1377 115.814 75.8761 114.742 70.9123Z" fill="black"/>
<path d="M49.3535 59.6191L47.5957 67.1953H46.9102C46.8281 65.1328 46.3184 63.5977 45.3809 62.5898C44.4551 61.5703 43.2422 61.0605 41.7422 61.0605C40.125 61.0605 38.5137 61.752 36.9082 63.1348C35.3027 64.5176 33.9434 66.6328 32.8301 69.4805C31.9277 71.7891 31.4766 74.0684 31.4766 76.3184C31.4766 78.334 31.9688 79.875 32.9531 80.9414C33.9492 81.9961 35.3086 82.5234 37.0312 82.5234C38.4258 82.5234 39.6973 82.2188 40.8457 81.6094C41.9941 81 43.1543 80.0098 44.3262 78.6387H45.1699C43.7168 80.8184 42.2461 82.3477 40.7578 83.2266C39.2812 84.1055 37.4707 84.5449 35.3262 84.5449C32.4551 84.5449 30.1406 83.6777 28.3828 81.9434C26.6367 80.1973 25.7637 77.9238 25.7637 75.123C25.7637 72.498 26.4609 69.9961 27.8555 67.6172C29.25 65.2266 31.2539 63.2988 33.8672 61.834C36.4922 60.3574 39.0996 59.6191 41.6895 59.6191C42.6738 59.6191 43.8984 59.8301 45.3633 60.252C46.1133 60.4629 46.6348 60.5684 46.9277 60.5684C47.5137 60.5684 48.1055 60.252 48.7031 59.6191H49.3535ZM61.0254 61.4824L58.3711 70.7285H59.1797C61.3125 70.7285 62.8652 70.4473 63.8379 69.8848C64.8223 69.3223 65.6543 68.3262 66.334 66.8965H66.9844L64.3125 76.1777H63.6973C63.8027 75.5566 63.8555 75.0527 63.8555 74.666C63.8555 74.0215 63.6621 73.4941 63.2754 73.084C62.9004 72.6738 62.4082 72.3809 61.7988 72.2051C61.4004 72.0879 60.5742 72.0293 59.3203 72.0293H57.9492L55.6641 80.0273C55.4648 80.7305 55.3652 81.252 55.3652 81.5918C55.3652 81.8613 55.4941 82.0781 55.752 82.2422C56.127 82.4766 56.8359 82.5938 57.8789 82.5938C59.8828 82.5938 61.7695 82.1719 63.5391 81.3281C65.3086 80.4727 66.8965 79.1836 68.3027 77.4609H69.0234L66.5449 84H46.1543L46.3652 83.3496C47.5605 83.3496 48.4336 83.127 48.9844 82.6816C49.5352 82.2246 50.0332 81.2285 50.4785 79.6934L54.9609 64.3477C55.207 63.4922 55.3301 62.8184 55.3301 62.3262C55.3301 61.8809 55.1719 61.541 54.8555 61.3066C54.5391 61.0605 53.8184 60.8965 52.6934 60.8145L52.8867 60.1641H71.8887L70.3594 66.123H69.7266C69.6797 64.9512 69.498 64.125 69.1816 63.6445C68.6895 62.8945 68.0332 62.3496 67.2129 62.0098C66.4043 61.6582 65.0859 61.4824 63.2578 61.4824H61.0254ZM89.3086 84H70.2715L70.4648 83.3496C71.6016 83.3496 72.4277 83.1328 72.9434 82.6992C73.4707 82.2539 73.957 81.2637 74.4023 79.7285L78.832 64.418C79.0781 63.5742 79.2012 62.9121 79.2012 62.4316C79.2012 61.9629 79.0254 61.5879 78.6738 61.3066C78.3223 61.0254 77.6309 60.8613 76.5996 60.8145L76.793 60.1641H88.2363L88.043 60.8145C86.9414 60.8379 86.1152 61.084 85.5645 61.5527C85.0254 62.0215 84.5449 62.9766 84.123 64.418L80.0801 78.4277C79.5645 80.209 79.3066 81.293 79.3066 81.6797C79.3066 81.9141 79.4355 82.1367 79.6934 82.3477C79.9629 82.5469 80.3906 82.6465 80.9766 82.6465C82.9219 82.6465 84.7969 82.2012 86.6016 81.3105C88.418 80.4199 89.9531 79.0898 91.207 77.3203H91.9453L89.3086 84ZM108.029 76.3184H100.646L99.1699 78.1465L97.4824 80.168C97.1543 80.6016 96.9141 80.9941 96.7617 81.3457C96.6445 81.6152 96.5859 81.8848 96.5859 82.1543C96.5859 82.4355 96.7324 82.6992 97.0254 82.9453C97.3301 83.1797 97.8281 83.3145 98.5195 83.3496V84H91.4004L91.5762 83.3496C92.209 83.2441 92.7715 83.0215 93.2637 82.6816C93.9199 82.2129 94.8633 81.2461 96.0938 79.7812L112.986 59.6191H113.777L112.986 79.1309C112.951 80.1504 112.934 80.7656 112.934 80.9766C112.934 81.7734 113.092 82.3535 113.408 82.7168C113.736 83.0801 114.275 83.291 115.025 83.3496L114.85 84H104.531L104.725 83.3496C105.744 83.2559 106.33 83.1738 106.482 83.1035C106.811 82.9395 107.109 82.5996 107.379 82.084C107.648 81.5566 107.812 80.6484 107.871 79.3594L108.029 76.3184ZM108.029 74.877L108.486 67.1074L101.859 74.877H108.029ZM135.205 84.5449L132.111 87.3574C133.271 87.123 134.221 87.0059 134.959 87.0059C135.979 87.0059 137.414 87.252 139.266 87.7441C141.117 88.2363 142.576 88.4824 143.643 88.4824C144.814 88.4824 145.898 88.2715 146.895 87.8496C147.516 87.5918 148.154 87.1523 148.811 86.5312L149.338 87.0234C148.154 88.4648 146.76 89.5664 145.154 90.3281C143.549 91.1016 141.527 91.4883 139.09 91.4883C137.719 91.4883 136.119 91.2891 134.291 90.8906C132.463 90.5039 131.01 90.3105 129.932 90.3105C129.076 90.3105 128.162 90.4395 127.189 90.6973L126.855 90.2578L133.342 84.5449C131.818 84.2871 130.652 83.877 129.844 83.3145C128.742 82.5645 127.887 81.5391 127.277 80.2383C126.668 78.9258 126.363 77.5781 126.363 76.1953C126.363 73.5938 127.107 70.9746 128.596 68.3379C130.096 65.6895 132.1 63.5742 134.607 61.9922C137.127 60.4102 139.623 59.6191 142.096 59.6191C143.525 59.6191 144.891 59.9766 146.191 60.6914C147.492 61.4062 148.5 62.4199 149.215 63.7324C149.93 65.0332 150.287 66.3867 150.287 67.793C150.287 69.8906 149.777 72.0469 148.758 74.2617C147.738 76.4648 146.355 78.3867 144.609 80.0273C142.875 81.668 141.123 82.8574 139.354 83.5957C138.158 84.0996 136.775 84.416 135.205 84.5449ZM141.516 61.043C140.59 61.043 139.799 61.2129 139.143 61.5527C138.498 61.8809 137.824 62.4375 137.121 63.2227C136.418 64.0078 135.703 65.1328 134.977 66.5977C134.25 68.0508 133.564 70.0312 132.92 72.5391C132.287 75.0469 131.971 77.1387 131.971 78.8145C131.971 80.2441 132.281 81.3281 132.902 82.0664C133.523 82.793 134.32 83.1562 135.293 83.1562C136.582 83.1562 137.678 82.7285 138.58 81.873C140.373 80.1738 141.832 77.6836 142.957 74.4023C144.094 71.1094 144.662 68.1797 144.662 65.6133C144.662 64.0078 144.357 62.8477 143.748 62.1328C143.15 61.4062 142.406 61.043 141.516 61.043ZM171.504 60.1641H179.572L179.414 60.8145C178.488 60.8848 177.773 61.1074 177.27 61.4824C176.461 62.0801 175.857 63.0645 175.459 64.4355L172.295 75.3691C171.311 78.7793 169.975 81.1641 168.287 82.5234C166.6 83.8711 164.455 84.5449 161.854 84.5449C160.377 84.5449 159.076 84.334 157.951 83.9121C156.826 83.4902 156 83.0156 155.473 82.4883C154.945 81.9609 154.541 81.3105 154.26 80.5371C153.979 79.752 153.838 79.0957 153.838 78.5684C153.838 77.7363 154.072 76.5059 154.541 74.877L157.564 64.4355C157.834 63.498 157.969 62.8008 157.969 62.3438C157.969 61.8984 157.799 61.5527 157.459 61.3066C157.131 61.0605 156.357 60.8965 155.139 60.8145L155.332 60.1641H167.215L167.004 60.8145C165.855 60.8145 164.977 61.0605 164.367 61.5527C163.77 62.0449 163.266 63.0059 162.855 64.4355L159.814 74.877C159.311 76.623 159.059 78.0234 159.059 79.0781C159.059 80.0391 159.445 80.877 160.219 81.5918C160.992 82.3066 162.07 82.6641 163.453 82.6641C164.719 82.6641 165.791 82.4355 166.67 81.9785C167.561 81.5098 168.299 80.8594 168.885 80.0273C169.658 78.9141 170.35 77.3203 170.959 75.2461L174.07 64.4355C174.246 63.8145 174.334 63.2988 174.334 62.8887C174.334 62.1621 174.076 61.6055 173.561 61.2188C173.197 60.9492 172.447 60.8145 171.311 60.8145L171.504 60.1641ZM181.453 60.8145L181.646 60.1641H193.283L193.055 60.8145C192 60.8145 191.191 61.0488 190.629 61.5176C190.078 61.9863 189.592 62.9648 189.17 64.4531L184.811 79.7109C184.494 80.7891 184.336 81.5098 184.336 81.873C184.336 82.2949 184.5 82.623 184.828 82.8574C185.25 83.1621 186.047 83.3262 187.219 83.3496L187.043 84H175.213L175.406 83.3496C176.59 83.3496 177.457 83.127 178.008 82.6816C178.559 82.2246 179.057 81.2344 179.502 79.7109L183.896 64.4531C184.166 63.5156 184.301 62.8066 184.301 62.3262C184.301 61.8926 184.137 61.5527 183.809 61.3066C183.48 61.0605 182.695 60.8965 181.453 60.8145ZM226.4 59.6191L224.748 67.2656H224.08C223.986 65.0391 223.482 63.4395 222.568 62.4668C221.666 61.4824 220.395 60.9902 218.754 60.9902C217.066 60.9902 215.379 61.5879 213.691 62.7832C212.004 63.9668 210.562 65.8008 209.367 68.2852C208.184 70.7578 207.592 73.3594 207.592 76.0898C207.592 78.4336 208.119 80.2266 209.174 81.4688C210.229 82.6992 211.465 83.3145 212.883 83.3145C213.48 83.3145 214.207 83.1445 215.062 82.8047L216.891 76.5117C217.195 75.457 217.348 74.7656 217.348 74.4375C217.348 74.0039 217.16 73.6406 216.785 73.3477C216.422 73.043 215.789 72.8906 214.887 72.8906L215.062 72.2227H225.346L225.188 72.8906C224.578 72.9258 224.098 73.043 223.746 73.2422C223.406 73.4297 223.137 73.7109 222.938 74.0859C222.82 74.3086 222.639 74.8828 222.393 75.8086L220.23 83.1387C217.77 84.0762 215.18 84.5449 212.461 84.5449C210.363 84.5449 208.576 84.1641 207.1 83.4023C205.635 82.6406 204.416 81.4336 203.443 79.7812C202.482 78.1289 202.002 76.248 202.002 74.1387C202.002 69.6387 204 65.9297 207.996 63.0117C211.125 60.75 214.676 59.6191 218.648 59.6191C219.34 59.6191 219.979 59.6543 220.564 59.7246C220.998 59.7832 221.76 59.9473 222.85 60.2168C223.553 60.3926 224.033 60.4805 224.291 60.4805C224.807 60.4805 225.293 60.1934 225.75 59.6191H226.4ZM235.857 72.3633L233.748 79.5879C233.443 80.6074 233.291 81.3574 233.291 81.8379C233.291 82.2832 233.473 82.6406 233.836 82.9102C234.199 83.1797 234.955 83.3262 236.104 83.3496L235.857 84H224.379L224.59 83.3496C225.738 83.3496 226.576 83.127 227.104 82.6816C227.643 82.2363 228.135 81.2402 228.58 79.6934L233.01 64.4004C233.256 63.5449 233.379 62.8711 233.379 62.3789C233.379 61.9102 233.227 61.5527 232.922 61.3066C232.617 61.0605 231.908 60.8965 230.795 60.8145L230.971 60.1641H240.85C243.674 60.1641 245.66 60.6562 246.809 61.6406C247.957 62.625 248.531 63.8906 248.531 65.4375C248.531 67.0664 247.863 68.5371 246.527 69.8496C245.684 70.6699 244.189 71.3789 242.045 71.9766L244.189 79.2012C244.764 81.1348 245.262 82.3008 245.684 82.6992C246.117 83.0977 246.832 83.3145 247.828 83.3496V84H240.41L237.035 72.3633L236.455 72.3984C236.326 72.3984 236.127 72.3867 235.857 72.3633ZM236.104 71.3086C236.514 71.332 236.859 71.3438 237.141 71.3438C238.852 71.3438 240.258 70.7578 241.359 69.5859C242.461 68.4141 243.012 66.8789 243.012 64.9805C243.012 63.8555 242.719 63 242.133 62.4141C241.547 61.8281 240.773 61.5352 239.812 61.5352C239.578 61.5352 239.303 61.541 238.986 61.5527L236.104 71.3086ZM259.658 84.5625C257.736 84.5625 256.184 84.1699 255 83.3848C253.816 82.5996 252.926 81.5273 252.328 80.168C251.742 78.8086 251.449 77.4844 251.449 76.1953C251.449 73.5938 252.193 70.9746 253.682 68.3379C255.17 65.6895 257.174 63.5742 259.693 61.9922C262.225 60.3984 264.721 59.6016 267.182 59.6016C268.623 59.6016 269.988 59.9648 271.277 60.6914C272.578 61.418 273.586 62.4316 274.301 63.7324C275.027 65.0332 275.391 66.3457 275.391 67.6699C275.391 70.6348 274.447 73.6113 272.561 76.5996C270.674 79.5762 268.553 81.7324 266.197 83.0684C264.416 84.0645 262.236 84.5625 259.658 84.5625ZM266.602 61.043C265.676 61.043 264.885 61.2129 264.229 61.5527C263.584 61.8809 262.91 62.4375 262.207 63.2227C261.504 64.0078 260.789 65.1328 260.062 66.5977C259.336 68.0508 258.65 70.0312 258.006 72.5391C257.373 75.0469 257.057 77.1387 257.057 78.8145C257.057 80.2441 257.367 81.3281 257.988 82.0664C258.609 82.793 259.406 83.1562 260.379 83.1562C261.668 83.1562 262.764 82.7285 263.666 81.873C265.459 80.1738 266.918 77.6836 268.043 74.4023C269.18 71.1094 269.748 68.1797 269.748 65.6133C269.748 64.0078 269.443 62.8477 268.834 62.1328C268.236 61.4062 267.492 61.043 266.602 61.043ZM288.381 60.1641L295.834 76.0547L299.191 64.5234C299.367 63.8906 299.455 63.3281 299.455 62.8359C299.455 62.25 299.268 61.7812 298.893 61.4297C298.529 61.0781 297.896 60.873 296.994 60.8145L297.188 60.1641H304.746L304.57 60.8145C303.609 60.873 302.812 61.1426 302.18 61.623C301.559 62.1035 301.031 63.0703 300.598 64.5234L294.779 84.2637H294.111L284.549 63.9434L279.926 79.7812C279.773 80.332 279.697 80.8242 279.697 81.2578C279.697 81.8906 279.902 82.4004 280.312 82.7871C280.734 83.1621 281.402 83.3496 282.316 83.3496L282.158 84H274.389L274.547 83.3496C275.215 83.3496 275.689 83.291 275.971 83.1738C276.463 82.9863 276.943 82.6289 277.412 82.1016C277.881 81.5625 278.262 80.7891 278.555 79.7812L283.6 62.4668C282.979 61.7754 282.457 61.3301 282.035 61.1309C281.613 60.9316 280.98 60.8262 280.137 60.8145L280.33 60.1641H288.381ZM300.264 84L300.475 83.3496C301.623 83.3496 302.49 83.1152 303.076 82.6465C303.674 82.166 304.166 81.2754 304.553 79.9746L308.877 64.9453C309.158 63.9609 309.299 63.1523 309.299 62.5195C309.299 61.9805 309.135 61.582 308.807 61.3242C308.479 61.0664 307.641 60.8965 306.293 60.8145L306.504 60.1641H314.66C318.961 60.1641 322.061 61.0371 323.959 62.7832C325.869 64.5176 326.824 66.9551 326.824 70.0957C326.824 72.3105 326.385 74.168 325.506 75.668C323.783 78.5977 321.738 80.7188 319.371 82.0312C317.004 83.3438 313.963 84 310.248 84H300.264ZM315.152 61.5703L309.914 79.6406C309.668 80.4727 309.545 81.0703 309.545 81.4336C309.545 81.7617 309.68 82.0254 309.949 82.2246C310.301 82.4941 310.822 82.6289 311.514 82.6289C313.166 82.6289 314.643 82.1133 315.943 81.082C317.607 79.7578 318.873 77.9766 319.74 75.7383C320.619 73.5 321.059 71.2793 321.059 69.0762C321.059 67.4824 320.807 66.0938 320.303 64.9102C319.799 63.7266 319.02 62.8242 317.965 62.2031C317.227 61.7812 316.289 61.5703 315.152 61.5703ZM341.186 61.4824L338.531 70.7285H339.34C341.473 70.7285 343.025 70.4473 343.998 69.8848C344.982 69.3223 345.814 68.3262 346.494 66.8965H347.145L344.473 76.1777H343.857C343.963 75.5566 344.016 75.0527 344.016 74.666C344.016 74.0215 343.822 73.4941 343.436 73.084C343.061 72.6738 342.568 72.3809 341.959 72.2051C341.561 72.0879 340.734 72.0293 339.48 72.0293H338.109L335.824 80.0273C335.625 80.7305 335.525 81.252 335.525 81.5918C335.525 81.8613 335.654 82.0781 335.912 82.2422C336.287 82.4766 336.996 82.5938 338.039 82.5938C340.043 82.5938 341.93 82.1719 343.699 81.3281C345.469 80.4727 347.057 79.1836 348.463 77.4609H349.184L346.705 84H326.314L326.525 83.3496C327.721 83.3496 328.594 83.127 329.145 82.6816C329.695 82.2246 330.193 81.2285 330.639 79.6934L335.121 64.3477C335.367 63.4922 335.49 62.8184 335.49 62.3262C335.49 61.8809 335.332 61.541 335.016 61.3066C334.699 61.0605 333.979 60.8965 332.854 60.8145L333.047 60.1641H352.049L350.52 66.123H349.887C349.84 64.9512 349.658 64.125 349.342 63.6445C348.85 62.8945 348.193 62.3496 347.373 62.0098C346.564 61.6582 345.246 61.4824 343.418 61.4824H341.186Z" fill="white" fill-opacity="0.75"/>
</svg>
