<svg width="274" height="144" viewBox="0 0 274 144" fill="none" xmlns="http://www.w3.org/2000/svg">
<path d="M48.4401 70.4448C48.1622 68.3005 47.9438 66.3745 47.7849 64.667C47.6261 62.9197 47.5467 61.3908 47.5467 60.0804C47.5467 52.1383 50.0087 45.5464 54.9328 40.3046C59.8569 35.0231 65.6745 32.3823 72.3856 32.3823C76.6743 32.3823 80.1093 33.5935 82.6904 36.0158C85.3113 38.4382 86.6218 41.3371 86.6218 44.7124C86.6218 48.9615 85.351 52.6148 82.8096 55.6725C79.0371 60.279 73.0011 64.3493 64.7016 67.8835C67.3622 76.4213 69.1889 81.941 70.1816 84.4428C71.1744 86.9445 72.5047 89.6647 74.1725 92.6033C76.436 90.1015 78.0642 87.6792 79.0569 85.3363C80.0497 82.9536 80.5461 81.0078 80.5461 79.4988C80.5461 78.2281 80.1688 77.1162 79.4143 76.1631C78.6598 75.2101 77.4288 74.5152 75.7212 74.0783L76.436 71.934H99.3093L98.4158 74.0783C96.2714 74.5946 94.4646 75.4682 92.9953 76.6992C91.526 77.9303 88.8058 81.2064 84.8348 86.5276C82.0154 90.3398 79.2158 93.6953 76.436 96.5942C79.6129 101.002 82.5117 104.04 85.1326 105.708C86.8005 106.82 88.7066 107.376 90.8509 107.376C92.082 107.376 93.1541 107.177 94.0675 106.78C94.9808 106.383 96.0927 105.628 97.4032 104.516H99.3093C97.4032 108.607 94.8816 111.684 91.7444 113.749C88.6073 115.814 85.0532 116.847 81.0822 116.847C77.7465 116.847 74.7483 116.191 72.0877 114.881C69.4271 113.531 66.6077 111.267 63.6294 108.09C59.5392 110.989 55.4093 113.173 51.2397 114.643C47.1098 116.112 42.9402 116.847 38.7309 116.847C32.6155 116.847 27.751 115.139 24.1373 111.724C20.5237 108.309 18.7168 104.298 18.7168 99.6916C18.7168 96.0382 19.4912 92.782 21.0399 89.9228C22.5886 87.0637 25.5272 84.006 29.8556 80.7497C34.1841 77.4934 40.3789 74.0585 48.4401 70.4448ZM63.6294 63.4161C66.9254 61.0732 69.3279 58.6707 70.8369 56.2086C72.9415 52.8332 73.9938 49.2394 73.9938 45.4272C73.9938 42.5681 73.3982 40.3641 72.2069 38.8154C71.2538 37.6638 70.0426 37.088 68.5734 37.088C66.7864 37.088 65.3767 37.8028 64.3442 39.2324C62.8352 41.3768 62.0807 44.6926 62.0807 49.1799C62.0807 51.2051 62.1998 53.409 62.4381 55.7917C62.7161 58.1346 63.1132 60.6761 63.6294 63.4161ZM49.3336 74.9123C44.7669 77.414 41.4908 80.0151 39.5053 82.7154C37.5595 85.376 36.5866 88.5727 36.5866 92.3055C36.5866 96.8722 37.9963 100.724 40.8157 103.861C43.6749 106.959 46.8517 108.507 50.3462 108.507C51.8552 108.507 53.5231 108.17 55.3498 107.495C57.1764 106.82 59.162 105.827 61.3063 104.516C58.884 100.863 56.5411 96.2567 54.2776 90.6972C52.0538 85.1377 50.4058 79.8761 49.3336 74.9123Z" fill="black"/>
<path d="M46.125 15.6562L43 29.125H41.7812C41.6354 25.4583 40.7292 22.7292 39.0625 20.9375C37.4167 19.125 35.2604 18.2188 32.5938 18.2188C29.7188 18.2188 26.8542 19.4479 24 21.9062C21.1458 24.3646 18.7292 28.125 16.75 33.1875C15.1458 37.2917 14.3438 41.3438 14.3438 45.3438C14.3438 48.9271 15.2188 51.6667 16.9688 53.5625C18.7396 55.4375 21.1562 56.375 24.2188 56.375C26.6979 56.375 28.9583 55.8333 31 54.75C33.0417 53.6667 35.1042 51.9062 37.1875 49.4688H38.6875C36.1042 53.3438 33.4896 56.0625 30.8438 57.625C28.2188 59.1875 25 59.9688 21.1875 59.9688C16.0833 59.9688 11.9688 58.4271 8.84375 55.3438C5.73958 52.2396 4.1875 48.1979 4.1875 43.2188C4.1875 38.5521 5.42708 34.1042 7.90625 29.875C10.3854 25.625 13.9479 22.1979 18.5938 19.5938C23.2604 16.9688 27.8958 15.6562 32.5 15.6562C34.25 15.6562 36.4271 16.0312 39.0312 16.7812C40.3646 17.1562 41.2917 17.3438 41.8125 17.3438C42.8542 17.3438 43.9062 16.7812 44.9688 15.6562H46.125ZM61.7188 36.125H77.2188L80.6562 24.2812C81.1146 22.6562 81.3438 21.4167 81.3438 20.5625C81.3438 19.7292 81.0625 19.0938 80.5 18.6562C79.9375 18.2188 78.5833 17.9271 76.4375 17.7812L76.7812 16.625H97.8438L97.5 17.7812C95.4375 17.7812 93.875 18.2188 92.8125 19.0938C91.75 19.9688 90.8438 21.6979 90.0938 24.2812L82.2188 51.4062C81.6979 53.1771 81.4375 54.4479 81.4375 55.2188C81.4375 55.9896 81.7188 56.5729 82.2812 56.9688C83.0104 57.5104 84.3333 57.8021 86.25 57.8438L85.9375 59H65.2812L65.75 57.8438C67.75 57.8438 69.2188 57.4583 70.1562 56.6875C71.1146 55.8958 71.9896 54.1354 72.7812 51.4062L76.4375 38.7812H61L57.375 51.4062C56.8542 53.1354 56.5938 54.4167 56.5938 55.25C56.5938 56 56.9062 56.6146 57.5312 57.0938C58.1771 57.5521 59.4375 57.8021 61.3125 57.8438L61 59H40.625L40.9688 57.8438C42.9688 57.8438 44.4271 57.4583 45.3438 56.6875C46.2812 55.8958 47.1458 54.1354 47.9375 51.4062L55.8125 24.2812C56.2708 22.7188 56.5 21.4896 56.5 20.5938C56.5 19.7396 56.2188 19.0938 55.6562 18.6562C55.1146 18.2188 53.8021 17.9271 51.7188 17.7812L52.0625 16.625H72.7812L72.3125 17.7812C70.3958 17.7812 68.9479 18.1979 67.9688 19.0312C66.9896 19.8438 66.0938 21.5938 65.2812 24.2812L61.7188 36.125ZM110.875 38.3125L107.125 51.1562C106.583 52.9688 106.312 54.3021 106.312 55.1562C106.312 55.9479 106.635 56.5833 107.281 57.0625C107.927 57.5417 109.271 57.8021 111.312 57.8438L110.875 59H90.4688L90.8438 57.8438C92.8854 57.8438 94.375 57.4479 95.3125 56.6562C96.2708 55.8646 97.1458 54.0938 97.9375 51.3438L105.812 24.1562C106.25 22.6354 106.469 21.4375 106.469 20.5625C106.469 19.7292 106.198 19.0938 105.656 18.6562C105.115 18.2188 103.854 17.9271 101.875 17.7812L102.188 16.625H119.75C124.771 16.625 128.302 17.5 130.344 19.25C132.385 21 133.406 23.25 133.406 26C133.406 28.8958 132.219 31.5104 129.844 33.8438C128.344 35.3021 125.688 36.5625 121.875 37.625L125.688 50.4688C126.708 53.9062 127.594 55.9792 128.344 56.6875C129.115 57.3958 130.385 57.7812 132.156 57.8438V59H118.969L112.969 38.3125L111.938 38.375C111.708 38.375 111.354 38.3542 110.875 38.3125ZM111.312 36.4375C112.042 36.4792 112.656 36.5 113.156 36.5C116.198 36.5 118.698 35.4583 120.656 33.375C122.615 31.2917 123.594 28.5625 123.594 25.1875C123.594 23.1875 123.073 21.6667 122.031 20.625C120.99 19.5833 119.615 19.0625 117.906 19.0625C117.49 19.0625 117 19.0729 116.438 19.0938L111.312 36.4375ZM153.188 60C149.771 60 147.01 59.3021 144.906 57.9062C142.802 56.5104 141.219 54.6042 140.156 52.1875C139.115 49.7708 138.594 47.4167 138.594 45.125C138.594 40.5 139.917 35.8438 142.562 31.1562C145.208 26.4479 148.771 22.6875 153.25 19.875C157.75 17.0417 162.188 15.625 166.562 15.625C169.125 15.625 171.552 16.2708 173.844 17.5625C176.156 18.8542 177.948 20.6562 179.219 22.9688C180.51 25.2812 181.156 27.6146 181.156 29.9688C181.156 35.2396 179.479 40.5312 176.125 45.8438C172.771 51.1354 169 54.9688 164.812 57.3438C161.646 59.1146 157.771 60 153.188 60ZM165.531 18.1875C163.885 18.1875 162.479 18.4896 161.312 19.0938C160.167 19.6771 158.969 20.6667 157.719 22.0625C156.469 23.4583 155.198 25.4583 153.906 28.0625C152.615 30.6458 151.396 34.1667 150.25 38.625C149.125 43.0833 148.562 46.8021 148.562 49.7812C148.562 52.3229 149.115 54.25 150.219 55.5625C151.323 56.8542 152.74 57.5 154.469 57.5C156.76 57.5 158.708 56.7396 160.312 55.2188C163.5 52.1979 166.094 47.7708 168.094 41.9375C170.115 36.0833 171.125 30.875 171.125 26.3125C171.125 23.4583 170.583 21.3958 169.5 20.125C168.438 18.8333 167.115 18.1875 165.531 18.1875ZM204.25 16.625L217.5 44.875L223.469 24.375C223.781 23.25 223.938 22.25 223.938 21.375C223.938 20.3333 223.604 19.5 222.938 18.875C222.292 18.25 221.167 17.8854 219.562 17.7812L219.906 16.625H233.344L233.031 17.7812C231.323 17.8854 229.906 18.3646 228.781 19.2188C227.677 20.0729 226.74 21.7917 225.969 24.375L215.625 59.4688H214.438L197.438 23.3438L189.219 51.5C188.948 52.4792 188.812 53.3542 188.812 54.125C188.812 55.25 189.177 56.1562 189.906 56.8438C190.656 57.5104 191.844 57.8438 193.469 57.8438L193.188 59H179.375L179.656 57.8438C180.844 57.8438 181.688 57.7396 182.188 57.5312C183.062 57.1979 183.917 56.5625 184.75 55.625C185.583 54.6667 186.26 53.2917 186.781 51.5L195.75 20.7188C194.646 19.4896 193.719 18.6979 192.969 18.3438C192.219 17.9896 191.094 17.8021 189.594 17.7812L189.938 16.625H204.25ZM245.688 60C242.271 60 239.51 59.3021 237.406 57.9062C235.302 56.5104 233.719 54.6042 232.656 52.1875C231.615 49.7708 231.094 47.4167 231.094 45.125C231.094 40.5 232.417 35.8438 235.062 31.1562C237.708 26.4479 241.271 22.6875 245.75 19.875C250.25 17.0417 254.688 15.625 259.062 15.625C261.625 15.625 264.052 16.2708 266.344 17.5625C268.656 18.8542 270.448 20.6562 271.719 22.9688C273.01 25.2812 273.656 27.6146 273.656 29.9688C273.656 35.2396 271.979 40.5312 268.625 45.8438C265.271 51.1354 261.5 54.9688 257.312 57.3438C254.146 59.1146 250.271 60 245.688 60ZM258.031 18.1875C256.385 18.1875 254.979 18.4896 253.812 19.0938C252.667 19.6771 251.469 20.6667 250.219 22.0625C248.969 23.4583 247.698 25.4583 246.406 28.0625C245.115 30.6458 243.896 34.1667 242.75 38.625C241.625 43.0833 241.062 46.8021 241.062 49.7812C241.062 52.3229 241.615 54.25 242.719 55.5625C243.823 56.8542 245.24 57.5 246.969 57.5C249.26 57.5 251.208 56.7396 252.812 55.2188C256 52.1979 258.594 47.7708 260.594 41.9375C262.615 36.0833 263.625 30.875 263.625 26.3125C263.625 23.4583 263.083 21.3958 262 20.125C260.938 18.8333 259.615 18.1875 258.031 18.1875Z" fill="white" fill-opacity="0.75"/>
<path d="M106.877 87H87.8398L88.0332 86.3496C89.1699 86.3496 89.9961 86.1328 90.5117 85.6992C91.0391 85.2539 91.5254 84.2637 91.9707 82.7285L96.4004 67.418C96.6465 66.5742 96.7695 65.9121 96.7695 65.4316C96.7695 64.9629 96.5938 64.5879 96.2422 64.3066C95.8906 64.0254 95.1992 63.8613 94.168 63.8145L94.3613 63.1641H105.805L105.611 63.8145C104.51 63.8379 103.684 64.084 103.133 64.5527C102.594 65.0215 102.113 65.9766 101.691 67.418L97.6484 81.4277C97.1328 83.209 96.875 84.293 96.875 84.6797C96.875 84.9141 97.0039 85.1367 97.2617 85.3477C97.5312 85.5469 97.959 85.6465 98.5449 85.6465C100.49 85.6465 102.365 85.2012 104.17 84.3105C105.986 83.4199 107.521 82.0898 108.775 80.3203H109.514L106.877 87ZM121.133 87.5625C119.211 87.5625 117.658 87.1699 116.475 86.3848C115.291 85.5996 114.4 84.5273 113.803 83.168C113.217 81.8086 112.924 80.4844 112.924 79.1953C112.924 76.5938 113.668 73.9746 115.156 71.3379C116.645 68.6895 118.648 66.5742 121.168 64.9922C123.699 63.3984 126.195 62.6016 128.656 62.6016C130.098 62.6016 131.463 62.9648 132.752 63.6914C134.053 64.418 135.061 65.4316 135.775 66.7324C136.502 68.0332 136.865 69.3457 136.865 70.6699C136.865 73.6348 135.922 76.6113 134.035 79.5996C132.148 82.5762 130.027 84.7324 127.672 86.0684C125.891 87.0645 123.711 87.5625 121.133 87.5625ZM128.076 64.043C127.15 64.043 126.359 64.2129 125.703 64.5527C125.059 64.8809 124.385 65.4375 123.682 66.2227C122.979 67.0078 122.264 68.1328 121.537 69.5977C120.811 71.0508 120.125 73.0312 119.48 75.5391C118.848 78.0469 118.531 80.1387 118.531 81.8145C118.531 83.2441 118.842 84.3281 119.463 85.0664C120.084 85.793 120.881 86.1562 121.854 86.1562C123.143 86.1562 124.238 85.7285 125.141 84.873C126.934 83.1738 128.393 80.6836 129.518 77.4023C130.654 74.1094 131.223 71.1797 131.223 68.6133C131.223 67.0078 130.918 65.8477 130.309 65.1328C129.711 64.4062 128.967 64.043 128.076 64.043ZM163.918 62.6191L162.266 70.2656H161.598C161.504 68.0391 161 66.4395 160.086 65.4668C159.184 64.4824 157.912 63.9902 156.271 63.9902C154.584 63.9902 152.896 64.5879 151.209 65.7832C149.521 66.9668 148.08 68.8008 146.885 71.2852C145.701 73.7578 145.109 76.3594 145.109 79.0898C145.109 81.4336 145.637 83.2266 146.691 84.4688C147.746 85.6992 148.982 86.3145 150.4 86.3145C150.998 86.3145 151.725 86.1445 152.58 85.8047L154.408 79.5117C154.713 78.457 154.865 77.7656 154.865 77.4375C154.865 77.0039 154.678 76.6406 154.303 76.3477C153.939 76.043 153.307 75.8906 152.404 75.8906L152.58 75.2227H162.863L162.705 75.8906C162.096 75.9258 161.615 76.043 161.264 76.2422C160.924 76.4297 160.654 76.7109 160.455 77.0859C160.338 77.3086 160.156 77.8828 159.91 78.8086L157.748 86.1387C155.287 87.0762 152.697 87.5449 149.979 87.5449C147.881 87.5449 146.094 87.1641 144.617 86.4023C143.152 85.6406 141.934 84.4336 140.961 82.7812C140 81.1289 139.52 79.248 139.52 77.1387C139.52 72.6387 141.518 68.9297 145.514 66.0117C148.643 63.75 152.193 62.6191 156.166 62.6191C156.857 62.6191 157.496 62.6543 158.082 62.7246C158.516 62.7832 159.277 62.9473 160.367 63.2168C161.07 63.3926 161.551 63.4805 161.809 63.4805C162.324 63.4805 162.811 63.1934 163.268 62.6191H163.918ZM168.014 63.8145L168.207 63.1641H179.844L179.615 63.8145C178.561 63.8145 177.752 64.0488 177.189 64.5176C176.639 64.9863 176.152 65.9648 175.73 67.4531L171.371 82.7109C171.055 83.7891 170.896 84.5098 170.896 84.873C170.896 85.2949 171.061 85.623 171.389 85.8574C171.811 86.1621 172.607 86.3262 173.779 86.3496L173.604 87H161.773L161.967 86.3496C163.15 86.3496 164.018 86.127 164.568 85.6816C165.119 85.2246 165.617 84.2344 166.062 82.7109L170.457 67.4531C170.727 66.5156 170.861 65.8066 170.861 65.3262C170.861 64.8926 170.697 64.5527 170.369 64.3066C170.041 64.0605 169.256 63.8965 168.014 63.8145ZM190.672 64.4824L188.018 73.7285H188.826C190.959 73.7285 192.512 73.4473 193.484 72.8848C194.469 72.3223 195.301 71.3262 195.98 69.8965H196.631L193.959 79.1777H193.344C193.449 78.5566 193.502 78.0527 193.502 77.666C193.502 77.0215 193.309 76.4941 192.922 76.084C192.547 75.6738 192.055 75.3809 191.445 75.2051C191.047 75.0879 190.221 75.0293 188.967 75.0293H187.596L185.311 83.0273C185.111 83.7305 185.012 84.252 185.012 84.5918C185.012 84.8613 185.141 85.0781 185.398 85.2422C185.773 85.4766 186.482 85.5938 187.525 85.5938C189.529 85.5938 191.416 85.1719 193.186 84.3281C194.955 83.4727 196.543 82.1836 197.949 80.4609H198.67L196.191 87H175.801L176.012 86.3496C177.207 86.3496 178.08 86.127 178.631 85.6816C179.182 85.2246 179.68 84.2285 180.125 82.6934L184.607 67.3477C184.854 66.4922 184.977 65.8184 184.977 65.3262C184.977 64.8809 184.818 64.541 184.502 64.3066C184.186 64.0605 183.465 63.8965 182.34 63.8145L182.533 63.1641H201.535L200.006 69.123H199.373C199.326 67.9512 199.145 67.125 198.828 66.6445C198.336 65.8945 197.68 65.3496 196.859 65.0098C196.051 64.6582 194.732 64.4824 192.904 64.4824H190.672Z" fill="white" fill-opacity="0.75"/>
</svg>
