<svg width="375" height="140" viewBox="0 0 375 140" fill="none" xmlns="http://www.w3.org/2000/svg">
<path d="M113.849 66.4448C113.571 64.3005 113.352 62.3745 113.193 60.667C113.035 58.9197 112.955 57.3908 112.955 56.0804C112.955 48.1383 115.417 41.5464 120.341 36.3046C125.265 31.0231 131.083 28.3823 137.794 28.3823C142.083 28.3823 145.518 29.5935 148.099 32.0158C150.72 34.4382 152.03 37.3371 152.03 40.7124C152.03 44.9615 150.759 48.6148 148.218 51.6725C144.446 56.279 138.41 60.3493 130.11 63.8835C132.771 72.4213 134.597 77.941 135.59 80.4428C136.583 82.9445 137.913 85.6647 139.581 88.6033C141.844 86.1015 143.473 83.6792 144.465 81.3363C145.458 78.9536 145.955 77.0078 145.955 75.4988C145.955 74.2281 145.577 73.1162 144.823 72.1631C144.068 71.2101 142.837 70.5152 141.13 70.0783L141.844 67.934H164.718L163.824 70.0783C161.68 70.5946 159.873 71.4682 158.404 72.6992C156.934 73.9303 154.214 77.2064 150.243 82.5276C147.424 86.3398 144.624 89.6953 141.844 92.5942C145.021 97.0021 147.92 100.04 150.541 101.708C152.209 102.82 154.115 103.376 156.259 103.376C157.49 103.376 158.563 103.177 159.476 102.78C160.389 102.383 161.501 101.628 162.812 100.516H164.718C162.812 104.607 160.29 107.684 157.153 109.749C154.016 111.814 150.462 112.847 146.491 112.847C143.155 112.847 140.157 112.191 137.496 110.881C134.836 109.531 132.016 107.267 129.038 104.09C124.948 106.989 120.818 109.173 116.648 110.643C112.518 112.112 108.349 112.847 104.139 112.847C98.024 112.847 93.1594 111.139 89.5458 107.724C85.9321 104.309 84.1253 100.298 84.1253 95.6916C84.1253 92.0382 84.8996 88.782 86.4484 85.9228C87.9971 83.0637 90.9356 80.006 95.2641 76.7497C99.5925 73.4934 105.787 70.0585 113.849 66.4448ZM129.038 59.4161C132.334 57.0732 134.736 54.6707 136.245 52.2086C138.35 48.8332 139.402 45.2394 139.402 41.4272C139.402 38.5681 138.807 36.3641 137.615 34.8154C136.662 33.6638 135.451 33.088 133.982 33.088C132.195 33.088 130.785 33.8028 129.753 35.2324C128.244 37.3768 127.489 40.6926 127.489 45.1799C127.489 47.2051 127.608 49.409 127.847 51.7917C128.125 54.1346 128.522 56.6761 129.038 59.4161ZM114.742 70.9123C110.175 73.414 106.899 76.0151 104.914 78.7154C102.968 81.376 101.995 84.5727 101.995 88.3055C101.995 92.8722 103.405 96.7241 106.224 99.8612C109.083 102.959 112.26 104.507 115.755 104.507C117.264 104.507 118.932 104.17 120.758 103.495C122.585 102.82 124.57 101.827 126.715 100.516C124.292 96.8631 121.95 92.2567 119.686 86.6972C117.462 81.1377 115.814 75.8761 114.742 70.9123Z" fill="black"/>
<path d="M68.8125 63.6191L67.0547 71.1953H66.3691C66.2871 69.1328 65.7773 67.5977 64.8398 66.5898C63.9141 65.5703 62.7012 65.0605 61.2012 65.0605C59.584 65.0605 57.9727 65.752 56.3672 67.1348C54.7617 68.5176 53.4023 70.6328 52.2891 73.4805C51.3867 75.7891 50.9355 78.0684 50.9355 80.3184C50.9355 82.334 51.4277 83.875 52.4121 84.9414C53.4082 85.9961 54.7676 86.5234 56.4902 86.5234C57.8848 86.5234 59.1562 86.2188 60.3047 85.6094C61.4531 85 62.6133 84.0098 63.7852 82.6387H64.6289C63.1758 84.8184 61.7051 86.3477 60.2168 87.2266C58.7402 88.1055 56.9297 88.5449 54.7852 88.5449C51.9141 88.5449 49.5996 87.6777 47.8418 85.9434C46.0957 84.1973 45.2227 81.9238 45.2227 79.123C45.2227 76.498 45.9199 73.9961 47.3145 71.6172C48.709 69.2266 50.7129 67.2988 53.3262 65.834C55.9512 64.3574 58.5586 63.6191 61.1484 63.6191C62.1328 63.6191 63.3574 63.8301 64.8223 64.252C65.5723 64.4629 66.0938 64.5684 66.3867 64.5684C66.9727 64.5684 67.5645 64.252 68.1621 63.6191H68.8125ZM77.0039 88.5625C75.082 88.5625 73.5293 88.1699 72.3457 87.3848C71.1621 86.5996 70.2715 85.5273 69.6738 84.168C69.0879 82.8086 68.7949 81.4844 68.7949 80.1953C68.7949 77.5938 69.5391 74.9746 71.0273 72.3379C72.5156 69.6895 74.5195 67.5742 77.0391 65.9922C79.5703 64.3984 82.0664 63.6016 84.5273 63.6016C85.9688 63.6016 87.334 63.9648 88.623 64.6914C89.9238 65.418 90.9316 66.4316 91.6465 67.7324C92.373 69.0332 92.7363 70.3457 92.7363 71.6699C92.7363 74.6348 91.793 77.6113 89.9062 80.5996C88.0195 83.5762 85.8984 85.7324 83.543 87.0684C81.7617 88.0645 79.582 88.5625 77.0039 88.5625ZM83.9473 65.043C83.0215 65.043 82.2305 65.2129 81.5742 65.5527C80.9297 65.8809 80.2559 66.4375 79.5527 67.2227C78.8496 68.0078 78.1348 69.1328 77.4082 70.5977C76.6816 72.0508 75.9961 74.0312 75.3516 76.5391C74.7188 79.0469 74.4023 81.1387 74.4023 82.8145C74.4023 84.2441 74.7129 85.3281 75.334 86.0664C75.9551 86.793 76.752 87.1562 77.7246 87.1562C79.0137 87.1562 80.1094 86.7285 81.0117 85.873C82.8047 84.1738 84.2637 81.6836 85.3887 78.4023C86.5254 75.1094 87.0938 72.1797 87.0938 69.6133C87.0938 68.0078 86.7891 66.8477 86.1797 66.1328C85.582 65.4062 84.8379 65.043 83.9473 65.043ZM106.518 64.1641L108.275 80.5469L119.613 64.1641H127.963L127.752 64.8145C126.604 64.8145 125.73 65.0605 125.133 65.5527C124.535 66.0449 124.025 67.0176 123.604 68.4707L119.209 83.7285C118.928 84.6895 118.787 85.4043 118.787 85.873C118.787 86.3066 118.963 86.6582 119.314 86.9277C119.666 87.1855 120.357 87.3262 121.389 87.3496L121.23 88H109.33L109.541 87.3496C110.818 87.3496 111.762 87.1094 112.371 86.6289C112.98 86.1367 113.496 85.1699 113.918 83.7285L118.4 68.2773L104.76 88H104.039L101.895 67.8906L97.3418 83.7285C97.1543 84.373 97.0605 84.9121 97.0605 85.3457C97.0605 85.9316 97.2598 86.4062 97.6582 86.7695C98.0684 87.1211 98.7598 87.3145 99.7324 87.3496L99.5566 88H91.6816L91.8398 87.3496C92.7891 87.3145 93.5156 87.1152 94.0195 86.752C94.9102 86.0957 95.5547 85.0879 95.9531 83.7285L101.104 66.1152C100.611 65.5762 100.166 65.2246 99.7676 65.0605C99.3809 64.8965 98.7246 64.8145 97.7988 64.8145L98.0098 64.1641H106.518ZM135.135 77.0488L133.201 83.6934C132.932 84.6309 132.797 85.293 132.797 85.6797C132.797 86.2188 132.973 86.6289 133.324 86.9102C133.676 87.1797 134.473 87.3262 135.715 87.3496L135.486 88H123.85L124.043 87.3496C125.027 87.3379 125.725 87.2441 126.135 87.0684C126.545 86.8809 126.885 86.582 127.154 86.1719C127.354 85.9023 127.652 85.0762 128.051 83.6934L132.463 68.5586C132.768 67.5508 132.92 66.8301 132.92 66.3965C132.92 65.9629 132.727 65.5996 132.34 65.3066C131.953 65.002 131.25 64.8379 130.23 64.8145L130.424 64.1641H139.863C142.453 64.1641 144.316 64.4922 145.453 65.1484C147.211 66.1797 148.09 67.7266 148.09 69.7891C148.09 71.7812 147.211 73.5391 145.453 75.0625C143.707 76.5742 141.352 77.3301 138.387 77.3301C137.496 77.3301 136.412 77.2363 135.135 77.0488ZM135.486 75.6953C136.248 75.7891 136.881 75.8359 137.385 75.8359C139.002 75.8359 140.273 75.0977 141.199 73.6211C142.125 72.1445 142.588 70.6035 142.588 68.998C142.588 67.9082 142.289 67.0645 141.691 66.4668C141.094 65.8574 140.268 65.5527 139.213 65.5527C138.99 65.5527 138.715 65.5645 138.387 65.5879L135.486 75.6953ZM157.055 88.5625C155.133 88.5625 153.58 88.1699 152.396 87.3848C151.213 86.5996 150.322 85.5273 149.725 84.168C149.139 82.8086 148.846 81.4844 148.846 80.1953C148.846 77.5938 149.59 74.9746 151.078 72.3379C152.566 69.6895 154.57 67.5742 157.09 65.9922C159.621 64.3984 162.117 63.6016 164.578 63.6016C166.02 63.6016 167.385 63.9648 168.674 64.6914C169.975 65.418 170.982 66.4316 171.697 67.7324C172.424 69.0332 172.787 70.3457 172.787 71.6699C172.787 74.6348 171.844 77.6113 169.957 80.5996C168.07 83.5762 165.949 85.7324 163.594 87.0684C161.812 88.0645 159.633 88.5625 157.055 88.5625ZM163.998 65.043C163.072 65.043 162.281 65.2129 161.625 65.5527C160.98 65.8809 160.307 66.4375 159.604 67.2227C158.9 68.0078 158.186 69.1328 157.459 70.5977C156.732 72.0508 156.047 74.0312 155.402 76.5391C154.77 79.0469 154.453 81.1387 154.453 82.8145C154.453 84.2441 154.764 85.3281 155.385 86.0664C156.006 86.793 156.803 87.1562 157.775 87.1562C159.064 87.1562 160.16 86.7285 161.062 85.873C162.855 84.1738 164.314 81.6836 165.439 78.4023C166.576 75.1094 167.145 72.1797 167.145 69.6133C167.145 68.0078 166.84 66.8477 166.23 66.1328C165.633 65.4062 164.889 65.043 163.998 65.043ZM193.951 63.6191L191.965 71.7051H191.385C191.256 70.4395 191.027 69.4258 190.699 68.6641C190.207 67.5625 189.551 66.7129 188.73 66.1152C187.922 65.5176 187.043 65.2188 186.094 65.2188C185.18 65.2188 184.377 65.5703 183.686 66.2734C183.006 66.9648 182.666 67.75 182.666 68.6289C182.666 69.4961 182.9 70.3516 183.369 71.1953C183.85 72.0273 184.975 73.2871 186.744 74.9746C188.162 76.3223 189.111 77.4824 189.592 78.4551C190.084 79.4277 190.33 80.4824 190.33 81.6191C190.33 82.8965 189.99 84.0742 189.311 85.1523C188.631 86.2305 187.641 87.0684 186.34 87.666C185.051 88.252 183.586 88.5449 181.945 88.5449C180.938 88.5449 179.666 88.3926 178.131 88.0879C176.607 87.7949 175.594 87.6484 175.09 87.6484C174.691 87.6484 174.334 87.7129 174.018 87.8418C173.701 87.959 173.309 88.1934 172.84 88.5449H172.154L174.281 79.457H174.949C175.102 81.0508 175.424 82.4102 175.916 83.5352C176.408 84.6484 177.111 85.5215 178.025 86.1543C178.939 86.7754 179.982 87.0859 181.154 87.0859C182.314 87.0859 183.281 86.7051 184.055 85.9434C184.84 85.1699 185.232 84.2676 185.232 83.2363C185.232 82.3574 185.01 81.5137 184.564 80.7051C184.131 79.8965 183.129 78.7188 181.559 77.1719C180 75.625 178.922 74.2422 178.324 73.0234C177.891 72.1211 177.674 71.1602 177.674 70.1406C177.674 68.3711 178.371 66.8418 179.766 65.5527C181.16 64.2637 182.982 63.6191 185.232 63.6191C186.252 63.6191 187.594 63.8477 189.258 64.3047C190.23 64.5742 190.916 64.709 191.314 64.709C191.654 64.709 191.959 64.6387 192.229 64.498C192.498 64.3457 192.814 64.0527 193.178 63.6191H193.951ZM197.959 64.8145L198.152 64.1641H209.789L209.561 64.8145C208.506 64.8145 207.697 65.0488 207.135 65.5176C206.584 65.9863 206.098 66.9648 205.676 68.4531L201.316 83.7109C201 84.7891 200.842 85.5098 200.842 85.873C200.842 86.2949 201.006 86.623 201.334 86.8574C201.756 87.1621 202.553 87.3262 203.725 87.3496L203.549 88H191.719L191.912 87.3496C193.096 87.3496 193.963 87.127 194.514 86.6816C195.064 86.2246 195.562 85.2344 196.008 83.7109L200.402 68.4531C200.672 67.5156 200.807 66.8066 200.807 66.3262C200.807 65.8926 200.643 65.5527 200.314 65.3066C199.986 65.0605 199.201 64.8965 197.959 64.8145ZM212.777 64.1641H231.955L230.145 70.5801H229.512C229.535 70.2402 229.547 69.9414 229.547 69.6836C229.547 68.4648 229.189 67.5215 228.475 66.8535C227.76 66.1738 226.553 65.7871 224.854 65.6934L219.545 83.6406C219.252 84.6367 219.105 85.375 219.105 85.8555C219.105 86.3008 219.287 86.6582 219.65 86.9277C220.014 87.1855 220.752 87.3262 221.865 87.3496L221.707 88H209.877L210.088 87.3496C211.295 87.3496 212.174 87.127 212.725 86.6816C213.275 86.2246 213.779 85.2109 214.236 83.6406L219.545 65.6934C217.717 65.752 216.188 66.1504 214.957 66.8887C213.727 67.627 212.602 68.8574 211.582 70.5801H210.896L212.777 64.1641ZM233.994 64.8145L234.188 64.1641H245.824L245.596 64.8145C244.541 64.8145 243.732 65.0488 243.17 65.5176C242.619 65.9863 242.133 66.9648 241.711 68.4531L237.352 83.7109C237.035 84.7891 236.877 85.5098 236.877 85.873C236.877 86.2949 237.041 86.623 237.369 86.8574C237.791 87.1621 238.588 87.3262 239.76 87.3496L239.584 88H227.754L227.947 87.3496C229.131 87.3496 229.998 87.127 230.549 86.6816C231.1 86.2246 231.598 85.2344 232.043 83.7109L236.438 68.4531C236.707 67.5156 236.842 66.8066 236.842 66.3262C236.842 65.8926 236.678 65.5527 236.35 65.3066C236.021 65.0605 235.236 64.8965 233.994 64.8145ZM253.172 88.5625C251.25 88.5625 249.697 88.1699 248.514 87.3848C247.33 86.5996 246.439 85.5273 245.842 84.168C245.256 82.8086 244.963 81.4844 244.963 80.1953C244.963 77.5938 245.707 74.9746 247.195 72.3379C248.684 69.6895 250.688 67.5742 253.207 65.9922C255.738 64.3984 258.234 63.6016 260.695 63.6016C262.137 63.6016 263.502 63.9648 264.791 64.6914C266.092 65.418 267.1 66.4316 267.814 67.7324C268.541 69.0332 268.904 70.3457 268.904 71.6699C268.904 74.6348 267.961 77.6113 266.074 80.5996C264.188 83.5762 262.066 85.7324 259.711 87.0684C257.93 88.0645 255.75 88.5625 253.172 88.5625ZM260.115 65.043C259.189 65.043 258.398 65.2129 257.742 65.5527C257.098 65.8809 256.424 66.4375 255.721 67.2227C255.018 68.0078 254.303 69.1328 253.576 70.5977C252.85 72.0508 252.164 74.0312 251.52 76.5391C250.887 79.0469 250.57 81.1387 250.57 82.8145C250.57 84.2441 250.881 85.3281 251.502 86.0664C252.123 86.793 252.92 87.1562 253.893 87.1562C255.182 87.1562 256.277 86.7285 257.18 85.873C258.973 84.1738 260.432 81.6836 261.557 78.4023C262.693 75.1094 263.262 72.1797 263.262 69.6133C263.262 68.0078 262.957 66.8477 262.348 66.1328C261.75 65.4062 261.006 65.043 260.115 65.043ZM281.895 64.1641L289.348 80.0547L292.705 68.5234C292.881 67.8906 292.969 67.3281 292.969 66.8359C292.969 66.25 292.781 65.7812 292.406 65.4297C292.043 65.0781 291.41 64.873 290.508 64.8145L290.701 64.1641H298.26L298.084 64.8145C297.123 64.873 296.326 65.1426 295.693 65.623C295.072 66.1035 294.545 67.0703 294.111 68.5234L288.293 88.2637H287.625L278.062 67.9434L273.439 83.7812C273.287 84.332 273.211 84.8242 273.211 85.2578C273.211 85.8906 273.416 86.4004 273.826 86.7871C274.248 87.1621 274.916 87.3496 275.83 87.3496L275.672 88H267.902L268.061 87.3496C268.729 87.3496 269.203 87.291 269.484 87.1738C269.977 86.9863 270.457 86.6289 270.926 86.1016C271.395 85.5625 271.775 84.7891 272.068 83.7812L277.113 66.4668C276.492 65.7754 275.971 65.3301 275.549 65.1309C275.127 64.9316 274.494 64.8262 273.65 64.8145L273.844 64.1641H281.895ZM309.053 64.8145L309.246 64.1641H320.883L320.654 64.8145C319.6 64.8145 318.791 65.0488 318.229 65.5176C317.678 65.9863 317.191 66.9648 316.77 68.4531L312.41 83.7109C312.094 84.7891 311.936 85.5098 311.936 85.873C311.936 86.2949 312.1 86.623 312.428 86.8574C312.85 87.1621 313.646 87.3262 314.818 87.3496L314.643 88H302.812L303.006 87.3496C304.189 87.3496 305.057 87.127 305.607 86.6816C306.158 86.2246 306.656 85.2344 307.102 83.7109L311.496 68.4531C311.766 67.5156 311.9 66.8066 311.9 66.3262C311.9 65.8926 311.736 65.5527 311.408 65.3066C311.08 65.0605 310.295 64.8965 309.053 64.8145ZM323.08 64.8145L323.273 64.1641H334.91L334.682 64.8145C333.627 64.8145 332.818 65.0488 332.256 65.5176C331.705 65.9863 331.219 66.9648 330.797 68.4531L326.438 83.7109C326.121 84.7891 325.963 85.5098 325.963 85.873C325.963 86.2949 326.127 86.623 326.455 86.8574C326.877 87.1621 327.674 87.3262 328.846 87.3496L328.67 88H316.84L317.033 87.3496C318.217 87.3496 319.084 87.127 319.635 86.6816C320.186 86.2246 320.684 85.2344 321.129 83.7109L325.523 68.4531C325.793 67.5156 325.928 66.8066 325.928 66.3262C325.928 65.8926 325.764 65.5527 325.436 65.3066C325.107 65.0605 324.322 64.8965 323.08 64.8145Z" fill="white" fill-opacity="0.75"/>
</svg>
