<svg width="375" height="140" viewBox="0 0 375 140" fill="none" xmlns="http://www.w3.org/2000/svg">
<path d="M113.849 66.4448C113.571 64.3005 113.352 62.3745 113.193 60.667C113.035 58.9197 112.955 57.3908 112.955 56.0804C112.955 48.1383 115.417 41.5464 120.341 36.3046C125.265 31.0231 131.083 28.3823 137.794 28.3823C142.083 28.3823 145.518 29.5935 148.099 32.0158C150.72 34.4382 152.03 37.3371 152.03 40.7124C152.03 44.9615 150.759 48.6148 148.218 51.6725C144.446 56.279 138.41 60.3493 130.11 63.8835C132.771 72.4213 134.597 77.941 135.59 80.4428C136.583 82.9445 137.913 85.6647 139.581 88.6033C141.844 86.1015 143.473 83.6792 144.465 81.3363C145.458 78.9536 145.955 77.0078 145.955 75.4988C145.955 74.2281 145.577 73.1162 144.823 72.1631C144.068 71.2101 142.837 70.5152 141.13 70.0783L141.844 67.934H164.718L163.824 70.0783C161.68 70.5946 159.873 71.4682 158.404 72.6992C156.934 73.9303 154.214 77.2064 150.243 82.5276C147.424 86.3398 144.624 89.6953 141.844 92.5942C145.021 97.0021 147.92 100.04 150.541 101.708C152.209 102.82 154.115 103.376 156.259 103.376C157.49 103.376 158.563 103.177 159.476 102.78C160.389 102.383 161.501 101.628 162.812 100.516H164.718C162.812 104.607 160.29 107.684 157.153 109.749C154.016 111.814 150.462 112.847 146.491 112.847C143.155 112.847 140.157 112.191 137.496 110.881C134.836 109.531 132.016 107.267 129.038 104.09C124.948 106.989 120.818 109.173 116.648 110.643C112.518 112.112 108.349 112.847 104.139 112.847C98.024 112.847 93.1594 111.139 89.5458 107.724C85.9321 104.309 84.1253 100.298 84.1253 95.6916C84.1253 92.0382 84.8996 88.782 86.4484 85.9228C87.9971 83.0637 90.9356 80.006 95.2641 76.7497C99.5925 73.4934 105.787 70.0585 113.849 66.4448ZM129.038 59.4161C132.334 57.0732 134.736 54.6707 136.245 52.2086C138.35 48.8332 139.402 45.2394 139.402 41.4272C139.402 38.5681 138.807 36.3641 137.615 34.8154C136.662 33.6638 135.451 33.088 133.982 33.088C132.195 33.088 130.785 33.8028 129.753 35.2324C128.244 37.3768 127.489 40.6926 127.489 45.1799C127.489 47.2051 127.608 49.409 127.847 51.7917C128.125 54.1346 128.522 56.6761 129.038 59.4161ZM114.742 70.9123C110.175 73.414 106.899 76.0151 104.914 78.7154C102.968 81.376 101.995 84.5727 101.995 88.3055C101.995 92.8722 103.405 96.7241 106.224 99.8612C109.083 102.959 112.26 104.507 115.755 104.507C117.264 104.507 118.932 104.17 120.758 103.495C122.585 102.82 124.57 101.827 126.715 100.516C124.292 96.8631 121.95 92.2567 119.686 86.6972C117.462 81.1377 115.814 75.8761 114.742 70.9123Z" fill="black"/>
<path d="M35.1328 38.6191L33.375 46.1953H32.6895C32.6074 44.1328 32.0977 42.5977 31.1602 41.5898C30.2344 40.5703 29.0215 40.0605 27.5215 40.0605C25.9043 40.0605 24.293 40.752 22.6875 42.1348C21.082 43.5176 19.7227 45.6328 18.6094 48.4805C17.707 50.7891 17.2559 53.0684 17.2559 55.3184C17.2559 57.334 17.748 58.875 18.7324 59.9414C19.7285 60.9961 21.0879 61.5234 22.8105 61.5234C24.2051 61.5234 25.4766 61.2188 26.625 60.6094C27.7734 60 28.9336 59.0098 30.1055 57.6387H30.9492C29.4961 59.8184 28.0254 61.3477 26.5371 62.2266C25.0605 63.1055 23.25 63.5449 21.1055 63.5449C18.2344 63.5449 15.9199 62.6777 14.1621 60.9434C12.416 59.1973 11.543 56.9238 11.543 54.123C11.543 51.498 12.2402 48.9961 13.6348 46.6172C15.0293 44.2266 17.0332 42.2988 19.6465 40.834C22.2715 39.3574 24.8789 38.6191 27.4688 38.6191C28.4531 38.6191 29.6777 38.8301 31.1426 39.252C31.8926 39.4629 32.4141 39.5684 32.707 39.5684C33.293 39.5684 33.8848 39.252 34.4824 38.6191H35.1328ZM43.3242 63.5625C41.4023 63.5625 39.8496 63.1699 38.666 62.3848C37.4824 61.5996 36.5918 60.5273 35.9941 59.168C35.4082 57.8086 35.1152 56.4844 35.1152 55.1953C35.1152 52.5938 35.8594 49.9746 37.3477 47.3379C38.8359 44.6895 40.8398 42.5742 43.3594 40.9922C45.8906 39.3984 48.3867 38.6016 50.8477 38.6016C52.2891 38.6016 53.6543 38.9648 54.9434 39.6914C56.2441 40.418 57.252 41.4316 57.9668 42.7324C58.6934 44.0332 59.0566 45.3457 59.0566 46.6699C59.0566 49.6348 58.1133 52.6113 56.2266 55.5996C54.3398 58.5762 52.2188 60.7324 49.8633 62.0684C48.082 63.0645 45.9023 63.5625 43.3242 63.5625ZM50.2676 40.043C49.3418 40.043 48.5508 40.2129 47.8945 40.5527C47.25 40.8809 46.5762 41.4375 45.873 42.2227C45.1699 43.0078 44.4551 44.1328 43.7285 45.5977C43.002 47.0508 42.3164 49.0312 41.6719 51.5391C41.0391 54.0469 40.7227 56.1387 40.7227 57.8145C40.7227 59.2441 41.0332 60.3281 41.6543 61.0664C42.2754 61.793 43.0723 62.1562 44.0449 62.1562C45.334 62.1562 46.4297 61.7285 47.332 60.873C49.125 59.1738 50.584 56.6836 51.709 53.4023C52.8457 50.1094 53.4141 47.1797 53.4141 44.6133C53.4141 43.0078 53.1094 41.8477 52.5 41.1328C51.9023 40.4062 51.1582 40.043 50.2676 40.043ZM72.8379 39.1641L74.5957 55.5469L85.9336 39.1641H94.2832L94.0723 39.8145C92.9238 39.8145 92.0508 40.0605 91.4531 40.5527C90.8555 41.0449 90.3457 42.0176 89.9238 43.4707L85.5293 58.7285C85.248 59.6895 85.1074 60.4043 85.1074 60.873C85.1074 61.3066 85.2832 61.6582 85.6348 61.9277C85.9863 62.1855 86.6777 62.3262 87.709 62.3496L87.5508 63H75.6504L75.8613 62.3496C77.1387 62.3496 78.082 62.1094 78.6914 61.6289C79.3008 61.1367 79.8164 60.1699 80.2383 58.7285L84.7207 43.2773L71.0801 63H70.3594L68.2148 42.8906L63.6621 58.7285C63.4746 59.373 63.3809 59.9121 63.3809 60.3457C63.3809 60.9316 63.5801 61.4062 63.9785 61.7695C64.3887 62.1211 65.0801 62.3145 66.0527 62.3496L65.877 63H58.002L58.1602 62.3496C59.1094 62.3145 59.8359 62.1152 60.3398 61.752C61.2305 61.0957 61.875 60.0879 62.2734 58.7285L67.4238 41.1152C66.9316 40.5762 66.4863 40.2246 66.0879 40.0605C65.7012 39.8965 65.0449 39.8145 64.1191 39.8145L64.3301 39.1641H72.8379ZM101.455 52.0488L99.5215 58.6934C99.252 59.6309 99.1172 60.293 99.1172 60.6797C99.1172 61.2188 99.293 61.6289 99.6445 61.9102C99.9961 62.1797 100.793 62.3262 102.035 62.3496L101.807 63H90.1699L90.3633 62.3496C91.3477 62.3379 92.0449 62.2441 92.4551 62.0684C92.8652 61.8809 93.2051 61.582 93.4746 61.1719C93.6738 60.9023 93.9727 60.0762 94.3711 58.6934L98.7832 43.5586C99.0879 42.5508 99.2402 41.8301 99.2402 41.3965C99.2402 40.9629 99.0469 40.5996 98.6602 40.3066C98.2734 40.002 97.5703 39.8379 96.5508 39.8145L96.7441 39.1641H106.184C108.773 39.1641 110.637 39.4922 111.773 40.1484C113.531 41.1797 114.41 42.7266 114.41 44.7891C114.41 46.7812 113.531 48.5391 111.773 50.0625C110.027 51.5742 107.672 52.3301 104.707 52.3301C103.816 52.3301 102.732 52.2363 101.455 52.0488ZM101.807 50.6953C102.568 50.7891 103.201 50.8359 103.705 50.8359C105.322 50.8359 106.594 50.0977 107.52 48.6211C108.445 47.1445 108.908 45.6035 108.908 43.998C108.908 42.9082 108.609 42.0645 108.012 41.4668C107.414 40.8574 106.588 40.5527 105.533 40.5527C105.311 40.5527 105.035 40.5645 104.707 40.5879L101.807 50.6953ZM123.375 63.5625C121.453 63.5625 119.9 63.1699 118.717 62.3848C117.533 61.5996 116.643 60.5273 116.045 59.168C115.459 57.8086 115.166 56.4844 115.166 55.1953C115.166 52.5938 115.91 49.9746 117.398 47.3379C118.887 44.6895 120.891 42.5742 123.41 40.9922C125.941 39.3984 128.438 38.6016 130.898 38.6016C132.34 38.6016 133.705 38.9648 134.994 39.6914C136.295 40.418 137.303 41.4316 138.018 42.7324C138.744 44.0332 139.107 45.3457 139.107 46.6699C139.107 49.6348 138.164 52.6113 136.277 55.5996C134.391 58.5762 132.27 60.7324 129.914 62.0684C128.133 63.0645 125.953 63.5625 123.375 63.5625ZM130.318 40.043C129.393 40.043 128.602 40.2129 127.945 40.5527C127.301 40.8809 126.627 41.4375 125.924 42.2227C125.221 43.0078 124.506 44.1328 123.779 45.5977C123.053 47.0508 122.367 49.0312 121.723 51.5391C121.09 54.0469 120.773 56.1387 120.773 57.8145C120.773 59.2441 121.084 60.3281 121.705 61.0664C122.326 61.793 123.123 62.1562 124.096 62.1562C125.385 62.1562 126.48 61.7285 127.383 60.873C129.176 59.1738 130.635 56.6836 131.76 53.4023C132.896 50.1094 133.465 47.1797 133.465 44.6133C133.465 43.0078 133.16 41.8477 132.551 41.1328C131.953 40.4062 131.209 40.043 130.318 40.043ZM160.271 38.6191L158.285 46.7051H157.705C157.576 45.4395 157.348 44.4258 157.02 43.6641C156.527 42.5625 155.871 41.7129 155.051 41.1152C154.242 40.5176 153.363 40.2188 152.414 40.2188C151.5 40.2188 150.697 40.5703 150.006 41.2734C149.326 41.9648 148.986 42.75 148.986 43.6289C148.986 44.4961 149.221 45.3516 149.689 46.1953C150.17 47.0273 151.295 48.2871 153.064 49.9746C154.482 51.3223 155.432 52.4824 155.912 53.4551C156.404 54.4277 156.65 55.4824 156.65 56.6191C156.65 57.8965 156.311 59.0742 155.631 60.1523C154.951 61.2305 153.961 62.0684 152.66 62.666C151.371 63.252 149.906 63.5449 148.266 63.5449C147.258 63.5449 145.986 63.3926 144.451 63.0879C142.928 62.7949 141.914 62.6484 141.41 62.6484C141.012 62.6484 140.654 62.7129 140.338 62.8418C140.021 62.959 139.629 63.1934 139.16 63.5449H138.475L140.602 54.457H141.27C141.422 56.0508 141.744 57.4102 142.236 58.5352C142.729 59.6484 143.432 60.5215 144.346 61.1543C145.26 61.7754 146.303 62.0859 147.475 62.0859C148.635 62.0859 149.602 61.7051 150.375 60.9434C151.16 60.1699 151.553 59.2676 151.553 58.2363C151.553 57.3574 151.33 56.5137 150.885 55.7051C150.451 54.8965 149.449 53.7188 147.879 52.1719C146.32 50.625 145.242 49.2422 144.645 48.0234C144.211 47.1211 143.994 46.1602 143.994 45.1406C143.994 43.3711 144.691 41.8418 146.086 40.5527C147.48 39.2637 149.303 38.6191 151.553 38.6191C152.572 38.6191 153.914 38.8477 155.578 39.3047C156.551 39.5742 157.236 39.709 157.635 39.709C157.975 39.709 158.279 39.6387 158.549 39.498C158.818 39.3457 159.135 39.0527 159.498 38.6191H160.271ZM164.279 39.8145L164.473 39.1641H176.109L175.881 39.8145C174.826 39.8145 174.018 40.0488 173.455 40.5176C172.904 40.9863 172.418 41.9648 171.996 43.4531L167.637 58.7109C167.32 59.7891 167.162 60.5098 167.162 60.873C167.162 61.2949 167.326 61.623 167.654 61.8574C168.076 62.1621 168.873 62.3262 170.045 62.3496L169.869 63H158.039L158.232 62.3496C159.416 62.3496 160.283 62.127 160.834 61.6816C161.385 61.2246 161.883 60.2344 162.328 58.7109L166.723 43.4531C166.992 42.5156 167.127 41.8066 167.127 41.3262C167.127 40.8926 166.963 40.5527 166.635 40.3066C166.307 40.0605 165.521 39.8965 164.279 39.8145ZM179.098 39.1641H198.275L196.465 45.5801H195.832C195.855 45.2402 195.867 44.9414 195.867 44.6836C195.867 43.4648 195.51 42.5215 194.795 41.8535C194.08 41.1738 192.873 40.7871 191.174 40.6934L185.865 58.6406C185.572 59.6367 185.426 60.375 185.426 60.8555C185.426 61.3008 185.607 61.6582 185.971 61.9277C186.334 62.1855 187.072 62.3262 188.186 62.3496L188.027 63H176.197L176.408 62.3496C177.615 62.3496 178.494 62.127 179.045 61.6816C179.596 61.2246 180.1 60.2109 180.557 58.6406L185.865 40.6934C184.037 40.752 182.508 41.1504 181.277 41.8887C180.047 42.627 178.922 43.8574 177.902 45.5801H177.217L179.098 39.1641ZM200.314 39.8145L200.508 39.1641H212.145L211.916 39.8145C210.861 39.8145 210.053 40.0488 209.49 40.5176C208.939 40.9863 208.453 41.9648 208.031 43.4531L203.672 58.7109C203.355 59.7891 203.197 60.5098 203.197 60.873C203.197 61.2949 203.361 61.623 203.689 61.8574C204.111 62.1621 204.908 62.3262 206.08 62.3496L205.904 63H194.074L194.268 62.3496C195.451 62.3496 196.318 62.127 196.869 61.6816C197.42 61.2246 197.918 60.2344 198.363 58.7109L202.758 43.4531C203.027 42.5156 203.162 41.8066 203.162 41.3262C203.162 40.8926 202.998 40.5527 202.67 40.3066C202.342 40.0605 201.557 39.8965 200.314 39.8145ZM219.492 63.5625C217.57 63.5625 216.018 63.1699 214.834 62.3848C213.65 61.5996 212.76 60.5273 212.162 59.168C211.576 57.8086 211.283 56.4844 211.283 55.1953C211.283 52.5938 212.027 49.9746 213.516 47.3379C215.004 44.6895 217.008 42.5742 219.527 40.9922C222.059 39.3984 224.555 38.6016 227.016 38.6016C228.457 38.6016 229.822 38.9648 231.111 39.6914C232.412 40.418 233.42 41.4316 234.135 42.7324C234.861 44.0332 235.225 45.3457 235.225 46.6699C235.225 49.6348 234.281 52.6113 232.395 55.5996C230.508 58.5762 228.387 60.7324 226.031 62.0684C224.25 63.0645 222.07 63.5625 219.492 63.5625ZM226.436 40.043C225.51 40.043 224.719 40.2129 224.062 40.5527C223.418 40.8809 222.744 41.4375 222.041 42.2227C221.338 43.0078 220.623 44.1328 219.896 45.5977C219.17 47.0508 218.484 49.0312 217.84 51.5391C217.207 54.0469 216.891 56.1387 216.891 57.8145C216.891 59.2441 217.201 60.3281 217.822 61.0664C218.443 61.793 219.24 62.1562 220.213 62.1562C221.502 62.1562 222.598 61.7285 223.5 60.873C225.293 59.1738 226.752 56.6836 227.877 53.4023C229.014 50.1094 229.582 47.1797 229.582 44.6133C229.582 43.0078 229.277 41.8477 228.668 41.1328C228.07 40.4062 227.326 40.043 226.436 40.043ZM248.215 39.1641L255.668 55.0547L259.025 43.5234C259.201 42.8906 259.289 42.3281 259.289 41.8359C259.289 41.25 259.102 40.7812 258.727 40.4297C258.363 40.0781 257.73 39.873 256.828 39.8145L257.021 39.1641H264.58L264.404 39.8145C263.443 39.873 262.646 40.1426 262.014 40.623C261.393 41.1035 260.865 42.0703 260.432 43.5234L254.613 63.2637H253.945L244.383 42.9434L239.76 58.7812C239.607 59.332 239.531 59.8242 239.531 60.2578C239.531 60.8906 239.736 61.4004 240.146 61.7871C240.568 62.1621 241.236 62.3496 242.15 62.3496L241.992 63H234.223L234.381 62.3496C235.049 62.3496 235.523 62.291 235.805 62.1738C236.297 61.9863 236.777 61.6289 237.246 61.1016C237.715 60.5625 238.096 59.7891 238.389 58.7812L243.434 41.4668C242.812 40.7754 242.291 40.3301 241.869 40.1309C241.447 39.9316 240.814 39.8262 239.971 39.8145L240.164 39.1641H248.215ZM274.424 63.5449L276.041 43.1543C276.088 42.5566 276.111 42.0645 276.111 41.6777C276.111 41.0566 275.965 40.5996 275.672 40.3066C275.391 40.0137 274.887 39.8496 274.16 39.8145L274.424 39.1641H284.057L283.863 39.8145H283.389C282.756 39.8145 282.24 40.0254 281.842 40.4473C281.455 40.8574 281.221 41.6309 281.139 42.7676L280.207 54.8613L287.396 45.0352L287.572 42.7676C287.619 42.2988 287.643 41.9238 287.643 41.6426C287.643 41.0684 287.484 40.6289 287.168 40.3242C286.863 40.0195 286.354 39.8496 285.639 39.8145L285.814 39.1641H295.518L295.324 39.8145C294.469 39.8145 293.836 40.0254 293.426 40.4473C293.016 40.8574 292.764 41.6309 292.67 42.7676L291.756 54.8613L298.682 45.334C299.865 43.7051 300.598 42.5977 300.879 42.0117C301.078 41.6133 301.178 41.2734 301.178 40.9922C301.178 40.7227 301.043 40.4824 300.773 40.2715C300.516 40.0488 300.012 39.8965 299.262 39.8145L299.438 39.1641H305.801L305.643 39.8145C305.068 39.9199 304.594 40.1191 304.219 40.4121C303.691 40.8223 303.006 41.6074 302.162 42.7676L287.027 63.5449H285.99L287.203 47.4609L275.479 63.5449H274.424ZM306.732 39.8145L306.926 39.1641H318.562L318.334 39.8145C317.279 39.8145 316.471 40.0488 315.908 40.5176C315.357 40.9863 314.871 41.9648 314.449 43.4531L310.09 58.7109C309.773 59.7891 309.615 60.5098 309.615 60.873C309.615 61.2949 309.779 61.623 310.107 61.8574C310.529 62.1621 311.326 62.3262 312.498 62.3496L312.322 63H300.492L300.686 62.3496C301.869 62.3496 302.736 62.127 303.287 61.6816C303.838 61.2246 304.336 60.2344 304.781 58.7109L309.176 43.4531C309.445 42.5156 309.58 41.8066 309.58 41.3262C309.58 40.8926 309.416 40.5527 309.088 40.3066C308.76 40.0605 307.975 39.8965 306.732 39.8145ZM321.551 39.1641H340.729L338.918 45.5801H338.285C338.309 45.2402 338.32 44.9414 338.32 44.6836C338.32 43.4648 337.963 42.5215 337.248 41.8535C336.533 41.1738 335.326 40.7871 333.627 40.6934L328.318 58.6406C328.025 59.6367 327.879 60.375 327.879 60.8555C327.879 61.3008 328.061 61.6582 328.424 61.9277C328.787 62.1855 329.525 62.3262 330.639 62.3496L330.48 63H318.65L318.861 62.3496C320.068 62.3496 320.947 62.127 321.498 61.6816C322.049 61.2246 322.553 60.2109 323.01 58.6406L328.318 40.6934C326.49 40.752 324.961 41.1504 323.73 41.8887C322.5 42.627 321.375 43.8574 320.355 45.5801H319.67L321.551 39.1641ZM348.498 50.1328H357.217L359.15 43.4707C359.408 42.5566 359.537 41.8594 359.537 41.3789C359.537 40.9102 359.379 40.5527 359.062 40.3066C358.746 40.0605 357.984 39.8965 356.777 39.8145L356.971 39.1641H368.818L368.625 39.8145C367.465 39.8145 366.586 40.0605 365.988 40.5527C365.391 41.0449 364.881 42.0176 364.459 43.4707L360.029 58.7285C359.736 59.7246 359.59 60.4395 359.59 60.873C359.59 61.3066 359.748 61.6348 360.064 61.8574C360.475 62.1621 361.219 62.3262 362.297 62.3496L362.121 63H350.502L350.766 62.3496C351.891 62.3496 352.717 62.1328 353.244 61.6992C353.783 61.2539 354.275 60.2637 354.721 58.7285L356.777 51.627H348.094L346.055 58.7285C345.762 59.7012 345.615 60.4219 345.615 60.8906C345.615 61.3125 345.791 61.6582 346.143 61.9277C346.506 62.1855 347.215 62.3262 348.27 62.3496L348.094 63H336.633L336.826 62.3496C337.951 62.3496 338.771 62.1328 339.287 61.6992C339.814 61.2539 340.301 60.2637 340.746 58.7285L345.176 43.4707C345.434 42.5918 345.562 41.9004 345.562 41.3965C345.562 40.916 345.404 40.5527 345.088 40.3066C344.783 40.0605 344.045 39.8965 342.873 39.8145L343.066 39.1641H354.721L354.457 39.8145C353.379 39.8145 352.564 40.0488 352.014 40.5176C351.463 40.9746 350.959 41.959 350.502 43.4707L348.498 50.1328ZM62.0098 96.3184H54.627L53.1504 98.1465L51.4629 100.168C51.1348 100.602 50.8945 100.994 50.7422 101.346C50.625 101.615 50.5664 101.885 50.5664 102.154C50.5664 102.436 50.7129 102.699 51.0059 102.945C51.3105 103.18 51.8086 103.314 52.5 103.35V104H45.3809L45.5566 103.35C46.1895 103.244 46.752 103.021 47.2441 102.682C47.9004 102.213 48.8438 101.246 50.0742 99.7812L66.9668 79.6191H67.7578L66.9668 99.1309C66.9316 100.15 66.9141 100.766 66.9141 100.977C66.9141 101.773 67.0723 102.354 67.3887 102.717C67.7168 103.08 68.2559 103.291 69.0059 103.35L68.8301 104H58.5117L58.7051 103.35C59.7246 103.256 60.3105 103.174 60.4629 103.104C60.791 102.939 61.0898 102.6 61.3594 102.084C61.6289 101.557 61.793 100.648 61.8516 99.3594L62.0098 96.3184ZM62.0098 94.877L62.4668 87.1074L55.8398 94.877H62.0098ZM84 80.1641H93.4219C95.5195 80.1641 97.0195 80.2754 97.9219 80.498C99.1055 80.7793 100.02 81.3301 100.664 82.1504C101.32 82.959 101.648 83.8789 101.648 84.9102C101.648 85.7539 101.391 86.6152 100.875 87.4941C100.359 88.373 99.5859 89.0996 98.5547 89.6738C97.5352 90.2363 95.9648 90.7578 93.8438 91.2383C96.0469 91.8594 97.5762 92.6562 98.4316 93.6289C99.2871 94.6016 99.7148 95.7324 99.7148 97.0215C99.7148 98.2285 99.293 99.4238 98.4492 100.607C97.6055 101.779 96.4863 102.641 95.0918 103.191C93.6973 103.73 91.1426 104 87.4277 104H77.5137L77.7422 103.35C78.7031 103.35 79.3887 103.262 79.7988 103.086C80.2207 102.91 80.5547 102.641 80.8008 102.277C81.0586 101.902 81.3574 101.129 81.6973 99.957L85.9512 85.2969C86.3848 83.8086 86.6016 82.8125 86.6016 82.3086C86.6016 81.8984 86.4258 81.5586 86.0742 81.2891C85.7344 81.0195 84.9844 80.8613 83.8242 80.8145L84 80.1641ZM89.3965 90.6934C90.9902 90.6699 92.2441 90.418 93.1582 89.9375C94.084 89.457 94.8223 88.6719 95.373 87.582C95.9355 86.4805 96.2168 85.4434 96.2168 84.4707C96.2168 83.5566 95.9297 82.8125 95.3555 82.2383C94.7812 81.6641 94.0137 81.3887 93.0527 81.4121L92.0859 81.4473L89.3965 90.6934ZM88.9746 92.0117L85.9336 102.611C86.5195 102.635 86.959 102.646 87.252 102.646C89.8652 102.646 91.6816 101.92 92.7012 100.467C93.7207 99.002 94.2305 97.4375 94.2305 95.7734C94.2305 94.9766 94.0312 94.2734 93.6328 93.6641C93.2461 93.043 92.7422 92.6152 92.1211 92.3809C91.5 92.1348 90.4512 92.0117 88.9746 92.0117ZM120.316 104H101.279L101.473 103.35C102.609 103.35 103.436 103.133 103.951 102.699C104.479 102.254 104.965 101.264 105.41 99.7285L109.84 84.418C110.086 83.5742 110.209 82.9121 110.209 82.4316C110.209 81.9629 110.033 81.5879 109.682 81.3066C109.33 81.0254 108.639 80.8613 107.607 80.8145L107.801 80.1641H119.244L119.051 80.8145C117.949 80.8379 117.123 81.084 116.572 81.5527C116.033 82.0215 115.553 82.9766 115.131 84.418L111.088 98.4277C110.572 100.209 110.314 101.293 110.314 101.68C110.314 101.914 110.443 102.137 110.701 102.348C110.971 102.547 111.398 102.646 111.984 102.646C113.93 102.646 115.805 102.201 117.609 101.311C119.426 100.42 120.961 99.0898 122.215 97.3203H122.953L120.316 104ZM145.488 80.1641H153.557L153.398 80.8145C152.473 80.8848 151.758 81.1074 151.254 81.4824C150.445 82.0801 149.842 83.0645 149.443 84.4355L146.279 95.3691C145.295 98.7793 143.959 101.164 142.271 102.523C140.584 103.871 138.439 104.545 135.838 104.545C134.361 104.545 133.061 104.334 131.936 103.912C130.811 103.49 129.984 103.016 129.457 102.488C128.93 101.961 128.525 101.311 128.244 100.537C127.963 99.752 127.822 99.0957 127.822 98.5684C127.822 97.7363 128.057 96.5059 128.525 94.877L131.549 84.4355C131.818 83.498 131.953 82.8008 131.953 82.3438C131.953 81.8984 131.783 81.5527 131.443 81.3066C131.115 81.0605 130.342 80.8965 129.123 80.8145L129.316 80.1641H141.199L140.988 80.8145C139.84 80.8145 138.961 81.0605 138.352 81.5527C137.754 82.0449 137.25 83.0059 136.84 84.4355L133.799 94.877C133.295 96.623 133.043 98.0234 133.043 99.0781C133.043 100.039 133.43 100.877 134.203 101.592C134.977 102.307 136.055 102.664 137.438 102.664C138.703 102.664 139.775 102.436 140.654 101.979C141.545 101.51 142.283 100.859 142.869 100.027C143.643 98.9141 144.334 97.3203 144.943 95.2461L148.055 84.4355C148.23 83.8145 148.318 83.2988 148.318 82.8887C148.318 82.1621 148.061 81.6055 147.545 81.2188C147.182 80.9492 146.432 80.8145 145.295 80.8145L145.488 80.1641ZM164.068 81.4824L161.414 90.7285H162.223C164.355 90.7285 165.908 90.4473 166.881 89.8848C167.865 89.3223 168.697 88.3262 169.377 86.8965H170.027L167.355 96.1777H166.74C166.846 95.5566 166.898 95.0527 166.898 94.666C166.898 94.0215 166.705 93.4941 166.318 93.084C165.943 92.6738 165.451 92.3809 164.842 92.2051C164.443 92.0879 163.617 92.0293 162.363 92.0293H160.992L158.707 100.027C158.508 100.73 158.408 101.252 158.408 101.592C158.408 101.861 158.537 102.078 158.795 102.242C159.17 102.477 159.879 102.594 160.922 102.594C162.926 102.594 164.812 102.172 166.582 101.328C168.352 100.473 169.939 99.1836 171.346 97.4609H172.066L169.588 104H149.197L149.408 103.35C150.604 103.35 151.477 103.127 152.027 102.682C152.578 102.225 153.076 101.229 153.521 99.6934L158.004 84.3477C158.25 83.4922 158.373 82.8184 158.373 82.3262C158.373 81.8809 158.215 81.541 157.898 81.3066C157.582 81.0605 156.861 80.8965 155.736 80.8145L155.93 80.1641H174.932L173.402 86.123H172.77C172.723 84.9512 172.541 84.125 172.225 83.6445C171.732 82.8945 171.076 82.3496 170.256 82.0098C169.447 81.6582 168.129 81.4824 166.301 81.4824H164.068ZM204.48 79.6191L202.494 87.7051H201.914C201.785 86.4395 201.557 85.4258 201.229 84.6641C200.736 83.5625 200.08 82.7129 199.26 82.1152C198.451 81.5176 197.572 81.2188 196.623 81.2188C195.709 81.2188 194.906 81.5703 194.215 82.2734C193.535 82.9648 193.195 83.75 193.195 84.6289C193.195 85.4961 193.43 86.3516 193.898 87.1953C194.379 88.0273 195.504 89.2871 197.273 90.9746C198.691 92.3223 199.641 93.4824 200.121 94.4551C200.613 95.4277 200.859 96.4824 200.859 97.6191C200.859 98.8965 200.52 100.074 199.84 101.152C199.16 102.23 198.17 103.068 196.869 103.666C195.58 104.252 194.115 104.545 192.475 104.545C191.467 104.545 190.195 104.393 188.66 104.088C187.137 103.795 186.123 103.648 185.619 103.648C185.221 103.648 184.863 103.713 184.547 103.842C184.23 103.959 183.838 104.193 183.369 104.545H182.684L184.811 95.457H185.479C185.631 97.0508 185.953 98.4102 186.445 99.5352C186.938 100.648 187.641 101.521 188.555 102.154C189.469 102.775 190.512 103.086 191.684 103.086C192.844 103.086 193.811 102.705 194.584 101.943C195.369 101.17 195.762 100.268 195.762 99.2363C195.762 98.3574 195.539 97.5137 195.094 96.7051C194.66 95.8965 193.658 94.7188 192.088 93.1719C190.529 91.625 189.451 90.2422 188.854 89.0234C188.42 88.1211 188.203 87.1602 188.203 86.1406C188.203 84.3711 188.9 82.8418 190.295 81.5527C191.689 80.2637 193.512 79.6191 195.762 79.6191C196.781 79.6191 198.123 79.8477 199.787 80.3047C200.76 80.5742 201.445 80.709 201.844 80.709C202.184 80.709 202.488 80.6387 202.758 80.498C203.027 80.3457 203.344 80.0527 203.707 79.6191H204.48ZM214.271 104.545L211.178 107.357C212.338 107.123 213.287 107.006 214.025 107.006C215.045 107.006 216.48 107.252 218.332 107.744C220.184 108.236 221.643 108.482 222.709 108.482C223.881 108.482 224.965 108.271 225.961 107.85C226.582 107.592 227.221 107.152 227.877 106.531L228.404 107.023C227.221 108.465 225.826 109.566 224.221 110.328C222.615 111.102 220.594 111.488 218.156 111.488C216.785 111.488 215.186 111.289 213.357 110.891C211.529 110.504 210.076 110.311 208.998 110.311C208.143 110.311 207.229 110.439 206.256 110.697L205.922 110.258L212.408 104.545C210.885 104.287 209.719 103.877 208.91 103.314C207.809 102.564 206.953 101.539 206.344 100.238C205.734 98.9258 205.43 97.5781 205.43 96.1953C205.43 93.5938 206.174 90.9746 207.662 88.3379C209.162 85.6895 211.166 83.5742 213.674 81.9922C216.193 80.4102 218.689 79.6191 221.162 79.6191C222.592 79.6191 223.957 79.9766 225.258 80.6914C226.559 81.4062 227.566 82.4199 228.281 83.7324C228.996 85.0332 229.354 86.3867 229.354 87.793C229.354 89.8906 228.844 92.0469 227.824 94.2617C226.805 96.4648 225.422 98.3867 223.676 100.027C221.941 101.668 220.189 102.857 218.42 103.596C217.225 104.1 215.842 104.416 214.271 104.545ZM220.582 81.043C219.656 81.043 218.865 81.2129 218.209 81.5527C217.564 81.8809 216.891 82.4375 216.188 83.2227C215.484 84.0078 214.77 85.1328 214.043 86.5977C213.316 88.0508 212.631 90.0312 211.986 92.5391C211.354 95.0469 211.037 97.1387 211.037 98.8145C211.037 100.244 211.348 101.328 211.969 102.066C212.59 102.793 213.387 103.156 214.359 103.156C215.648 103.156 216.744 102.729 217.646 101.873C219.439 100.174 220.898 97.6836 222.023 94.4023C223.16 91.1094 223.729 88.1797 223.729 85.6133C223.729 84.0078 223.424 82.8477 222.814 82.1328C222.217 81.4062 221.473 81.043 220.582 81.043ZM250.57 80.1641H258.639L258.48 80.8145C257.555 80.8848 256.84 81.1074 256.336 81.4824C255.527 82.0801 254.924 83.0645 254.525 84.4355L251.361 95.3691C250.377 98.7793 249.041 101.164 247.354 102.523C245.666 103.871 243.521 104.545 240.92 104.545C239.443 104.545 238.143 104.334 237.018 103.912C235.893 103.49 235.066 103.016 234.539 102.488C234.012 101.961 233.607 101.311 233.326 100.537C233.045 99.752 232.904 99.0957 232.904 98.5684C232.904 97.7363 233.139 96.5059 233.607 94.877L236.631 84.4355C236.9 83.498 237.035 82.8008 237.035 82.3438C237.035 81.8984 236.865 81.5527 236.525 81.3066C236.197 81.0605 235.424 80.8965 234.205 80.8145L234.398 80.1641H246.281L246.07 80.8145C244.922 80.8145 244.043 81.0605 243.434 81.5527C242.836 82.0449 242.332 83.0059 241.922 84.4355L238.881 94.877C238.377 96.623 238.125 98.0234 238.125 99.0781C238.125 100.039 238.512 100.877 239.285 101.592C240.059 102.307 241.137 102.664 242.52 102.664C243.785 102.664 244.857 102.436 245.736 101.979C246.627 101.51 247.365 100.859 247.951 100.027C248.725 98.9141 249.416 97.3203 250.025 95.2461L253.137 84.4355C253.312 83.8145 253.4 83.2988 253.4 82.8887C253.4 82.1621 253.143 81.6055 252.627 81.2188C252.264 80.9492 251.514 80.8145 250.377 80.8145L250.57 80.1641ZM270.135 96.3184H262.752L261.275 98.1465L259.588 100.168C259.26 100.602 259.02 100.994 258.867 101.346C258.75 101.615 258.691 101.885 258.691 102.154C258.691 102.436 258.838 102.699 259.131 102.945C259.436 103.18 259.934 103.314 260.625 103.35V104H253.506L253.682 103.35C254.314 103.244 254.877 103.021 255.369 102.682C256.025 102.213 256.969 101.246 258.199 99.7812L275.092 79.6191H275.883L275.092 99.1309C275.057 100.15 275.039 100.766 275.039 100.977C275.039 101.773 275.197 102.354 275.514 102.717C275.842 103.08 276.381 103.291 277.131 103.35L276.955 104H266.637L266.83 103.35C267.85 103.256 268.436 103.174 268.588 103.104C268.916 102.939 269.215 102.6 269.484 102.084C269.754 101.557 269.918 100.648 269.977 99.3594L270.135 96.3184ZM270.135 94.877L270.592 87.1074L263.965 94.877H270.135ZM289.893 92.3633L287.783 99.5879C287.479 100.607 287.326 101.357 287.326 101.838C287.326 102.283 287.508 102.641 287.871 102.91C288.234 103.18 288.99 103.326 290.139 103.35L289.893 104H278.414L278.625 103.35C279.773 103.35 280.611 103.127 281.139 102.682C281.678 102.236 282.17 101.24 282.615 99.6934L287.045 84.4004C287.291 83.5449 287.414 82.8711 287.414 82.3789C287.414 81.9102 287.262 81.5527 286.957 81.3066C286.652 81.0605 285.943 80.8965 284.83 80.8145L285.006 80.1641H294.885C297.709 80.1641 299.695 80.6562 300.844 81.6406C301.992 82.625 302.566 83.8906 302.566 85.4375C302.566 87.0664 301.898 88.5371 300.562 89.8496C299.719 90.6699 298.225 91.3789 296.08 91.9766L298.225 99.2012C298.799 101.135 299.297 102.301 299.719 102.699C300.152 103.098 300.867 103.314 301.863 103.35V104H294.445L291.07 92.3633L290.49 92.3984C290.361 92.3984 290.162 92.3867 289.893 92.3633ZM290.139 91.3086C290.549 91.332 290.895 91.3438 291.176 91.3438C292.887 91.3438 294.293 90.7578 295.395 89.5859C296.496 88.4141 297.047 86.8789 297.047 84.9805C297.047 83.8555 296.754 83 296.168 82.4141C295.582 81.8281 294.809 81.5352 293.848 81.5352C293.613 81.5352 293.338 81.541 293.021 81.5527L290.139 91.3086ZM317.174 81.4824L314.52 90.7285H315.328C317.461 90.7285 319.014 90.4473 319.986 89.8848C320.971 89.3223 321.803 88.3262 322.482 86.8965H323.133L320.461 96.1777H319.846C319.951 95.5566 320.004 95.0527 320.004 94.666C320.004 94.0215 319.811 93.4941 319.424 93.084C319.049 92.6738 318.557 92.3809 317.947 92.2051C317.549 92.0879 316.723 92.0293 315.469 92.0293H314.098L311.812 100.027C311.613 100.73 311.514 101.252 311.514 101.592C311.514 101.861 311.643 102.078 311.9 102.242C312.275 102.477 312.984 102.594 314.027 102.594C316.031 102.594 317.918 102.172 319.688 101.328C321.457 100.473 323.045 99.1836 324.451 97.4609H325.172L322.693 104H302.303L302.514 103.35C303.709 103.35 304.582 103.127 305.133 102.682C305.684 102.225 306.182 101.229 306.627 99.6934L311.109 84.3477C311.355 83.4922 311.479 82.8184 311.479 82.3262C311.479 81.8809 311.32 81.541 311.004 81.3066C310.688 81.0605 309.967 80.8965 308.842 80.8145L309.035 80.1641H328.037L326.508 86.123H325.875C325.828 84.9512 325.646 84.125 325.33 83.6445C324.838 82.8945 324.182 82.3496 323.361 82.0098C322.553 81.6582 321.234 81.4824 319.406 81.4824H317.174Z" fill="white" fill-opacity="0.75"/>
</svg>
