<svg width="303" height="140" viewBox="0 0 303 140" fill="none" xmlns="http://www.w3.org/2000/svg">
<path d="M33.4401 66.4448C33.1622 64.3005 32.9438 62.3745 32.7849 60.667C32.6261 58.9197 32.5467 57.3908 32.5467 56.0804C32.5467 48.1383 35.0087 41.5464 39.9328 36.3046C44.8569 31.0231 50.6745 28.3823 57.3856 28.3823C61.6743 28.3823 65.1093 29.5935 67.6904 32.0158C70.3113 34.4382 71.6218 37.3371 71.6218 40.7124C71.6218 44.9615 70.351 48.6148 67.8096 51.6725C64.0371 56.279 58.0011 60.3493 49.7016 63.8835C52.3622 72.4213 54.1889 77.941 55.1816 80.4428C56.1744 82.9445 57.5047 85.6647 59.1725 88.6033C61.436 86.1015 63.0642 83.6792 64.0569 81.3363C65.0497 78.9536 65.5461 77.0078 65.5461 75.4988C65.5461 74.2281 65.1688 73.1162 64.4143 72.1631C63.6598 71.2101 62.4288 70.5152 60.7212 70.0783L61.436 67.934H84.3093L83.4158 70.0783C81.2714 70.5946 79.4646 71.4682 77.9953 72.6992C76.526 73.9303 73.8058 77.2064 69.8348 82.5276C67.0154 86.3398 64.2158 89.6953 61.436 92.5942C64.6129 97.0021 67.5117 100.04 70.1326 101.708C71.8005 102.82 73.7066 103.376 75.8509 103.376C77.082 103.376 78.1541 103.177 79.0675 102.78C79.9808 102.383 81.0927 101.628 82.4032 100.516H84.3093C82.4032 104.607 79.8816 107.684 76.7444 109.749C73.6073 111.814 70.0532 112.847 66.0822 112.847C62.7465 112.847 59.7483 112.191 57.0877 110.881C54.4271 109.531 51.6077 107.267 48.6294 104.09C44.5392 106.989 40.4093 109.173 36.2397 110.643C32.1098 112.112 27.9402 112.847 23.7309 112.847C17.6155 112.847 12.751 111.139 9.13732 107.724C5.52367 104.309 3.71684 100.298 3.71684 95.6916C3.71684 92.0382 4.4912 88.782 6.03991 85.9228C7.58861 83.0637 10.5272 80.006 14.8556 76.7497C19.1841 73.4934 25.3789 70.0585 33.4401 66.4448ZM48.6294 59.4161C51.9254 57.0732 54.3279 54.6707 55.8369 52.2086C57.9415 48.8332 58.9938 45.2394 58.9938 41.4272C58.9938 38.5681 58.3982 36.3641 57.2069 34.8154C56.2538 33.6638 55.0426 33.088 53.5734 33.088C51.7864 33.088 50.3767 33.8028 49.3442 35.2324C47.8352 37.3768 47.0807 40.6926 47.0807 45.1799C47.0807 47.2051 47.1998 49.409 47.4381 51.7917C47.7161 54.1346 48.1132 56.6761 48.6294 59.4161ZM34.3336 70.9123C29.7669 73.414 26.4908 76.0151 24.5053 78.7154C22.5595 81.376 21.5866 84.5727 21.5866 88.3055C21.5866 92.8722 22.9963 96.7241 25.8157 99.8612C28.6749 102.959 31.8517 104.507 35.3462 104.507C36.8552 104.507 38.5231 104.17 40.3498 103.495C42.1764 102.82 44.162 101.827 46.3063 100.516C43.884 96.8631 41.5411 92.2567 39.2776 86.6972C37.0538 81.1377 35.4058 75.8761 34.3336 70.9123Z" fill="black"/>
<path d="M46.125 27.6562L43 41.125H41.7812C41.6354 37.4583 40.7292 34.7292 39.0625 32.9375C37.4167 31.125 35.2604 30.2188 32.5938 30.2188C29.7188 30.2188 26.8542 31.4479 24 33.9062C21.1458 36.3646 18.7292 40.125 16.75 45.1875C15.1458 49.2917 14.3438 53.3438 14.3438 57.3438C14.3438 60.9271 15.2188 63.6667 16.9688 65.5625C18.7396 67.4375 21.1562 68.375 24.2188 68.375C26.6979 68.375 28.9583 67.8333 31 66.75C33.0417 65.6667 35.1042 63.9062 37.1875 61.4688H38.6875C36.1042 65.3438 33.4896 68.0625 30.8438 69.625C28.2188 71.1875 25 71.9688 21.1875 71.9688C16.0833 71.9688 11.9688 70.4271 8.84375 67.3438C5.73958 64.2396 4.1875 60.1979 4.1875 55.2188C4.1875 50.5521 5.42708 46.1042 7.90625 41.875C10.3854 37.625 13.9479 34.1979 18.5938 31.5938C23.2604 28.9688 27.8958 27.6562 32.5 27.6562C34.25 27.6562 36.4271 28.0312 39.0312 28.7812C40.3646 29.1562 41.2917 29.3438 41.8125 29.3438C42.8542 29.3438 43.9062 28.7812 44.9688 27.6562H46.125ZM60.6875 72C57.2708 72 54.5104 71.3021 52.4062 69.9062C50.3021 68.5104 48.7188 66.6042 47.6562 64.1875C46.6146 61.7708 46.0938 59.4167 46.0938 57.125C46.0938 52.5 47.4167 47.8438 50.0625 43.1562C52.7083 38.4479 56.2708 34.6875 60.75 31.875C65.25 29.0417 69.6875 27.625 74.0625 27.625C76.625 27.625 79.0521 28.2708 81.3438 29.5625C83.6562 30.8542 85.4479 32.6562 86.7188 34.9688C88.0104 37.2812 88.6562 39.6146 88.6562 41.9688C88.6562 47.2396 86.9792 52.5312 83.625 57.8438C80.2708 63.1354 76.5 66.9688 72.3125 69.3438C69.1458 71.1146 65.2708 72 60.6875 72ZM73.0312 30.1875C71.3854 30.1875 69.9792 30.4896 68.8125 31.0938C67.6667 31.6771 66.4688 32.6667 65.2188 34.0625C63.9688 35.4583 62.6979 37.4583 61.4062 40.0625C60.1146 42.6458 58.8958 46.1667 57.75 50.625C56.625 55.0833 56.0625 58.8021 56.0625 61.7812C56.0625 64.3229 56.6146 66.25 57.7188 67.5625C58.8229 68.8542 60.2396 69.5 61.9688 69.5C64.2604 69.5 66.2083 68.7396 67.8125 67.2188C71 64.1979 73.5938 59.7708 75.5938 53.9375C77.6146 48.0833 78.625 42.875 78.625 38.3125C78.625 35.4583 78.0833 33.3958 77 32.125C75.9375 30.8333 74.6146 30.1875 73.0312 30.1875ZM111.75 28.625L125 56.875L130.969 36.375C131.281 35.25 131.438 34.25 131.438 33.375C131.438 32.3333 131.104 31.5 130.438 30.875C129.792 30.25 128.667 29.8854 127.062 29.7812L127.406 28.625H140.844L140.531 29.7812C138.823 29.8854 137.406 30.3646 136.281 31.2188C135.177 32.0729 134.24 33.7917 133.469 36.375L123.125 71.4688H121.938L104.938 35.3438L96.7188 63.5C96.4479 64.4792 96.3125 65.3542 96.3125 66.125C96.3125 67.25 96.6771 68.1562 97.4062 68.8438C98.1562 69.5104 99.3438 69.8438 100.969 69.8438L100.688 71H86.875L87.1562 69.8438C88.3438 69.8438 89.1875 69.7396 89.6875 69.5312C90.5625 69.1979 91.4167 68.5625 92.25 67.625C93.0833 66.6667 93.7604 65.2917 94.2812 63.5L103.25 32.7188C102.146 31.4896 101.219 30.6979 100.469 30.3438C99.7188 29.9896 98.5938 29.8021 97.0938 29.7812L97.4375 28.625H111.75ZM145.438 28.625H179.531L176.312 40.0312H175.188C175.229 39.4271 175.25 38.8958 175.25 38.4375C175.25 36.2708 174.615 34.5938 173.344 33.4062C172.073 32.1979 169.927 31.5104 166.906 31.3438L157.469 63.25C156.948 65.0208 156.688 66.3333 156.688 67.1875C156.688 67.9792 157.01 68.6146 157.656 69.0938C158.302 69.5521 159.615 69.8021 161.594 69.8438L161.312 71H140.281L140.656 69.8438C142.802 69.8438 144.365 69.4479 145.344 68.6562C146.323 67.8438 147.219 66.0417 148.031 63.25L157.469 31.3438C154.219 31.4479 151.5 32.1562 149.312 33.4688C147.125 34.7812 145.125 36.9688 143.312 40.0312H142.094L145.438 28.625ZM196.688 57.3438H183.562L180.938 60.5938L177.938 64.1875C177.354 64.9583 176.927 65.6562 176.656 66.2812C176.448 66.7604 176.344 67.2396 176.344 67.7188C176.344 68.2188 176.604 68.6875 177.125 69.125C177.667 69.5417 178.552 69.7812 179.781 69.8438V71H167.125L167.438 69.8438C168.562 69.6562 169.562 69.2604 170.438 68.6562C171.604 67.8229 173.281 66.1042 175.469 63.5L205.5 27.6562H206.906L205.5 62.3438C205.438 64.1562 205.406 65.25 205.406 65.625C205.406 67.0417 205.688 68.0729 206.25 68.7188C206.833 69.3646 207.792 69.7396 209.125 69.8438L208.812 71H190.469L190.812 69.8438C192.625 69.6771 193.667 69.5312 193.938 69.4062C194.521 69.1146 195.052 68.5104 195.531 67.5938C196.01 66.6562 196.302 65.0417 196.406 62.75L196.688 57.3438ZM196.688 54.7812L197.5 40.9688L185.719 54.7812H196.688ZM259.562 27.6562L256.438 41.125H255.219C255.073 37.4583 254.167 34.7292 252.5 32.9375C250.854 31.125 248.698 30.2188 246.031 30.2188C243.156 30.2188 240.292 31.4479 237.438 33.9062C234.583 36.3646 232.167 40.125 230.188 45.1875C228.583 49.2917 227.781 53.3438 227.781 57.3438C227.781 60.9271 228.656 63.6667 230.406 65.5625C232.177 67.4375 234.594 68.375 237.656 68.375C240.135 68.375 242.396 67.8333 244.438 66.75C246.479 65.6667 248.542 63.9062 250.625 61.4688H252.125C249.542 65.3438 246.927 68.0625 244.281 69.625C241.656 71.1875 238.438 71.9688 234.625 71.9688C229.521 71.9688 225.406 70.4271 222.281 67.3438C219.177 64.2396 217.625 60.1979 217.625 55.2188C217.625 50.5521 218.865 46.1042 221.344 41.875C223.823 37.625 227.385 34.1979 232.031 31.5938C236.698 28.9688 241.333 27.6562 245.938 27.6562C247.688 27.6562 249.865 28.0312 252.469 28.7812C253.802 29.1562 254.729 29.3438 255.25 29.3438C256.292 29.3438 257.344 28.7812 258.406 27.6562H259.562ZM266.375 28.625H300.469L297.25 40.0312H296.125C296.167 39.4271 296.188 38.8958 296.188 38.4375C296.188 36.2708 295.552 34.5938 294.281 33.4062C293.01 32.1979 290.865 31.5104 287.844 31.3438L278.406 63.25C277.885 65.0208 277.625 66.3333 277.625 67.1875C277.625 67.9792 277.948 68.6146 278.594 69.0938C279.24 69.5521 280.552 69.8021 282.531 69.8438L282.25 71H261.219L261.594 69.8438C263.74 69.8438 265.302 69.4479 266.281 68.6562C267.26 67.8438 268.156 66.0417 268.969 63.25L278.406 31.3438C275.156 31.4479 272.438 32.1562 270.25 33.4688C268.062 34.7812 266.062 36.9688 264.25 40.0312H263.031L266.375 28.625Z" fill="white" fill-opacity="0.75"/>
<path d="M93.6175 69.9872L106.754 97.9957L112.672 77.6709C112.982 76.5556 113.137 75.5641 113.137 74.6966C113.137 73.6638 112.806 72.8376 112.145 72.2179C111.505 71.5983 110.39 71.2368 108.799 71.1335L109.14 69.9872H122.463L122.153 71.1335C120.459 71.2368 119.054 71.7119 117.939 72.5588C116.844 73.4056 115.915 75.1097 115.151 77.6709L104.895 112.465H103.718L86.8632 76.6485L78.7147 104.564C78.4462 105.535 78.312 106.402 78.312 107.167C78.312 108.282 78.6734 109.181 79.3964 109.862C80.14 110.523 81.3173 110.854 82.9284 110.854L82.6496 112H68.9551L69.234 110.854C70.4113 110.854 71.2479 110.75 71.7436 110.544C72.6111 110.213 73.458 109.583 74.2842 108.654C75.1104 107.704 75.7817 106.34 76.2981 104.564L85.1902 74.0459C84.0954 72.8273 83.1763 72.0424 82.4327 71.6912C81.6891 71.3401 80.5737 71.1542 79.0865 71.1335L79.4274 69.9872H93.6175ZM134.701 112.991C131.313 112.991 128.577 112.3 126.49 110.916C124.404 109.532 122.834 107.642 121.781 105.246C120.748 102.85 120.232 100.516 120.232 98.2436C120.232 93.6581 121.543 89.0417 124.167 84.3942C126.79 79.7261 130.322 75.9979 134.763 73.2094C139.224 70.4003 143.624 68.9957 147.962 68.9957C150.502 68.9957 152.908 69.636 155.181 70.9167C157.473 72.1973 159.25 73.984 160.51 76.2767C161.79 78.5694 162.431 80.8828 162.431 83.2169C162.431 88.4427 160.768 93.6891 157.442 98.9562C154.117 104.203 150.378 108.003 146.226 110.358C143.087 112.114 139.245 112.991 134.701 112.991ZM146.939 71.5363C145.307 71.5363 143.913 71.8358 142.756 72.4348C141.62 73.0132 140.433 73.9943 139.193 75.3782C137.954 76.7621 136.694 78.745 135.413 81.3269C134.133 83.8882 132.925 87.3789 131.788 91.7991C130.673 96.2194 130.115 99.9063 130.115 102.86C130.115 105.38 130.663 107.291 131.757 108.592C132.852 109.873 134.257 110.513 135.971 110.513C138.243 110.513 140.175 109.759 141.765 108.251C144.925 105.256 147.497 100.867 149.48 95.0833C151.483 89.2792 152.485 84.1154 152.485 79.5919C152.485 76.7621 151.948 74.7172 150.874 73.4573C149.821 72.1766 148.509 71.5363 146.939 71.5363ZM199.796 69.9872H214.017L213.738 71.1335C212.106 71.2575 210.847 71.6499 209.958 72.3109C208.533 73.3643 207.469 75.0994 206.767 77.516L201.19 96.7874C199.455 102.798 197.1 107.001 194.126 109.397C191.152 111.773 187.372 112.96 182.786 112.96C180.184 112.96 177.891 112.589 175.908 111.845C173.925 111.101 172.469 110.265 171.54 109.335C170.61 108.406 169.897 107.26 169.402 105.896C168.906 104.512 168.658 103.356 168.658 102.426C168.658 100.96 169.071 98.791 169.897 95.9199L175.226 77.516C175.702 75.8636 175.939 74.6346 175.939 73.8291C175.939 73.0442 175.64 72.4348 175.041 72.0011C174.462 71.5673 173.099 71.2781 170.951 71.1335L171.292 69.9872H192.236L191.864 71.1335C189.84 71.1335 188.291 71.5673 187.217 72.4348C186.163 73.3024 185.275 74.9961 184.552 77.516L179.192 95.9199C178.304 98.9975 177.86 101.466 177.86 103.325C177.86 105.019 178.542 106.495 179.905 107.755C181.268 109.015 183.168 109.645 185.606 109.645C187.837 109.645 189.726 109.243 191.276 108.437C192.845 107.611 194.147 106.464 195.179 104.998C196.543 103.036 197.761 100.226 198.835 96.5705L204.319 77.516C204.629 76.4213 204.784 75.5125 204.784 74.7895C204.784 73.5089 204.33 72.5278 203.421 71.8462C202.781 71.3711 201.459 71.1335 199.455 71.1335L199.796 69.9872ZM245.589 69.0267L242.088 83.2788H241.065C240.838 81.0481 240.435 79.2614 239.857 77.9188C238.989 75.9772 237.833 74.4797 236.387 73.4263C234.962 72.3729 233.412 71.8462 231.739 71.8462C230.128 71.8462 228.713 72.4658 227.495 73.7051C226.297 74.9238 225.698 76.3077 225.698 77.8568C225.698 79.3853 226.111 80.8932 226.937 82.3803C227.784 83.8469 229.767 86.0673 232.886 89.0417C235.385 91.417 237.058 93.4619 237.905 95.1763C238.772 96.8907 239.206 98.7496 239.206 100.753C239.206 103.005 238.607 105.08 237.409 106.981C236.211 108.881 234.466 110.358 232.173 111.411C229.901 112.444 227.319 112.96 224.427 112.96C222.651 112.96 220.41 112.692 217.704 112.155C215.019 111.639 213.232 111.38 212.344 111.38C211.642 111.38 211.012 111.494 210.454 111.721C209.896 111.928 209.204 112.341 208.378 112.96H207.17L210.919 96.9423H212.096C212.365 99.7514 212.933 102.147 213.8 104.13C214.668 106.093 215.907 107.631 217.518 108.747C219.129 109.842 220.968 110.389 223.033 110.389C225.078 110.389 226.782 109.718 228.145 108.375C229.529 107.012 230.221 105.421 230.221 103.604C230.221 102.054 229.829 100.567 229.044 99.1421C228.28 97.7169 226.514 95.641 223.746 92.9145C220.999 90.188 219.098 87.7507 218.045 85.6026C217.281 84.0121 216.899 82.3184 216.899 80.5214C216.899 77.4024 218.127 74.7069 220.585 72.4348C223.043 70.1627 226.255 69.0267 230.221 69.0267C232.018 69.0267 234.383 69.4295 237.316 70.235C239.031 70.7101 240.239 70.9476 240.941 70.9476C241.54 70.9476 242.077 70.8237 242.552 70.5759C243.027 70.3073 243.585 69.791 244.225 69.0267H245.589Z" fill="white" fill-opacity="0.75"/>
</svg>
