<svg width="343" height="144" viewBox="0 0 343 144" fill="none" xmlns="http://www.w3.org/2000/svg">
<path d="M51.4401 70.4448C51.1622 68.3005 50.9438 66.3745 50.7849 64.667C50.6261 62.9197 50.5467 61.3908 50.5467 60.0804C50.5467 52.1383 53.0087 45.5464 57.9328 40.3046C62.8569 35.0231 68.6745 32.3823 75.3856 32.3823C79.6743 32.3823 83.1093 33.5935 85.6904 36.0158C88.3113 38.4382 89.6218 41.3371 89.6218 44.7124C89.6218 48.9615 88.351 52.6148 85.8096 55.6725C82.0371 60.279 76.0011 64.3493 67.7016 67.8835C70.3622 76.4213 72.1889 81.941 73.1816 84.4428C74.1744 86.9445 75.5047 89.6647 77.1725 92.6033C79.436 90.1015 81.0642 87.6792 82.0569 85.3363C83.0497 82.9536 83.5461 81.0078 83.5461 79.4988C83.5461 78.2281 83.1688 77.1162 82.4143 76.1631C81.6598 75.2101 80.4288 74.5152 78.7212 74.0783L79.436 71.934H102.309L101.416 74.0783C99.2714 74.5946 97.4646 75.4682 95.9953 76.6992C94.526 77.9303 91.8058 81.2064 87.8348 86.5276C85.0154 90.3398 82.2158 93.6953 79.436 96.5942C82.6129 101.002 85.5117 104.04 88.1326 105.708C89.8005 106.82 91.7066 107.376 93.8509 107.376C95.082 107.376 96.1541 107.177 97.0675 106.78C97.9808 106.383 99.0927 105.628 100.403 104.516H102.309C100.403 108.607 97.8816 111.684 94.7444 113.749C91.6073 115.814 88.0532 116.847 84.0822 116.847C80.7465 116.847 77.7483 116.191 75.0877 114.881C72.4271 113.531 69.6077 111.267 66.6294 108.09C62.5392 110.989 58.4093 113.173 54.2397 114.643C50.1098 116.112 45.9402 116.847 41.7309 116.847C35.6155 116.847 30.751 115.139 27.1373 111.724C23.5237 108.309 21.7168 104.298 21.7168 99.6916C21.7168 96.0382 22.4912 92.782 24.0399 89.9228C25.5886 87.0637 28.5272 84.006 32.8556 80.7497C37.1841 77.4934 43.3789 74.0585 51.4401 70.4448ZM66.6294 63.4161C69.9254 61.0732 72.3279 58.6707 73.8369 56.2086C75.9415 52.8332 76.9938 49.2394 76.9938 45.4272C76.9938 42.5681 76.3982 40.3641 75.2069 38.8154C74.2538 37.6638 73.0426 37.088 71.5734 37.088C69.7864 37.088 68.3767 37.8028 67.3442 39.2324C65.8352 41.3768 65.0807 44.6926 65.0807 49.1799C65.0807 51.2051 65.1998 53.409 65.4381 55.7917C65.7161 58.1346 66.1132 60.6761 66.6294 63.4161ZM52.3336 74.9123C47.7669 77.414 44.4908 80.0151 42.5053 82.7154C40.5595 85.376 39.5866 88.5727 39.5866 92.3055C39.5866 96.8722 40.9963 100.724 43.8157 103.861C46.6749 106.959 49.8517 108.507 53.3462 108.507C54.8552 108.507 56.5231 108.17 58.3498 107.495C60.1764 106.82 62.162 105.827 64.3063 104.516C61.884 100.863 59.5411 96.2567 57.2776 90.6972C55.0538 85.1377 53.4058 79.8761 52.3336 74.9123Z" fill="black"/>
<path d="M27.1875 18.9688L22.4688 35.4062H23.9062C27.6979 35.4062 30.4583 34.9062 32.1875 33.9062C33.9375 32.9062 35.4167 31.1354 36.625 28.5938H37.7812L33.0312 45.0938H31.9375C32.125 43.9896 32.2188 43.0938 32.2188 42.4062C32.2188 41.2604 31.875 40.3229 31.1875 39.5938C30.5208 38.8646 29.6458 38.3438 28.5625 38.0312C27.8542 37.8229 26.3854 37.7188 24.1562 37.7188H21.7188L17.6562 51.9375C17.3021 53.1875 17.125 54.1146 17.125 54.7188C17.125 55.1979 17.3542 55.5833 17.8125 55.875C18.4792 56.2917 19.7396 56.5 21.5938 56.5C25.1562 56.5 28.5104 55.75 31.6562 54.25C34.8021 52.7292 37.625 50.4375 40.125 47.375H41.4062L37 59H0.75L1.125 57.8438C3.25 57.8438 4.80208 57.4479 5.78125 56.6562C6.76042 55.8438 7.64583 54.0729 8.4375 51.3438L16.4062 24.0625C16.8438 22.5417 17.0625 21.3438 17.0625 20.4688C17.0625 19.6771 16.7812 19.0729 16.2188 18.6562C15.6562 18.2188 14.375 17.9271 12.375 17.7812L12.7188 16.625H46.5L43.7812 27.2188H42.6562C42.5729 25.1354 42.25 23.6667 41.6875 22.8125C40.8125 21.4792 39.6458 20.5104 38.1875 19.9062C36.75 19.2812 34.4062 18.9688 31.1562 18.9688H27.1875ZM64.0625 38.3125L60.3125 51.1562C59.7708 52.9688 59.5 54.3021 59.5 55.1562C59.5 55.9479 59.8229 56.5833 60.4688 57.0625C61.1146 57.5417 62.4583 57.8021 64.5 57.8438L64.0625 59H43.6562L44.0312 57.8438C46.0729 57.8438 47.5625 57.4479 48.5 56.6562C49.4583 55.8646 50.3333 54.0938 51.125 51.3438L59 24.1562C59.4375 22.6354 59.6562 21.4375 59.6562 20.5625C59.6562 19.7292 59.3854 19.0938 58.8438 18.6562C58.3021 18.2188 57.0417 17.9271 55.0625 17.7812L55.375 16.625H72.9375C77.9583 16.625 81.4896 17.5 83.5312 19.25C85.5729 21 86.5938 23.25 86.5938 26C86.5938 28.8958 85.4062 31.5104 83.0312 33.8438C81.5312 35.3021 78.875 36.5625 75.0625 37.625L78.875 50.4688C79.8958 53.9062 80.7812 55.9792 81.5312 56.6875C82.3021 57.3958 83.5729 57.7812 85.3438 57.8438V59H72.1562L66.1562 38.3125L65.125 38.375C64.8958 38.375 64.5417 38.3542 64.0625 38.3125ZM64.5 36.4375C65.2292 36.4792 65.8438 36.5 66.3438 36.5C69.3854 36.5 71.8854 35.4583 73.8438 33.375C75.8021 31.2917 76.7812 28.5625 76.7812 25.1875C76.7812 23.1875 76.2604 21.6667 75.2188 20.625C74.1771 19.5833 72.8021 19.0625 71.0938 19.0625C70.6771 19.0625 70.1875 19.0729 69.625 19.0938L64.5 36.4375ZM111.188 16.625L124.438 44.875L130.406 24.375C130.719 23.25 130.875 22.25 130.875 21.375C130.875 20.3333 130.542 19.5 129.875 18.875C129.229 18.25 128.104 17.8854 126.5 17.7812L126.844 16.625H140.281L139.969 17.7812C138.26 17.8854 136.844 18.3646 135.719 19.2188C134.615 20.0729 133.677 21.7917 132.906 24.375L122.562 59.4688H121.375L104.375 23.3438L96.1562 51.5C95.8854 52.4792 95.75 53.3542 95.75 54.125C95.75 55.25 96.1146 56.1562 96.8438 56.8438C97.5938 57.5104 98.7812 57.8438 100.406 57.8438L100.125 59H86.3125L86.5938 57.8438C87.7812 57.8438 88.625 57.7396 89.125 57.5312C90 57.1979 90.8542 56.5625 91.6875 55.625C92.5208 54.6667 93.1979 53.2917 93.7188 51.5L102.688 20.7188C101.583 19.4896 100.656 18.6979 99.9062 18.3438C99.1562 17.9896 98.0312 17.8021 96.5312 17.7812L96.875 16.625H111.188ZM171.969 15.6562L168.438 30.0312H167.406C167.177 27.7812 166.771 25.9792 166.188 24.625C165.312 22.6667 164.146 21.1562 162.688 20.0938C161.25 19.0312 159.688 18.5 158 18.5C156.375 18.5 154.948 19.125 153.719 20.375C152.51 21.6042 151.906 23 151.906 24.5625C151.906 26.1042 152.323 27.625 153.156 29.125C154.01 30.6042 156.01 32.8438 159.156 35.8438C161.677 38.2396 163.365 40.3021 164.219 42.0312C165.094 43.7604 165.531 45.6354 165.531 47.6562C165.531 49.9271 164.927 52.0208 163.719 53.9375C162.51 55.8542 160.75 57.3438 158.438 58.4062C156.146 59.4479 153.542 59.9688 150.625 59.9688C148.833 59.9688 146.573 59.6979 143.844 59.1562C141.135 58.6354 139.333 58.375 138.438 58.375C137.729 58.375 137.094 58.4896 136.531 58.7188C135.969 58.9271 135.271 59.3438 134.438 59.9688H133.219L137 43.8125H138.188C138.458 46.6458 139.031 49.0625 139.906 51.0625C140.781 53.0417 142.031 54.5938 143.656 55.7188C145.281 56.8229 147.135 57.375 149.219 57.375C151.281 57.375 153 56.6979 154.375 55.3438C155.771 53.9688 156.469 52.3646 156.469 50.5312C156.469 48.9688 156.073 47.4688 155.281 46.0312C154.51 44.5938 152.729 42.5 149.938 39.75C147.167 37 145.25 34.5417 144.188 32.375C143.417 30.7708 143.031 29.0625 143.031 27.25C143.031 24.1042 144.271 21.3854 146.75 19.0938C149.229 16.8021 152.469 15.6562 156.469 15.6562C158.281 15.6562 160.667 16.0625 163.625 16.875C165.354 17.3542 166.573 17.5938 167.281 17.5938C167.885 17.5938 168.427 17.4688 168.906 17.2188C169.385 16.9479 169.948 16.4271 170.594 15.6562H171.969ZM180.5 16.625H214.594L211.375 28.0312H210.25C210.292 27.4271 210.312 26.8958 210.312 26.4375C210.312 24.2708 209.677 22.5938 208.406 21.4062C207.135 20.1979 204.99 19.5104 201.969 19.3438L192.531 51.25C192.01 53.0208 191.75 54.3333 191.75 55.1875C191.75 55.9792 192.073 56.6146 192.719 57.0938C193.365 57.5521 194.677 57.8021 196.656 57.8438L196.375 59H175.344L175.719 57.8438C177.865 57.8438 179.427 57.4479 180.406 56.6562C181.385 55.8438 182.281 54.0417 183.094 51.25L192.531 19.3438C189.281 19.4479 186.562 20.1562 184.375 21.4688C182.188 22.7812 180.188 24.9688 178.375 28.0312H177.156L180.5 16.625Z" fill="white" fill-opacity="0.75"/>
<path d="M96.6934 87.5449L98.3105 67.1543C98.3574 66.5566 98.3809 66.0645 98.3809 65.6777C98.3809 65.0566 98.2344 64.5996 97.9414 64.3066C97.6602 64.0137 97.1562 63.8496 96.4297 63.8145L96.6934 63.1641H106.326L106.133 63.8145H105.658C105.025 63.8145 104.51 64.0254 104.111 64.4473C103.725 64.8574 103.49 65.6309 103.408 66.7676L102.477 78.8613L109.666 69.0352L109.842 66.7676C109.889 66.2988 109.912 65.9238 109.912 65.6426C109.912 65.0684 109.754 64.6289 109.438 64.3242C109.133 64.0195 108.623 63.8496 107.908 63.8145L108.084 63.1641H117.787L117.594 63.8145C116.738 63.8145 116.105 64.0254 115.695 64.4473C115.285 64.8574 115.033 65.6309 114.939 66.7676L114.025 78.8613L120.951 69.334C122.135 67.7051 122.867 66.5977 123.148 66.0117C123.348 65.6133 123.447 65.2734 123.447 64.9922C123.447 64.7227 123.312 64.4824 123.043 64.2715C122.785 64.0488 122.281 63.8965 121.531 63.8145L121.707 63.1641H128.07L127.912 63.8145C127.338 63.9199 126.863 64.1191 126.488 64.4121C125.961 64.8223 125.275 65.6074 124.432 66.7676L109.297 87.5449H108.26L109.473 71.4609L97.748 87.5449H96.6934ZM129.002 63.8145L129.195 63.1641H140.832L140.604 63.8145C139.549 63.8145 138.74 64.0488 138.178 64.5176C137.627 64.9863 137.141 65.9648 136.719 67.4531L132.359 82.7109C132.043 83.7891 131.885 84.5098 131.885 84.873C131.885 85.2949 132.049 85.623 132.377 85.8574C132.799 86.1621 133.596 86.3262 134.768 86.3496L134.592 87H122.762L122.955 86.3496C124.139 86.3496 125.006 86.127 125.557 85.6816C126.107 85.2246 126.605 84.2344 127.051 82.7109L131.445 67.4531C131.715 66.5156 131.85 65.8066 131.85 65.3262C131.85 64.8926 131.686 64.5527 131.357 64.3066C131.029 64.0605 130.244 63.8965 129.002 63.8145ZM155.932 87H136.895L137.088 86.3496C138.225 86.3496 139.051 86.1328 139.566 85.6992C140.094 85.2539 140.58 84.2637 141.025 82.7285L145.455 67.418C145.701 66.5742 145.824 65.9121 145.824 65.4316C145.824 64.9629 145.648 64.5879 145.297 64.3066C144.945 64.0254 144.254 63.8613 143.223 63.8145L143.416 63.1641H154.859L154.666 63.8145C153.564 63.8379 152.738 64.084 152.188 64.5527C151.648 65.0215 151.168 65.9766 150.746 67.418L146.703 81.4277C146.188 83.209 145.93 84.293 145.93 84.6797C145.93 84.9141 146.059 85.1367 146.316 85.3477C146.586 85.5469 147.014 85.6465 147.6 85.6465C149.545 85.6465 151.42 85.2012 153.225 84.3105C155.041 83.4199 156.576 82.0898 157.83 80.3203H158.568L155.932 87ZM170.768 74.1328H179.486L181.42 67.4707C181.678 66.5566 181.807 65.8594 181.807 65.3789C181.807 64.9102 181.648 64.5527 181.332 64.3066C181.016 64.0605 180.254 63.8965 179.047 63.8145L179.24 63.1641H191.088L190.895 63.8145C189.734 63.8145 188.855 64.0605 188.258 64.5527C187.66 65.0449 187.15 66.0176 186.729 67.4707L182.299 82.7285C182.006 83.7246 181.859 84.4395 181.859 84.873C181.859 85.3066 182.018 85.6348 182.334 85.8574C182.744 86.1621 183.488 86.3262 184.566 86.3496L184.391 87H172.771L173.035 86.3496C174.16 86.3496 174.986 86.1328 175.514 85.6992C176.053 85.2539 176.545 84.2637 176.99 82.7285L179.047 75.627H170.363L168.324 82.7285C168.031 83.7012 167.885 84.4219 167.885 84.8906C167.885 85.3125 168.061 85.6582 168.412 85.9277C168.775 86.1855 169.484 86.3262 170.539 86.3496L170.363 87H158.902L159.096 86.3496C160.221 86.3496 161.041 86.1328 161.557 85.6992C162.084 85.2539 162.57 84.2637 163.016 82.7285L167.445 67.4707C167.703 66.5918 167.832 65.9004 167.832 65.3965C167.832 64.916 167.674 64.5527 167.357 64.3066C167.053 64.0605 166.314 63.8965 165.143 63.8145L165.336 63.1641H176.99L176.727 63.8145C175.648 63.8145 174.834 64.0488 174.283 64.5176C173.732 64.9746 173.229 65.959 172.771 67.4707L170.768 74.1328ZM201.688 64.4824L199.033 73.7285H199.842C201.975 73.7285 203.527 73.4473 204.5 72.8848C205.484 72.3223 206.316 71.3262 206.996 69.8965H207.646L204.975 79.1777H204.359C204.465 78.5566 204.518 78.0527 204.518 77.666C204.518 77.0215 204.324 76.4941 203.938 76.084C203.562 75.6738 203.07 75.3809 202.461 75.2051C202.062 75.0879 201.236 75.0293 199.982 75.0293H198.611L196.326 83.0273C196.127 83.7305 196.027 84.252 196.027 84.5918C196.027 84.8613 196.156 85.0781 196.414 85.2422C196.789 85.4766 197.498 85.5938 198.541 85.5938C200.545 85.5938 202.432 85.1719 204.201 84.3281C205.971 83.4727 207.559 82.1836 208.965 80.4609H209.686L207.207 87H186.816L187.027 86.3496C188.223 86.3496 189.096 86.127 189.646 85.6816C190.197 85.2246 190.695 84.2285 191.141 82.6934L195.623 67.3477C195.869 66.4922 195.992 65.8184 195.992 65.3262C195.992 64.8809 195.834 64.541 195.518 64.3066C195.201 64.0605 194.48 63.8965 193.355 63.8145L193.549 63.1641H212.551L211.021 69.123H210.389C210.342 67.9512 210.16 67.125 209.844 66.6445C209.352 65.8945 208.695 65.3496 207.875 65.0098C207.066 64.6582 205.748 64.4824 203.92 64.4824H201.688ZM217.068 63.8145L217.262 63.1641H228.898L228.67 63.8145C227.615 63.8145 226.807 64.0488 226.244 64.5176C225.693 64.9863 225.207 65.9648 224.785 67.4531L220.426 82.7109C220.109 83.7891 219.951 84.5098 219.951 84.873C219.951 85.2949 220.115 85.623 220.443 85.8574C220.865 86.1621 221.662 86.3262 222.834 86.3496L222.658 87H210.828L211.021 86.3496C212.205 86.3496 213.072 86.127 213.623 85.6816C214.174 85.2246 214.672 84.2344 215.117 82.7109L219.512 67.4531C219.781 66.5156 219.916 65.8066 219.916 65.3262C219.916 64.8926 219.752 64.5527 219.424 64.3066C219.096 64.0605 218.311 63.8965 217.068 63.8145ZM239.744 63.1641L241.502 79.5469L252.84 63.1641H261.189L260.979 63.8145C259.83 63.8145 258.957 64.0605 258.359 64.5527C257.762 65.0449 257.252 66.0176 256.83 67.4707L252.436 82.7285C252.154 83.6895 252.014 84.4043 252.014 84.873C252.014 85.3066 252.189 85.6582 252.541 85.9277C252.893 86.1855 253.584 86.3262 254.615 86.3496L254.457 87H242.557L242.768 86.3496C244.045 86.3496 244.988 86.1094 245.598 85.6289C246.207 85.1367 246.723 84.1699 247.145 82.7285L251.627 67.2773L237.986 87H237.266L235.121 66.8906L230.568 82.7285C230.381 83.373 230.287 83.9121 230.287 84.3457C230.287 84.9316 230.486 85.4062 230.885 85.7695C231.295 86.1211 231.986 86.3145 232.959 86.3496L232.783 87H224.908L225.066 86.3496C226.016 86.3145 226.742 86.1152 227.246 85.752C228.137 85.0957 228.781 84.0879 229.18 82.7285L234.33 65.1152C233.838 64.5762 233.393 64.2246 232.994 64.0605C232.607 63.8965 231.951 63.8145 231.025 63.8145L231.236 63.1641H239.744ZM279.98 63.1641L287.434 79.0547L290.791 67.5234C290.967 66.8906 291.055 66.3281 291.055 65.8359C291.055 65.25 290.867 64.7812 290.492 64.4297C290.129 64.0781 289.496 63.873 288.594 63.8145L288.787 63.1641H296.346L296.17 63.8145C295.209 63.873 294.412 64.1426 293.779 64.623C293.158 65.1035 292.631 66.0703 292.197 67.5234L286.379 87.2637H285.711L276.148 66.9434L271.525 82.7812C271.373 83.332 271.297 83.8242 271.297 84.2578C271.297 84.8906 271.502 85.4004 271.912 85.7871C272.334 86.1621 273.002 86.3496 273.916 86.3496L273.758 87H265.988L266.146 86.3496C266.814 86.3496 267.289 86.291 267.57 86.1738C268.062 85.9863 268.543 85.6289 269.012 85.1016C269.48 84.5625 269.861 83.7891 270.154 82.7812L275.199 65.4668C274.578 64.7754 274.057 64.3301 273.635 64.1309C273.213 63.9316 272.58 63.8262 271.736 63.8145L271.93 63.1641H279.98ZM307.754 79.3184H300.371L298.895 81.1465L297.207 83.168C296.879 83.6016 296.639 83.9941 296.486 84.3457C296.369 84.6152 296.311 84.8848 296.311 85.1543C296.311 85.4355 296.457 85.6992 296.75 85.9453C297.055 86.1797 297.553 86.3145 298.244 86.3496V87H291.125L291.301 86.3496C291.934 86.2441 292.496 86.0215 292.988 85.6816C293.645 85.2129 294.588 84.2461 295.818 82.7812L312.711 62.6191H313.502L312.711 82.1309C312.676 83.1504 312.658 83.7656 312.658 83.9766C312.658 84.7734 312.816 85.3535 313.133 85.7168C313.461 86.0801 314 86.291 314.75 86.3496L314.574 87H304.256L304.449 86.3496C305.469 86.2559 306.055 86.1738 306.207 86.1035C306.535 85.9395 306.834 85.5996 307.104 85.084C307.373 84.5566 307.537 83.6484 307.596 82.3594L307.754 79.3184ZM307.754 77.877L308.211 70.1074L301.584 77.877H307.754ZM324.699 76.4707L322.695 67.7871C322.355 66.2871 321.945 65.2617 321.465 64.7109C321.102 64.2891 320.439 63.9902 319.479 63.8145L319.672 63.1641H331.115L330.904 63.8145C329.791 63.8145 328.977 64.043 328.461 64.5C327.957 64.9453 327.705 65.4785 327.705 66.0996C327.705 66.4863 327.811 67.1602 328.021 68.1211L329.568 75.1699L333.418 69.8613C334.402 68.502 335.018 67.5469 335.264 66.9961C335.51 66.4336 335.633 65.9414 335.633 65.5195C335.633 65.0977 335.475 64.7285 335.158 64.4121C334.842 64.0957 334.332 63.8965 333.629 63.8145L333.822 63.1641H340.977V63.8145C340.332 63.8848 339.775 64.0957 339.307 64.4473C338.838 64.7988 337.924 65.9121 336.564 67.7871L329.797 77.1035L328.215 82.623C327.875 83.7598 327.705 84.4219 327.705 84.6094C327.705 85.1133 327.898 85.5293 328.285 85.8574C328.672 86.1855 329.322 86.3496 330.236 86.3496H330.904L330.711 87H318.512L318.688 86.3496C319.578 86.3613 320.293 86.2441 320.832 85.998C321.371 85.7402 321.775 85.4121 322.045 85.0137C322.232 84.7324 322.508 83.9824 322.871 82.7637L324.699 76.4707Z" fill="white" fill-opacity="0.75"/>
</svg>
