<svg width="306" height="140" viewBox="0 0 306 140" fill="none" xmlns="http://www.w3.org/2000/svg">
<path d="M36.4401 66.4448C36.1622 64.3005 35.9438 62.3745 35.7849 60.667C35.6261 58.9197 35.5467 57.3908 35.5467 56.0804C35.5467 48.1383 38.0087 41.5464 42.9328 36.3046C47.8569 31.0231 53.6745 28.3823 60.3856 28.3823C64.6743 28.3823 68.1093 29.5935 70.6904 32.0158C73.3113 34.4382 74.6218 37.3371 74.6218 40.7124C74.6218 44.9615 73.351 48.6148 70.8096 51.6725C67.0371 56.279 61.0011 60.3493 52.7016 63.8835C55.3622 72.4213 57.1889 77.941 58.1816 80.4428C59.1744 82.9445 60.5047 85.6647 62.1725 88.6033C64.436 86.1015 66.0642 83.6792 67.0569 81.3363C68.0497 78.9536 68.5461 77.0078 68.5461 75.4988C68.5461 74.2281 68.1688 73.1162 67.4143 72.1631C66.6598 71.2101 65.4288 70.5152 63.7212 70.0783L64.436 67.934H87.3093L86.4158 70.0783C84.2714 70.5946 82.4646 71.4682 80.9953 72.6992C79.526 73.9303 76.8058 77.2064 72.8348 82.5276C70.0154 86.3398 67.2158 89.6953 64.436 92.5942C67.6129 97.0021 70.5117 100.04 73.1326 101.708C74.8005 102.82 76.7066 103.376 78.8509 103.376C80.082 103.376 81.1541 103.177 82.0675 102.78C82.9808 102.383 84.0927 101.628 85.4032 100.516H87.3093C85.4032 104.607 82.8816 107.684 79.7444 109.749C76.6073 111.814 73.0532 112.847 69.0822 112.847C65.7465 112.847 62.7483 112.191 60.0877 110.881C57.4271 109.531 54.6077 107.267 51.6294 104.09C47.5392 106.989 43.4093 109.173 39.2397 110.643C35.1098 112.112 30.9402 112.847 26.7309 112.847C20.6155 112.847 15.751 111.139 12.1373 107.724C8.52367 104.309 6.71684 100.298 6.71684 95.6916C6.71684 92.0382 7.4912 88.782 9.03991 85.9228C10.5886 83.0637 13.5272 80.006 17.8556 76.7497C22.1841 73.4934 28.3789 70.0585 36.4401 66.4448ZM51.6294 59.4161C54.9254 57.0732 57.3279 54.6707 58.8369 52.2086C60.9415 48.8332 61.9938 45.2394 61.9938 41.4272C61.9938 38.5681 61.3982 36.3641 60.2069 34.8154C59.2538 33.6638 58.0426 33.088 56.5734 33.088C54.7864 33.088 53.3767 33.8028 52.3442 35.2324C50.8352 37.3768 50.0807 40.6926 50.0807 45.1799C50.0807 47.2051 50.1998 49.409 50.4381 51.7917C50.7161 54.1346 51.1132 56.6761 51.6294 59.4161ZM37.3336 70.9123C32.7669 73.414 29.4908 76.0151 27.5053 78.7154C25.5595 81.376 24.5866 84.5727 24.5866 88.3055C24.5866 92.8722 25.9963 96.7241 28.8157 99.8612C31.6749 102.959 34.8517 104.507 38.3462 104.507C39.8552 104.507 41.5231 104.17 43.3498 103.495C45.1764 102.82 47.162 101.827 49.3063 100.516C46.884 96.8631 44.5411 92.2567 42.2776 86.6972C40.0538 81.1377 38.4058 75.8761 37.3336 70.9123Z" fill="black"/>
<path d="M34.7812 70H0.9375L1.28125 68.8438C3.30208 68.8438 4.77083 68.4583 5.6875 67.6875C6.625 66.8958 7.48958 65.1354 8.28125 62.4062L16.1562 35.1875C16.5938 33.6875 16.8125 32.5104 16.8125 31.6562C16.8125 30.8229 16.5 30.1562 15.875 29.6562C15.25 29.1562 14.0208 28.8646 12.1875 28.7812L12.5312 27.625H32.875L32.5312 28.7812C30.5729 28.8229 29.1042 29.2604 28.125 30.0938C27.1667 30.9271 26.3125 32.625 25.5625 35.1875L18.375 60.0938C17.4583 63.2604 17 65.1875 17 65.875C17 66.2917 17.2292 66.6875 17.6875 67.0625C18.1667 67.4167 18.9271 67.5938 19.9688 67.5938C23.4271 67.5938 26.7604 66.8021 29.9688 65.2188C33.1979 63.6354 35.9271 61.2708 38.1562 58.125H39.4688L34.7812 70ZM48.4688 46.4688L47.75 45.1562C50.9375 43.3646 52.9167 41.9896 53.6875 41.0312C54.2917 40.3229 54.5938 39.5938 54.5938 38.8438C54.5938 38.0312 54.0521 37.1354 52.9688 36.1562C51.9062 35.1562 51.1979 34.3125 50.8438 33.625C50.5729 33.1042 50.4375 32.4375 50.4375 31.625C50.4375 30.2708 50.9375 29.1042 51.9375 28.125C52.9583 27.1458 54.1875 26.6562 55.625 26.6562C57.0208 26.6562 58.2292 27.2083 59.25 28.3125C60.2917 29.4167 60.8125 30.7917 60.8125 32.4375C60.8125 35.0417 59.8125 37.6042 57.8125 40.125C55.8333 42.6458 52.7188 44.7604 48.4688 46.4688ZM84.0625 29.9688L79.3438 46.4062H80.7812C84.5729 46.4062 87.3333 45.9062 89.0625 44.9062C90.8125 43.9062 92.2917 42.1354 93.5 39.5938H94.6562L89.9062 56.0938H88.8125C89 54.9896 89.0938 54.0938 89.0938 53.4062C89.0938 52.2604 88.75 51.3229 88.0625 50.5938C87.3958 49.8646 86.5208 49.3438 85.4375 49.0312C84.7292 48.8229 83.2604 48.7188 81.0312 48.7188H78.5938L74.5312 62.9375C74.1771 64.1875 74 65.1146 74 65.7188C74 66.1979 74.2292 66.5833 74.6875 66.875C75.3542 67.2917 76.6146 67.5 78.4688 67.5C82.0312 67.5 85.3854 66.75 88.5312 65.25C91.6771 63.7292 94.5 61.4375 97 58.375H98.2812L93.875 70H57.625L58 68.8438C60.125 68.8438 61.6771 68.4479 62.6562 67.6562C63.6354 66.8438 64.5208 65.0729 65.3125 62.3438L73.2812 35.0625C73.7188 33.5417 73.9375 32.3438 73.9375 31.4688C73.9375 30.6771 73.6562 30.0729 73.0938 29.6562C72.5312 29.2188 71.25 28.9271 69.25 28.7812L69.5938 27.625H103.375L100.656 38.2188H99.5312C99.4479 36.1354 99.125 34.6667 98.5625 33.8125C97.6875 32.4792 96.5208 31.5104 95.0625 30.9062C93.625 30.2812 91.2812 29.9688 88.0312 29.9688H84.0625ZM121.812 50.4062L115.219 35.0312C114.052 32.3229 113.104 30.6458 112.375 30C111.667 29.3333 110.542 28.9271 109 28.7812V27.625H127.719L127.375 28.7812C126.062 28.8854 125.177 29.1458 124.719 29.5625C124.26 29.9792 124.031 30.5312 124.031 31.2188C124.031 32.0312 124.396 33.3021 125.125 35.0312L128.875 43.9062L134.094 39.125C137.01 36.4792 138.875 34.5 139.688 33.1875C140.167 32.4167 140.406 31.7188 140.406 31.0938C140.406 30.5312 140.146 30.0208 139.625 29.5625C139.125 29.1042 138.312 28.8438 137.188 28.7812L137.562 27.625H151.406L151.125 28.7812C150.083 28.9688 149.125 29.3438 148.25 29.9062C146.854 30.8021 144.521 32.75 141.25 35.75L129.844 46.2188L136.25 61.125C137.729 64.5208 138.833 66.5833 139.562 67.3125C140.312 68.0417 141.417 68.5521 142.875 68.8438L142.562 70H123.781L124.156 68.8438C125.469 68.8229 126.427 68.5625 127.031 68.0625C127.635 67.5417 127.938 66.9062 127.938 66.1562C127.938 65.1354 127.354 63.2917 126.188 60.625L122.75 52.6562L114.938 59.9375C112.458 62.2292 111.01 63.7292 110.594 64.4375C110.198 65.125 110 65.7812 110 66.4062C110 67.0312 110.292 67.5833 110.875 68.0625C111.458 68.5417 112.417 68.8021 113.75 68.8438L113.375 70H98.6875L99 68.8438C100.104 68.6354 101.052 68.2917 101.844 67.8125C103.781 66.6458 106.167 64.75 109 62.125L121.812 50.4062ZM163.406 50.5312L159.969 62.3438C159.49 64.0104 159.25 65.1875 159.25 65.875C159.25 66.8333 159.562 67.5625 160.188 68.0625C160.812 68.5417 162.229 68.8021 164.438 68.8438L164.031 70H143.344L143.688 68.8438C145.438 68.8229 146.677 68.6562 147.406 68.3438C148.135 68.0104 148.74 67.4792 149.219 66.75C149.573 66.2708 150.104 64.8021 150.812 62.3438L158.656 35.4375C159.198 33.6458 159.469 32.3646 159.469 31.5938C159.469 30.8229 159.125 30.1771 158.438 29.6562C157.75 29.1146 156.5 28.8229 154.688 28.7812L155.031 27.625H171.812C176.417 27.625 179.729 28.2083 181.75 29.375C184.875 31.2083 186.438 33.9583 186.438 37.625C186.438 41.1667 184.875 44.2917 181.75 47C178.646 49.6875 174.458 51.0312 169.188 51.0312C167.604 51.0312 165.677 50.8646 163.406 50.5312ZM164.031 48.125C165.385 48.2917 166.51 48.375 167.406 48.375C170.281 48.375 172.542 47.0625 174.188 44.4375C175.833 41.8125 176.656 39.0729 176.656 36.2188C176.656 34.2812 176.125 32.7812 175.062 31.7188C174 30.6354 172.531 30.0938 170.656 30.0938C170.26 30.0938 169.771 30.1146 169.188 30.1562L164.031 48.125ZM202.375 71C198.958 71 196.198 70.3021 194.094 68.9062C191.99 67.5104 190.406 65.6042 189.344 63.1875C188.302 60.7708 187.781 58.4167 187.781 56.125C187.781 51.5 189.104 46.8438 191.75 42.1562C194.396 37.4479 197.958 33.6875 202.438 30.875C206.938 28.0417 211.375 26.625 215.75 26.625C218.312 26.625 220.74 27.2708 223.031 28.5625C225.344 29.8542 227.135 31.6562 228.406 33.9688C229.698 36.2812 230.344 38.6146 230.344 40.9688C230.344 46.2396 228.667 51.5312 225.312 56.8438C221.958 62.1354 218.188 65.9688 214 68.3438C210.833 70.1146 206.958 71 202.375 71ZM214.719 29.1875C213.073 29.1875 211.667 29.4896 210.5 30.0938C209.354 30.6771 208.156 31.6667 206.906 33.0625C205.656 34.4583 204.385 36.4583 203.094 39.0625C201.802 41.6458 200.583 45.1667 199.438 49.625C198.312 54.0833 197.75 57.8021 197.75 60.7812C197.75 63.3229 198.302 65.25 199.406 66.5625C200.51 67.8542 201.927 68.5 203.656 68.5C205.948 68.5 207.896 67.7396 209.5 66.2188C212.688 63.1979 215.281 58.7708 217.281 52.9375C219.302 47.0833 220.312 41.875 220.312 37.3125C220.312 34.4583 219.771 32.3958 218.688 31.125C217.625 29.8333 216.302 29.1875 214.719 29.1875Z" fill="white" fill-opacity="0.75"/>
<path d="M111.025 69.0267L107.524 83.2788H106.501C106.274 81.0481 105.871 79.2614 105.293 77.9188C104.425 75.9772 103.269 74.4797 101.823 73.4263C100.397 72.3729 98.8483 71.8462 97.1752 71.8462C95.5641 71.8462 94.1492 72.4658 92.9306 73.7051C91.7325 74.9238 91.1335 76.3077 91.1335 77.8568C91.1335 79.3853 91.5467 80.8932 92.3729 82.3803C93.2197 83.8469 95.2026 86.0673 98.3216 89.0417C100.821 91.417 102.494 93.4619 103.341 95.1763C104.208 96.8907 104.642 98.7496 104.642 100.753C104.642 103.005 104.043 105.08 102.845 106.981C101.647 108.881 99.9017 110.358 97.609 111.411C95.3369 112.444 92.755 112.96 89.8632 112.96C88.0869 112.96 85.8458 112.692 83.14 112.155C80.4548 111.639 78.6681 111.38 77.7799 111.38C77.0776 111.38 76.4476 111.494 75.89 111.721C75.3323 111.928 74.6403 112.341 73.8141 112.96H72.6058L76.3547 96.9423H77.5321C77.8006 99.7514 78.3686 102.147 79.2361 104.13C80.1036 106.093 81.3429 107.631 82.9541 108.747C84.5652 109.842 86.4035 110.389 88.469 110.389C90.5139 110.389 92.2179 109.718 93.5812 108.375C94.9651 107.012 95.6571 105.421 95.6571 103.604C95.6571 102.054 95.2646 100.567 94.4797 99.1421C93.7155 97.7169 91.9494 95.641 89.1816 92.9145C86.4345 90.188 84.5342 87.7507 83.4808 85.6026C82.7165 84.0121 82.3344 82.3184 82.3344 80.5214C82.3344 77.4024 83.5634 74.7069 86.0214 72.4348C88.4793 70.1627 91.6912 69.0267 95.6571 69.0267C97.4541 69.0267 99.8191 69.4295 102.752 70.235C104.467 70.7101 105.675 70.9476 106.377 70.9476C106.976 70.9476 107.513 70.8237 107.988 70.5759C108.463 70.3073 109.021 69.791 109.661 69.0267H111.025ZM118.089 71.1335L118.429 69.9872H138.94L138.537 71.1335C136.678 71.1335 135.253 71.5467 134.262 72.3729C133.291 73.1991 132.434 74.9238 131.69 77.547L124.006 104.44C123.449 106.34 123.17 107.611 123.17 108.251C123.17 108.995 123.459 109.573 124.037 109.986C124.781 110.523 126.186 110.812 128.251 110.854L127.941 112H107.09L107.431 110.854C109.517 110.854 111.045 110.461 112.016 109.676C112.987 108.871 113.865 107.125 114.65 104.44L122.395 77.547C122.87 75.8946 123.108 74.6449 123.108 73.7981C123.108 73.0338 122.819 72.4348 122.24 72.0011C121.662 71.5673 120.278 71.2781 118.089 71.1335ZM144.207 69.9872H178.01L174.818 81.2959H173.703C173.744 80.6969 173.765 80.1702 173.765 79.7158C173.765 77.5677 173.135 75.9049 171.875 74.7276C170.615 73.5296 168.488 72.8479 165.493 72.6827L156.136 104.316C155.619 106.072 155.361 107.373 155.361 108.22C155.361 109.005 155.681 109.635 156.322 110.11C156.962 110.564 158.263 110.812 160.225 110.854L159.947 112H139.095L139.467 110.854C141.594 110.854 143.144 110.461 144.114 109.676C145.085 108.871 145.973 107.084 146.779 104.316L156.136 72.6827C152.913 72.786 150.218 73.4882 148.049 74.7895C145.88 76.0908 143.897 78.2596 142.1 81.2959H140.892L144.207 69.9872ZM181.604 71.1335L181.944 69.9872H202.455L202.052 71.1335C200.193 71.1335 198.768 71.5467 197.777 72.3729C196.806 73.1991 195.949 74.9238 195.205 77.547L187.521 104.44C186.964 106.34 186.685 107.611 186.685 108.251C186.685 108.995 186.974 109.573 187.552 109.986C188.296 110.523 189.701 110.812 191.766 110.854L191.456 112H170.605L170.946 110.854C173.032 110.854 174.56 110.461 175.531 109.676C176.502 108.871 177.38 107.125 178.165 104.44L185.91 77.547C186.385 75.8946 186.623 74.6449 186.623 73.7981C186.623 73.0338 186.334 72.4348 185.755 72.0011C185.177 71.5673 183.793 71.2781 181.604 71.1335ZM215.406 112.991C212.019 112.991 209.282 112.3 207.196 110.916C205.109 109.532 203.54 107.642 202.486 105.246C201.453 102.85 200.937 100.516 200.937 98.2436C200.937 93.6581 202.249 89.0417 204.872 84.3942C207.495 79.7261 211.027 75.9979 215.468 73.2094C219.929 70.4003 224.329 68.9957 228.667 68.9957C231.207 68.9957 233.614 69.636 235.886 70.9167C238.178 72.1973 239.955 73.984 241.215 76.2767C242.495 78.5694 243.136 80.8828 243.136 83.2169C243.136 88.4427 241.473 93.6891 238.147 98.9562C234.822 104.203 231.083 108.003 226.932 110.358C223.792 112.114 219.95 112.991 215.406 112.991ZM227.644 71.5363C226.012 71.5363 224.618 71.8358 223.462 72.4348C222.325 73.0132 221.138 73.9943 219.899 75.3782C218.659 76.7621 217.399 78.745 216.119 81.3269C214.838 83.8882 213.63 87.3789 212.494 91.7991C211.378 96.2194 210.821 99.9063 210.821 102.86C210.821 105.38 211.368 107.291 212.463 108.592C213.557 109.873 214.962 110.513 216.676 110.513C218.948 110.513 220.88 109.759 222.47 108.251C225.63 105.256 228.202 100.867 230.185 95.0833C232.188 89.2792 233.19 84.1154 233.19 79.5919C233.19 76.7621 232.653 74.7172 231.579 73.4573C230.526 72.1766 229.214 71.5363 227.644 71.5363ZM266.032 69.9872L279.169 97.9957L285.087 77.6709C285.396 76.5556 285.551 75.5641 285.551 74.6966C285.551 73.6638 285.221 72.8376 284.56 72.2179C283.92 71.5983 282.804 71.2368 281.214 71.1335L281.554 69.9872H294.877L294.567 71.1335C292.874 71.2368 291.469 71.7119 290.354 72.5588C289.259 73.4056 288.329 75.1097 287.565 77.6709L277.31 112.465H276.132L259.278 76.6485L251.129 104.564C250.861 105.535 250.727 106.402 250.727 107.167C250.727 108.282 251.088 109.181 251.811 109.862C252.554 110.523 253.732 110.854 255.343 110.854L255.064 112H241.37L241.649 110.854C242.826 110.854 243.662 110.75 244.158 110.544C245.026 110.213 245.873 109.583 246.699 108.654C247.525 107.704 248.196 106.34 248.713 104.564L257.605 74.0459C256.51 72.8273 255.591 72.0424 254.847 71.6912C254.104 71.3401 252.988 71.1542 251.501 71.1335L251.842 69.9872H266.032Z" fill="white" fill-opacity="0.75"/>
</svg>
