<svg width="375" height="140" viewBox="0 0 375 140" fill="none" xmlns="http://www.w3.org/2000/svg">
<path d="M113.849 66.4448C113.571 64.3005 113.352 62.3745 113.193 60.667C113.035 58.9197 112.955 57.3908 112.955 56.0804C112.955 48.1383 115.417 41.5464 120.341 36.3046C125.265 31.0231 131.083 28.3823 137.794 28.3823C142.083 28.3823 145.518 29.5935 148.099 32.0158C150.72 34.4382 152.03 37.3371 152.03 40.7124C152.03 44.9615 150.759 48.6148 148.218 51.6725C144.446 56.279 138.41 60.3493 130.11 63.8835C132.771 72.4213 134.597 77.941 135.59 80.4428C136.583 82.9445 137.913 85.6647 139.581 88.6033C141.844 86.1015 143.473 83.6792 144.465 81.3363C145.458 78.9536 145.955 77.0078 145.955 75.4988C145.955 74.2281 145.577 73.1162 144.823 72.1631C144.068 71.2101 142.837 70.5152 141.13 70.0783L141.844 67.934H164.718L163.824 70.0783C161.68 70.5946 159.873 71.4682 158.404 72.6992C156.934 73.9303 154.214 77.2064 150.243 82.5276C147.424 86.3398 144.624 89.6953 141.844 92.5942C145.021 97.0021 147.92 100.04 150.541 101.708C152.209 102.82 154.115 103.376 156.259 103.376C157.49 103.376 158.563 103.177 159.476 102.78C160.389 102.383 161.501 101.628 162.812 100.516H164.718C162.812 104.607 160.29 107.684 157.153 109.749C154.016 111.814 150.462 112.847 146.491 112.847C143.155 112.847 140.157 112.191 137.496 110.881C134.836 109.531 132.016 107.267 129.038 104.09C124.948 106.989 120.818 109.173 116.648 110.643C112.518 112.112 108.349 112.847 104.139 112.847C98.024 112.847 93.1594 111.139 89.5458 107.724C85.9321 104.309 84.1253 100.298 84.1253 95.6916C84.1253 92.0382 84.8996 88.782 86.4484 85.9228C87.9971 83.0637 90.9356 80.006 95.2641 76.7497C99.5925 73.4934 105.787 70.0585 113.849 66.4448ZM129.038 59.4161C132.334 57.0732 134.736 54.6707 136.245 52.2086C138.35 48.8332 139.402 45.2394 139.402 41.4272C139.402 38.5681 138.807 36.3641 137.615 34.8154C136.662 33.6638 135.451 33.088 133.982 33.088C132.195 33.088 130.785 33.8028 129.753 35.2324C128.244 37.3768 127.489 40.6926 127.489 45.1799C127.489 47.2051 127.608 49.409 127.847 51.7917C128.125 54.1346 128.522 56.6761 129.038 59.4161ZM114.742 70.9123C110.175 73.414 106.899 76.0151 104.914 78.7154C102.968 81.376 101.995 84.5727 101.995 88.3055C101.995 92.8722 103.405 96.7241 106.224 99.8612C109.083 102.959 112.26 104.507 115.755 104.507C117.264 104.507 118.932 104.17 120.758 103.495C122.585 102.82 124.57 101.827 126.715 100.516C124.292 96.8631 121.95 92.2567 119.686 86.6972C117.462 81.1377 115.814 75.8761 114.742 70.9123Z" fill="black"/>
<path d="M122.162 61.5L119.525 70.5C121.318 70.4766 122.484 70.4062 123.023 70.2891C123.902 70.1133 124.699 69.7441 125.414 69.1816C126.129 68.6074 126.727 67.8164 127.207 66.8086H127.893L125.168 76.2129H124.465C124.582 75.6035 124.641 75.1172 124.641 74.7539C124.641 74.0273 124.488 73.4473 124.184 73.0137C123.891 72.5801 123.51 72.2871 123.041 72.1348C122.572 71.9707 121.283 71.8652 119.174 71.8184L117.029 79.2539L116.607 80.748C116.549 81.041 116.52 81.3281 116.52 81.6094C116.52 82.0195 116.596 82.3418 116.748 82.5762C116.912 82.8105 117.17 82.998 117.521 83.1387C117.873 83.2676 118.541 83.3379 119.525 83.3496L119.332 84H107.432L107.625 83.3496C108.773 83.3496 109.611 83.1387 110.139 82.7168C110.666 82.2832 111.141 81.3457 111.562 79.9043L115.816 65.3145C116.262 63.7793 116.496 62.7949 116.52 62.3613C116.496 61.9512 116.309 61.6055 115.957 61.3242C115.605 61.0312 114.885 60.8613 113.795 60.8145L113.971 60.1641H133.447L131.848 66.457H131.197C131.127 65.1445 130.922 64.1719 130.582 63.5391C130.242 62.8945 129.68 62.3965 128.895 62.0449C128.121 61.6816 126.879 61.5 125.168 61.5H122.162ZM152.484 60.1641H160.553L160.395 60.8145C159.469 60.8848 158.754 61.1074 158.25 61.4824C157.441 62.0801 156.838 63.0645 156.439 64.4355L153.275 75.3691C152.291 78.7793 150.955 81.1641 149.268 82.5234C147.58 83.8711 145.436 84.5449 142.834 84.5449C141.357 84.5449 140.057 84.334 138.932 83.9121C137.807 83.4902 136.98 83.0156 136.453 82.4883C135.926 81.9609 135.521 81.3105 135.24 80.5371C134.959 79.752 134.818 79.0957 134.818 78.5684C134.818 77.7363 135.053 76.5059 135.521 74.877L138.545 64.4355C138.814 63.498 138.949 62.8008 138.949 62.3438C138.949 61.8984 138.779 61.5527 138.439 61.3066C138.111 61.0605 137.338 60.8965 136.119 60.8145L136.312 60.1641H148.195L147.984 60.8145C146.836 60.8145 145.957 61.0605 145.348 61.5527C144.75 62.0449 144.246 63.0059 143.836 64.4355L140.795 74.877C140.291 76.623 140.039 78.0234 140.039 79.0781C140.039 80.0391 140.426 80.877 141.199 81.5918C141.973 82.3066 143.051 82.6641 144.434 82.6641C145.699 82.6641 146.771 82.4355 147.65 81.9785C148.541 81.5098 149.279 80.8594 149.865 80.0273C150.639 78.9141 151.33 77.3203 151.939 75.2461L155.051 64.4355C155.227 63.8145 155.314 63.2988 155.314 62.8887C155.314 62.1621 155.057 61.6055 154.541 61.2188C154.178 60.9492 153.428 60.8145 152.291 60.8145L152.484 60.1641ZM167.795 72.3633L165.686 79.5879C165.381 80.6074 165.229 81.3574 165.229 81.8379C165.229 82.2832 165.41 82.6406 165.773 82.9102C166.137 83.1797 166.893 83.3262 168.041 83.3496L167.795 84H156.316L156.527 83.3496C157.676 83.3496 158.514 83.127 159.041 82.6816C159.58 82.2363 160.072 81.2402 160.518 79.6934L164.947 64.4004C165.193 63.5449 165.316 62.8711 165.316 62.3789C165.316 61.9102 165.164 61.5527 164.859 61.3066C164.555 61.0605 163.846 60.8965 162.732 60.8145L162.908 60.1641H172.787C175.611 60.1641 177.598 60.6562 178.746 61.6406C179.895 62.625 180.469 63.8906 180.469 65.4375C180.469 67.0664 179.801 68.5371 178.465 69.8496C177.621 70.6699 176.127 71.3789 173.982 71.9766L176.127 79.2012C176.701 81.1348 177.199 82.3008 177.621 82.6992C178.055 83.0977 178.77 83.3145 179.766 83.3496V84H172.348L168.973 72.3633L168.393 72.3984C168.264 72.3984 168.064 72.3867 167.795 72.3633ZM168.041 71.3086C168.451 71.332 168.797 71.3438 169.078 71.3438C170.789 71.3438 172.195 70.7578 173.297 69.5859C174.398 68.4141 174.949 66.8789 174.949 64.9805C174.949 63.8555 174.656 63 174.07 62.4141C173.484 61.8281 172.711 61.5352 171.75 61.5352C171.516 61.5352 171.24 61.541 170.924 61.5527L168.041 71.3086ZM186.445 60.8145L186.639 60.1641H198.275L198.047 60.8145C196.992 60.8145 196.184 61.0488 195.621 61.5176C195.07 61.9863 194.584 62.9648 194.162 64.4531L189.803 79.7109C189.486 80.7891 189.328 81.5098 189.328 81.873C189.328 82.2949 189.492 82.623 189.82 82.8574C190.242 83.1621 191.039 83.3262 192.211 83.3496L192.035 84H180.205L180.398 83.3496C181.582 83.3496 182.449 83.127 183 82.6816C183.551 82.2246 184.049 81.2344 184.494 79.7109L188.889 64.4531C189.158 63.5156 189.293 62.8066 189.293 62.3262C189.293 61.8926 189.129 61.5527 188.801 61.3066C188.473 61.0605 187.688 60.8965 186.445 60.8145ZM205.623 84.5625C203.701 84.5625 202.148 84.1699 200.965 83.3848C199.781 82.5996 198.891 81.5273 198.293 80.168C197.707 78.8086 197.414 77.4844 197.414 76.1953C197.414 73.5938 198.158 70.9746 199.646 68.3379C201.135 65.6895 203.139 63.5742 205.658 61.9922C208.189 60.3984 210.686 59.6016 213.146 59.6016C214.588 59.6016 215.953 59.9648 217.242 60.6914C218.543 61.418 219.551 62.4316 220.266 63.7324C220.992 65.0332 221.355 66.3457 221.355 67.6699C221.355 70.6348 220.412 73.6113 218.525 76.5996C216.639 79.5762 214.518 81.7324 212.162 83.0684C210.381 84.0645 208.201 84.5625 205.623 84.5625ZM212.566 61.043C211.641 61.043 210.85 61.2129 210.193 61.5527C209.549 61.8809 208.875 62.4375 208.172 63.2227C207.469 64.0078 206.754 65.1328 206.027 66.5977C205.301 68.0508 204.615 70.0312 203.971 72.5391C203.338 75.0469 203.021 77.1387 203.021 78.8145C203.021 80.2441 203.332 81.3281 203.953 82.0664C204.574 82.793 205.371 83.1562 206.344 83.1562C207.633 83.1562 208.729 82.7285 209.631 81.873C211.424 80.1738 212.883 77.6836 214.008 74.4023C215.145 71.1094 215.713 68.1797 215.713 65.6133C215.713 64.0078 215.408 62.8477 214.799 62.1328C214.201 61.4062 213.457 61.043 212.566 61.043ZM242.52 59.6191L240.533 67.7051H239.953C239.824 66.4395 239.596 65.4258 239.268 64.6641C238.775 63.5625 238.119 62.7129 237.299 62.1152C236.49 61.5176 235.611 61.2188 234.662 61.2188C233.748 61.2188 232.945 61.5703 232.254 62.2734C231.574 62.9648 231.234 63.75 231.234 64.6289C231.234 65.4961 231.469 66.3516 231.938 67.1953C232.418 68.0273 233.543 69.2871 235.312 70.9746C236.73 72.3223 237.68 73.4824 238.16 74.4551C238.652 75.4277 238.898 76.4824 238.898 77.6191C238.898 78.8965 238.559 80.0742 237.879 81.1523C237.199 82.2305 236.209 83.0684 234.908 83.666C233.619 84.252 232.154 84.5449 230.514 84.5449C229.506 84.5449 228.234 84.3926 226.699 84.0879C225.176 83.7949 224.162 83.6484 223.658 83.6484C223.26 83.6484 222.902 83.7129 222.586 83.8418C222.27 83.959 221.877 84.1934 221.408 84.5449H220.723L222.85 75.457H223.518C223.67 77.0508 223.992 78.4102 224.484 79.5352C224.977 80.6484 225.68 81.5215 226.594 82.1543C227.508 82.7754 228.551 83.0859 229.723 83.0859C230.883 83.0859 231.85 82.7051 232.623 81.9434C233.408 81.1699 233.801 80.2676 233.801 79.2363C233.801 78.3574 233.578 77.5137 233.133 76.7051C232.699 75.8965 231.697 74.7188 230.127 73.1719C228.568 71.625 227.49 70.2422 226.893 69.0234C226.459 68.1211 226.242 67.1602 226.242 66.1406C226.242 64.3711 226.939 62.8418 228.334 61.5527C229.729 60.2637 231.551 59.6191 233.801 59.6191C234.82 59.6191 236.162 59.8477 237.826 60.3047C238.799 60.5742 239.484 60.709 239.883 60.709C240.223 60.709 240.527 60.6387 240.797 60.498C241.066 60.3457 241.383 60.0527 241.746 59.6191H242.52ZM251.678 84.5625C249.756 84.5625 248.203 84.1699 247.02 83.3848C245.836 82.5996 244.945 81.5273 244.348 80.168C243.762 78.8086 243.469 77.4844 243.469 76.1953C243.469 73.5938 244.213 70.9746 245.701 68.3379C247.189 65.6895 249.193 63.5742 251.713 61.9922C254.244 60.3984 256.74 59.6016 259.201 59.6016C260.643 59.6016 262.008 59.9648 263.297 60.6914C264.598 61.418 265.605 62.4316 266.32 63.7324C267.047 65.0332 267.41 66.3457 267.41 67.6699C267.41 70.6348 266.467 73.6113 264.58 76.5996C262.693 79.5762 260.572 81.7324 258.217 83.0684C256.436 84.0645 254.256 84.5625 251.678 84.5625ZM258.621 61.043C257.695 61.043 256.904 61.2129 256.248 61.5527C255.604 61.8809 254.93 62.4375 254.227 63.2227C253.523 64.0078 252.809 65.1328 252.082 66.5977C251.355 68.0508 250.67 70.0312 250.025 72.5391C249.393 75.0469 249.076 77.1387 249.076 78.8145C249.076 80.2441 249.387 81.3281 250.008 82.0664C250.629 82.793 251.426 83.1562 252.398 83.1562C253.688 83.1562 254.783 82.7285 255.686 81.873C257.479 80.1738 258.938 77.6836 260.062 74.4023C261.199 71.1094 261.768 68.1797 261.768 65.6133C261.768 64.0078 261.463 62.8477 260.854 62.1328C260.256 61.4062 259.512 61.043 258.621 61.043Z" fill="white" fill-opacity="0.75"/>
</svg>
