<svg width="261" height="144" viewBox="0 0 261 144" fill="none" xmlns="http://www.w3.org/2000/svg">
<path d="M47.8125 15.6562L44.875 29.25H43.6875C43.5208 25.2917 42.625 22.4479 41 20.7188C39.3958 18.9688 37.1354 18.0938 34.2188 18.0938C31.2188 18.0938 28.2188 19.1562 25.2188 21.2812C22.2188 23.3854 19.6562 26.6458 17.5312 31.0625C15.4271 35.4583 14.375 40.0833 14.375 44.9375C14.375 49.1042 15.3125 52.2917 17.1875 54.5C19.0625 56.6875 21.2604 57.7812 23.7812 57.7812C24.8438 57.7812 26.1354 57.4792 27.6562 56.875L30.9062 45.6875C31.4479 43.8125 31.7188 42.5833 31.7188 42C31.7188 41.2292 31.3854 40.5833 30.7188 40.0625C30.0729 39.5208 28.9479 39.25 27.3438 39.25L27.6562 38.0625H45.9375L45.6562 39.25C44.5729 39.3125 43.7188 39.5208 43.0938 39.875C42.4896 40.2083 42.0104 40.7083 41.6562 41.375C41.4479 41.7708 41.125 42.7917 40.6875 44.4375L36.8438 57.4688C32.4688 59.1354 27.8646 59.9688 23.0312 59.9688C19.3021 59.9688 16.125 59.2917 13.5 57.9375C10.8958 56.5833 8.72917 54.4375 7 51.5C5.29167 48.5625 4.4375 45.2188 4.4375 41.4688C4.4375 33.4688 7.98958 26.875 15.0938 21.6875C20.6562 17.6667 26.9688 15.6562 34.0312 15.6562C35.2604 15.6562 36.3958 15.7188 37.4375 15.8438C38.2083 15.9479 39.5625 16.2396 41.5 16.7188C42.75 17.0312 43.6042 17.1875 44.0625 17.1875C44.9792 17.1875 45.8438 16.6771 46.6562 15.6562H47.8125ZM55.0938 17.7812L55.4375 16.625H76.125L75.7188 17.7812C73.8438 17.7812 72.4062 18.1979 71.4062 19.0312C70.4271 19.8646 69.5625 21.6042 68.8125 24.25L61.0625 51.375C60.5 53.2917 60.2188 54.5729 60.2188 55.2188C60.2188 55.9688 60.5104 56.5521 61.0938 56.9688C61.8438 57.5104 63.2604 57.8021 65.3438 57.8438L65.0312 59H44L44.3438 57.8438C46.4479 57.8438 47.9896 57.4479 48.9688 56.6562C49.9479 55.8438 50.8333 54.0833 51.625 51.375L59.4375 24.25C59.9167 22.5833 60.1562 21.3229 60.1562 20.4688C60.1562 19.6979 59.8646 19.0938 59.2812 18.6562C58.6979 18.2188 57.3021 17.9271 55.0938 17.7812ZM108.594 16.625H122.938L122.656 17.7812C121.01 17.9062 119.74 18.3021 118.844 18.9688C117.406 20.0312 116.333 21.7812 115.625 24.2188L110 43.6562C108.25 49.7188 105.875 53.9583 102.875 56.375C99.875 58.7708 96.0625 59.9688 91.4375 59.9688C88.8125 59.9688 86.5 59.5938 84.5 58.8438C82.5 58.0938 81.0312 57.25 80.0938 56.3125C79.1562 55.375 78.4375 54.2188 77.9375 52.8438C77.4375 51.4479 77.1875 50.2812 77.1875 49.3438C77.1875 47.8646 77.6042 45.6771 78.4375 42.7812L83.8125 24.2188C84.2917 22.5521 84.5312 21.3125 84.5312 20.5C84.5312 19.7083 84.2292 19.0938 83.625 18.6562C83.0417 18.2188 81.6667 17.9271 79.5 17.7812L79.8438 16.625H100.969L100.594 17.7812C98.5521 17.7812 96.9896 18.2188 95.9062 19.0938C94.8438 19.9688 93.9479 21.6771 93.2188 24.2188L87.8125 42.7812C86.9167 45.8854 86.4688 48.375 86.4688 50.25C86.4688 51.9583 87.1562 53.4479 88.5312 54.7188C89.9062 55.9896 91.8229 56.625 94.2812 56.625C96.5312 56.625 98.4375 56.2188 100 55.4062C101.583 54.5729 102.896 53.4167 103.938 51.9375C105.312 49.9583 106.542 47.125 107.625 43.4375L113.156 24.2188C113.469 23.1146 113.625 22.1979 113.625 21.4688C113.625 20.1771 113.167 19.1875 112.25 18.5C111.604 18.0208 110.271 17.7812 108.25 17.7812L108.594 16.625ZM149.219 59H115.375L115.719 57.8438C117.74 57.8438 119.208 57.4583 120.125 56.6875C121.062 55.8958 121.927 54.1354 122.719 51.4062L130.594 24.1875C131.031 22.6875 131.25 21.5104 131.25 20.6562C131.25 19.8229 130.938 19.1562 130.312 18.6562C129.688 18.1562 128.458 17.8646 126.625 17.7812L126.969 16.625H147.312L146.969 17.7812C145.01 17.8229 143.542 18.2604 142.562 19.0938C141.604 19.9271 140.75 21.625 140 24.1875L132.812 49.0938C131.896 52.2604 131.438 54.1875 131.438 54.875C131.438 55.2917 131.667 55.6875 132.125 56.0625C132.604 56.4167 133.365 56.5938 134.406 56.5938C137.865 56.5938 141.198 55.8021 144.406 54.2188C147.635 52.6354 150.365 50.2708 152.594 47.125H153.906L149.219 59ZM165.406 17.7812L165.75 16.625H186.438L186.031 17.7812C184.156 17.7812 182.719 18.1979 181.719 19.0312C180.74 19.8646 179.875 21.6042 179.125 24.25L171.375 51.375C170.812 53.2917 170.531 54.5729 170.531 55.2188C170.531 55.9688 170.823 56.5521 171.406 56.9688C172.156 57.5104 173.573 57.8021 175.656 57.8438L175.344 59H154.312L154.656 57.8438C156.76 57.8438 158.302 57.4479 159.281 56.6562C160.26 55.8438 161.146 54.0833 161.938 51.375L169.75 24.25C170.229 22.5833 170.469 21.3229 170.469 20.4688C170.469 19.6979 170.177 19.0938 169.594 18.6562C169.01 18.2188 167.615 17.9271 165.406 17.7812ZM199.5 60C196.083 60 193.323 59.3021 191.219 57.9062C189.115 56.5104 187.531 54.6042 186.469 52.1875C185.427 49.7708 184.906 47.4167 184.906 45.125C184.906 40.5 186.229 35.8438 188.875 31.1562C191.521 26.4479 195.083 22.6875 199.562 19.875C204.062 17.0417 208.5 15.625 212.875 15.625C215.438 15.625 217.865 16.2708 220.156 17.5625C222.469 18.8542 224.26 20.6562 225.531 22.9688C226.823 25.2812 227.469 27.6146 227.469 29.9688C227.469 35.2396 225.792 40.5312 222.438 45.8438C219.083 51.1354 215.312 54.9688 211.125 57.3438C207.958 59.1146 204.083 60 199.5 60ZM211.844 18.1875C210.198 18.1875 208.792 18.4896 207.625 19.0938C206.479 19.6771 205.281 20.6667 204.031 22.0625C202.781 23.4583 201.51 25.4583 200.219 28.0625C198.927 30.6458 197.708 34.1667 196.562 38.625C195.438 43.0833 194.875 46.8021 194.875 49.7812C194.875 52.3229 195.427 54.25 196.531 55.5625C197.635 56.8542 199.052 57.5 200.781 57.5C203.073 57.5 205.021 56.7396 206.625 55.2188C209.812 52.1979 212.406 47.7708 214.406 41.9375C216.427 36.0833 217.438 30.875 217.438 26.3125C217.438 23.4583 216.896 21.3958 215.812 20.125C214.75 18.8333 213.427 18.1875 211.844 18.1875Z" fill="white" fill-opacity="0.75"/>
<path d="M94.7656 63.1641H113.943L112.133 69.5801H111.5C111.523 69.2402 111.535 68.9414 111.535 68.6836C111.535 67.4648 111.178 66.5215 110.463 65.8535C109.748 65.1738 108.541 64.7871 106.842 64.6934L101.533 82.6406C101.24 83.6367 101.094 84.375 101.094 84.8555C101.094 85.3008 101.275 85.6582 101.639 85.9277C102.002 86.1855 102.74 86.3262 103.854 86.3496L103.695 87H91.8652L92.0762 86.3496C93.2832 86.3496 94.1621 86.127 94.7129 85.6816C95.2637 85.2246 95.7676 84.2109 96.2246 82.6406L101.533 64.6934C99.7051 64.752 98.1758 65.1504 96.9453 65.8887C95.7148 66.627 94.5898 67.8574 93.5703 69.5801H92.8848L94.7656 63.1641ZM132.049 63.1641H140.117L139.959 63.8145C139.033 63.8848 138.318 64.1074 137.814 64.4824C137.006 65.0801 136.402 66.0645 136.004 67.4355L132.84 78.3691C131.855 81.7793 130.52 84.1641 128.832 85.5234C127.145 86.8711 125 87.5449 122.398 87.5449C120.922 87.5449 119.621 87.334 118.496 86.9121C117.371 86.4902 116.545 86.0156 116.018 85.4883C115.49 84.9609 115.086 84.3105 114.805 83.5371C114.523 82.752 114.383 82.0957 114.383 81.5684C114.383 80.7363 114.617 79.5059 115.086 77.877L118.109 67.4355C118.379 66.498 118.514 65.8008 118.514 65.3438C118.514 64.8984 118.344 64.5527 118.004 64.3066C117.676 64.0605 116.902 63.8965 115.684 63.8145L115.877 63.1641H127.76L127.549 63.8145C126.4 63.8145 125.521 64.0605 124.912 64.5527C124.314 65.0449 123.811 66.0059 123.4 67.4355L120.359 77.877C119.855 79.623 119.604 81.0234 119.604 82.0781C119.604 83.0391 119.99 83.877 120.764 84.5918C121.537 85.3066 122.615 85.6641 123.998 85.6641C125.264 85.6641 126.336 85.4355 127.215 84.9785C128.105 84.5098 128.844 83.8594 129.43 83.0273C130.203 81.9141 130.895 80.3203 131.504 78.2461L134.615 67.4355C134.791 66.8145 134.879 66.2988 134.879 65.8887C134.879 65.1621 134.621 64.6055 134.105 64.2188C133.742 63.9492 132.992 63.8145 131.855 63.8145L132.049 63.1641ZM147.359 75.3633L145.25 82.5879C144.945 83.6074 144.793 84.3574 144.793 84.8379C144.793 85.2832 144.975 85.6406 145.338 85.9102C145.701 86.1797 146.457 86.3262 147.605 86.3496L147.359 87H135.881L136.092 86.3496C137.24 86.3496 138.078 86.127 138.605 85.6816C139.145 85.2363 139.637 84.2402 140.082 82.6934L144.512 67.4004C144.758 66.5449 144.881 65.8711 144.881 65.3789C144.881 64.9102 144.729 64.5527 144.424 64.3066C144.119 64.0605 143.41 63.8965 142.297 63.8145L142.473 63.1641H152.352C155.176 63.1641 157.162 63.6562 158.311 64.6406C159.459 65.625 160.033 66.8906 160.033 68.4375C160.033 70.0664 159.365 71.5371 158.029 72.8496C157.186 73.6699 155.691 74.3789 153.547 74.9766L155.691 82.2012C156.266 84.1348 156.764 85.3008 157.186 85.6992C157.619 86.0977 158.334 86.3145 159.33 86.3496V87H151.912L148.537 75.3633L147.957 75.3984C147.828 75.3984 147.629 75.3867 147.359 75.3633ZM147.605 74.3086C148.016 74.332 148.361 74.3438 148.643 74.3438C150.354 74.3438 151.76 73.7578 152.861 72.5859C153.963 71.4141 154.514 69.8789 154.514 67.9805C154.514 66.8555 154.221 66 153.635 65.4141C153.049 64.8281 152.275 64.5352 151.314 64.5352C151.08 64.5352 150.805 64.541 150.488 64.5527L147.605 74.3086ZM186.98 62.6191L185.223 70.1953H184.537C184.455 68.1328 183.945 66.5977 183.008 65.5898C182.082 64.5703 180.869 64.0605 179.369 64.0605C177.752 64.0605 176.141 64.752 174.535 66.1348C172.93 67.5176 171.57 69.6328 170.457 72.4805C169.555 74.7891 169.104 77.0684 169.104 79.3184C169.104 81.334 169.596 82.875 170.58 83.9414C171.576 84.9961 172.936 85.5234 174.658 85.5234C176.053 85.5234 177.324 85.2188 178.473 84.6094C179.621 84 180.781 83.0098 181.953 81.6387H182.797C181.344 83.8184 179.873 85.3477 178.385 86.2266C176.908 87.1055 175.098 87.5449 172.953 87.5449C170.082 87.5449 167.768 86.6777 166.01 84.9434C164.264 83.1973 163.391 80.9238 163.391 78.123C163.391 75.498 164.088 72.9961 165.482 70.6172C166.877 68.2266 168.881 66.2988 171.494 64.834C174.119 63.3574 176.727 62.6191 179.316 62.6191C180.301 62.6191 181.525 62.8301 182.99 63.252C183.74 63.4629 184.262 63.5684 184.555 63.5684C185.141 63.5684 185.732 63.252 186.33 62.6191H186.98ZM199.637 79.3184H192.254L190.777 81.1465L189.09 83.168C188.762 83.6016 188.521 83.9941 188.369 84.3457C188.252 84.6152 188.193 84.8848 188.193 85.1543C188.193 85.4355 188.34 85.6992 188.633 85.9453C188.938 86.1797 189.436 86.3145 190.127 86.3496V87H183.008L183.184 86.3496C183.816 86.2441 184.379 86.0215 184.871 85.6816C185.527 85.2129 186.471 84.2461 187.701 82.7812L204.594 62.6191H205.385L204.594 82.1309C204.559 83.1504 204.541 83.7656 204.541 83.9766C204.541 84.7734 204.699 85.3535 205.016 85.7168C205.344 86.0801 205.883 86.291 206.633 86.3496L206.457 87H196.139L196.332 86.3496C197.352 86.2559 197.938 86.1738 198.09 86.1035C198.418 85.9395 198.717 85.5996 198.986 85.084C199.256 84.5566 199.42 83.6484 199.479 82.3594L199.637 79.3184ZM199.637 77.877L200.094 70.1074L193.467 77.877H199.637ZM212.82 63.1641H231.998L230.188 69.5801H229.555C229.578 69.2402 229.59 68.9414 229.59 68.6836C229.59 67.4648 229.232 66.5215 228.518 65.8535C227.803 65.1738 226.596 64.7871 224.896 64.6934L219.588 82.6406C219.295 83.6367 219.148 84.375 219.148 84.8555C219.148 85.3008 219.33 85.6582 219.693 85.9277C220.057 86.1855 220.795 86.3262 221.908 86.3496L221.75 87H209.92L210.131 86.3496C211.338 86.3496 212.217 86.127 212.768 85.6816C213.318 85.2246 213.822 84.2109 214.279 82.6406L219.588 64.6934C217.76 64.752 216.23 65.1504 215 65.8887C213.77 66.627 212.645 67.8574 211.625 69.5801H210.939L212.82 63.1641ZM238.52 87.5625C236.598 87.5625 235.045 87.1699 233.861 86.3848C232.678 85.5996 231.787 84.5273 231.189 83.168C230.604 81.8086 230.311 80.4844 230.311 79.1953C230.311 76.5938 231.055 73.9746 232.543 71.3379C234.031 68.6895 236.035 66.5742 238.555 64.9922C241.086 63.3984 243.582 62.6016 246.043 62.6016C247.484 62.6016 248.85 62.9648 250.139 63.6914C251.439 64.418 252.447 65.4316 253.162 66.7324C253.889 68.0332 254.252 69.3457 254.252 70.6699C254.252 73.6348 253.309 76.6113 251.422 79.5996C249.535 82.5762 247.414 84.7324 245.059 86.0684C243.277 87.0645 241.098 87.5625 238.52 87.5625ZM245.463 64.043C244.537 64.043 243.746 64.2129 243.09 64.5527C242.445 64.8809 241.771 65.4375 241.068 66.2227C240.365 67.0078 239.65 68.1328 238.924 69.5977C238.197 71.0508 237.512 73.0312 236.867 75.5391C236.234 78.0469 235.918 80.1387 235.918 81.8145C235.918 83.2441 236.229 84.3281 236.85 85.0664C237.471 85.793 238.268 86.1562 239.24 86.1562C240.529 86.1562 241.625 85.7285 242.527 84.873C244.32 83.1738 245.779 80.6836 246.904 77.4023C248.041 74.1094 248.609 71.1797 248.609 68.6133C248.609 67.0078 248.305 65.8477 247.695 65.1328C247.098 64.4062 246.354 64.043 245.463 64.043Z" fill="white" fill-opacity="0.75"/>
<path d="M48.4401 70.4448C48.1622 68.3005 47.9438 66.3745 47.7849 64.667C47.6261 62.9197 47.5467 61.3908 47.5467 60.0804C47.5467 52.1383 50.0087 45.5464 54.9328 40.3046C59.8569 35.0231 65.6745 32.3823 72.3856 32.3823C76.6743 32.3823 80.1093 33.5935 82.6904 36.0158C85.3113 38.4382 86.6218 41.3371 86.6218 44.7124C86.6218 48.9615 85.351 52.6148 82.8096 55.6725C79.0371 60.279 73.0011 64.3493 64.7016 67.8835C67.3622 76.4213 69.1889 81.941 70.1816 84.4428C71.1744 86.9445 72.5047 89.6647 74.1725 92.6033C76.436 90.1015 78.0642 87.6792 79.0569 85.3363C80.0497 82.9536 80.5461 81.0078 80.5461 79.4988C80.5461 78.2281 80.1688 77.1162 79.4143 76.1631C78.6598 75.2101 77.4288 74.5152 75.7212 74.0783L76.436 71.934H99.3093L98.4158 74.0783C96.2714 74.5946 94.4646 75.4682 92.9953 76.6992C91.526 77.9303 88.8058 81.2064 84.8348 86.5276C82.0154 90.3398 79.2158 93.6953 76.436 96.5942C79.6129 101.002 82.5117 104.04 85.1326 105.708C86.8005 106.82 88.7066 107.376 90.8509 107.376C92.082 107.376 93.1541 107.177 94.0675 106.78C94.9808 106.383 96.0927 105.628 97.4032 104.516H99.3093C97.4032 108.607 94.8816 111.684 91.7444 113.749C88.6073 115.814 85.0532 116.847 81.0822 116.847C77.7465 116.847 74.7483 116.191 72.0877 114.881C69.4271 113.531 66.6077 111.267 63.6294 108.09C59.5392 110.989 55.4093 113.173 51.2397 114.643C47.1098 116.112 42.9402 116.847 38.7309 116.847C32.6155 116.847 27.751 115.139 24.1373 111.724C20.5237 108.309 18.7168 104.298 18.7168 99.6916C18.7168 96.0382 19.4912 92.782 21.0399 89.9228C22.5886 87.0637 25.5272 84.006 29.8556 80.7497C34.1841 77.4934 40.3789 74.0585 48.4401 70.4448ZM63.6294 63.4161C66.9254 61.0732 69.3279 58.6707 70.8369 56.2086C72.9415 52.8332 73.9938 49.2394 73.9938 45.4272C73.9938 42.5681 73.3982 40.3641 72.2069 38.8154C71.2538 37.6638 70.0426 37.088 68.5734 37.088C66.7864 37.088 65.3767 37.8028 64.3442 39.2324C62.8352 41.3768 62.0807 44.6926 62.0807 49.1799C62.0807 51.2051 62.1998 53.409 62.4381 55.7917C62.7161 58.1346 63.1132 60.6761 63.6294 63.4161ZM49.3336 74.9123C44.7669 77.414 41.4908 80.0151 39.5053 82.7154C37.5595 85.376 36.5866 88.5727 36.5866 92.3055C36.5866 96.8722 37.9963 100.724 40.8157 103.861C43.6749 106.959 46.8517 108.507 50.3462 108.507C51.8552 108.507 53.5231 108.17 55.3498 107.495C57.1764 106.82 59.162 105.827 61.3063 104.516C58.884 100.863 56.5411 96.2567 54.2776 90.6972C52.0538 85.1377 50.4058 79.8761 49.3336 74.9123Z" fill="black"/>
</svg>
