<svg width="364" height="144" viewBox="0 0 364 144" fill="none" xmlns="http://www.w3.org/2000/svg">
<path d="M22.0312 36.125H37.5312L40.9688 24.2812C41.4271 22.6562 41.6562 21.4167 41.6562 20.5625C41.6562 19.7292 41.375 19.0938 40.8125 18.6562C40.25 18.2188 38.8958 17.9271 36.75 17.7812L37.0938 16.625H58.1562L57.8125 17.7812C55.75 17.7812 54.1875 18.2188 53.125 19.0938C52.0625 19.9688 51.1562 21.6979 50.4062 24.2812L42.5312 51.4062C42.0104 53.1771 41.75 54.4479 41.75 55.2188C41.75 55.9896 42.0312 56.5729 42.5938 56.9688C43.3229 57.5104 44.6458 57.8021 46.5625 57.8438L46.25 59H25.5938L26.0625 57.8438C28.0625 57.8438 29.5312 57.4583 30.4688 56.6875C31.4271 55.8958 32.3021 54.1354 33.0938 51.4062L36.75 38.7812H21.3125L17.6875 51.4062C17.1667 53.1354 16.9062 54.4167 16.9062 55.25C16.9062 56 17.2188 56.6146 17.8438 57.0938C18.4896 57.5521 19.75 57.8021 21.625 57.8438L21.3125 59H0.9375L1.28125 57.8438C3.28125 57.8438 4.73958 57.4583 5.65625 56.6875C6.59375 55.8958 7.45833 54.1354 8.25 51.4062L16.125 24.2812C16.5833 22.7188 16.8125 21.4896 16.8125 20.5938C16.8125 19.7396 16.5312 19.0938 15.9688 18.6562C15.4271 18.2188 14.1146 17.9271 12.0312 17.7812L12.375 16.625H33.0938L32.625 17.7812C30.7083 17.7812 29.2604 18.1979 28.2812 19.0312C27.3021 19.8438 26.4062 21.5938 25.5938 24.2812L22.0312 36.125ZM90.2188 16.625H104.562L104.281 17.7812C102.635 17.9062 101.365 18.3021 100.469 18.9688C99.0312 20.0312 97.9583 21.7812 97.25 24.2188L91.625 43.6562C89.875 49.7188 87.5 53.9583 84.5 56.375C81.5 58.7708 77.6875 59.9688 73.0625 59.9688C70.4375 59.9688 68.125 59.5938 66.125 58.8438C64.125 58.0938 62.6562 57.25 61.7188 56.3125C60.7812 55.375 60.0625 54.2188 59.5625 52.8438C59.0625 51.4479 58.8125 50.2812 58.8125 49.3438C58.8125 47.8646 59.2292 45.6771 60.0625 42.7812L65.4375 24.2188C65.9167 22.5521 66.1562 21.3125 66.1562 20.5C66.1562 19.7083 65.8542 19.0938 65.25 18.6562C64.6667 18.2188 63.2917 17.9271 61.125 17.7812L61.4688 16.625H82.5938L82.2188 17.7812C80.1771 17.7812 78.6146 18.2188 77.5312 19.0938C76.4688 19.9688 75.5729 21.6771 74.8438 24.2188L69.4375 42.7812C68.5417 45.8854 68.0938 48.375 68.0938 50.25C68.0938 51.9583 68.7812 53.4479 70.1562 54.7188C71.5312 55.9896 73.4479 56.625 75.9062 56.625C78.1562 56.625 80.0625 56.2188 81.625 55.4062C83.2083 54.5729 84.5208 53.4167 85.5625 51.9375C86.9375 49.9583 88.1667 47.125 89.25 43.4375L94.7812 24.2188C95.0938 23.1146 95.25 22.1979 95.25 21.4688C95.25 20.1771 94.7917 19.1875 93.875 18.5C93.2292 18.0208 91.8958 17.7812 89.875 17.7812L90.2188 16.625ZM146.875 15.6562L143.938 29.25H142.75C142.583 25.2917 141.688 22.4479 140.062 20.7188C138.458 18.9688 136.198 18.0938 133.281 18.0938C130.281 18.0938 127.281 19.1562 124.281 21.2812C121.281 23.3854 118.719 26.6458 116.594 31.0625C114.49 35.4583 113.438 40.0833 113.438 44.9375C113.438 49.1042 114.375 52.2917 116.25 54.5C118.125 56.6875 120.323 57.7812 122.844 57.7812C123.906 57.7812 125.198 57.4792 126.719 56.875L129.969 45.6875C130.51 43.8125 130.781 42.5833 130.781 42C130.781 41.2292 130.448 40.5833 129.781 40.0625C129.135 39.5208 128.01 39.25 126.406 39.25L126.719 38.0625H145L144.719 39.25C143.635 39.3125 142.781 39.5208 142.156 39.875C141.552 40.2083 141.073 40.7083 140.719 41.375C140.51 41.7708 140.188 42.7917 139.75 44.4375L135.906 57.4688C131.531 59.1354 126.927 59.9688 122.094 59.9688C118.365 59.9688 115.188 59.2917 112.562 57.9375C109.958 56.5833 107.792 54.4375 106.062 51.5C104.354 48.5625 103.5 45.2188 103.5 41.4688C103.5 33.4688 107.052 26.875 114.156 21.6875C119.719 17.6667 126.031 15.6562 133.094 15.6562C134.323 15.6562 135.458 15.7188 136.5 15.8438C137.271 15.9479 138.625 16.2396 140.562 16.7188C141.812 17.0312 142.667 17.1875 143.125 17.1875C144.042 17.1875 144.906 16.6771 145.719 15.6562H146.875ZM182.719 16.625H197.062L196.781 17.7812C195.135 17.9062 193.865 18.3021 192.969 18.9688C191.531 20.0312 190.458 21.7812 189.75 24.2188L184.125 43.6562C182.375 49.7188 180 53.9583 177 56.375C174 58.7708 170.188 59.9688 165.562 59.9688C162.938 59.9688 160.625 59.5938 158.625 58.8438C156.625 58.0938 155.156 57.25 154.219 56.3125C153.281 55.375 152.562 54.2188 152.062 52.8438C151.562 51.4479 151.312 50.2812 151.312 49.3438C151.312 47.8646 151.729 45.6771 152.562 42.7812L157.938 24.2188C158.417 22.5521 158.656 21.3125 158.656 20.5C158.656 19.7083 158.354 19.0938 157.75 18.6562C157.167 18.2188 155.792 17.9271 153.625 17.7812L153.969 16.625H175.094L174.719 17.7812C172.677 17.7812 171.115 18.2188 170.031 19.0938C168.969 19.9688 168.073 21.6771 167.344 24.2188L161.938 42.7812C161.042 45.8854 160.594 48.375 160.594 50.25C160.594 51.9583 161.281 53.4479 162.656 54.7188C164.031 55.9896 165.948 56.625 168.406 56.625C170.656 56.625 172.562 56.2188 174.125 55.4062C175.708 54.5729 177.021 53.4167 178.062 51.9375C179.438 49.9583 180.667 47.125 181.75 43.4375L187.281 24.2188C187.594 23.1146 187.75 22.1979 187.75 21.4688C187.75 20.1771 187.292 19.1875 186.375 18.5C185.729 18.0208 184.396 17.7812 182.375 17.7812L182.719 16.625ZM215.75 18.9688L211.031 35.4062H212.469C216.26 35.4062 219.021 34.9062 220.75 33.9062C222.5 32.9062 223.979 31.1354 225.188 28.5938H226.344L221.594 45.0938H220.5C220.688 43.9896 220.781 43.0938 220.781 42.4062C220.781 41.2604 220.438 40.3229 219.75 39.5938C219.083 38.8646 218.208 38.3438 217.125 38.0312C216.417 37.8229 214.948 37.7188 212.719 37.7188H210.281L206.219 51.9375C205.865 53.1875 205.688 54.1146 205.688 54.7188C205.688 55.1979 205.917 55.5833 206.375 55.875C207.042 56.2917 208.302 56.5 210.156 56.5C213.719 56.5 217.073 55.75 220.219 54.25C223.365 52.7292 226.188 50.4375 228.688 47.375H229.969L225.562 59H189.312L189.688 57.8438C191.812 57.8438 193.365 57.4479 194.344 56.6562C195.323 55.8438 196.208 54.0729 197 51.3438L204.969 24.0625C205.406 22.5417 205.625 21.3438 205.625 20.4688C205.625 19.6771 205.344 19.0729 204.781 18.6562C204.219 18.2188 202.938 17.9271 200.938 17.7812L201.281 16.625H235.062L232.344 27.2188H231.219C231.135 25.1354 230.812 23.6667 230.25 22.8125C229.375 21.4792 228.208 20.5104 226.75 19.9062C225.312 19.2812 222.969 18.9688 219.719 18.9688H215.75ZM244.5 16.625H278.594L275.375 28.0312H274.25C274.292 27.4271 274.312 26.8958 274.312 26.4375C274.312 24.2708 273.677 22.5938 272.406 21.4062C271.135 20.1979 268.99 19.5104 265.969 19.3438L256.531 51.25C256.01 53.0208 255.75 54.3333 255.75 55.1875C255.75 55.9792 256.073 56.6146 256.719 57.0938C257.365 57.5521 258.677 57.8021 260.656 57.8438L260.375 59H239.344L239.719 57.8438C241.865 57.8438 243.427 57.4479 244.406 56.6562C245.385 55.8438 246.281 54.0417 247.094 51.25L256.531 19.3438C253.281 19.4479 250.562 20.1562 248.375 21.4688C246.188 22.7812 244.188 24.9688 242.375 28.0312H241.156L244.5 16.625ZM283.625 16.625H317.719L314.5 28.0312H313.375C313.417 27.4271 313.438 26.8958 313.438 26.4375C313.438 24.2708 312.802 22.5938 311.531 21.4062C310.26 20.1979 308.115 19.5104 305.094 19.3438L295.656 51.25C295.135 53.0208 294.875 54.3333 294.875 55.1875C294.875 55.9792 295.198 56.6146 295.844 57.0938C296.49 57.5521 297.802 57.8021 299.781 57.8438L299.5 59H278.469L278.844 57.8438C280.99 57.8438 282.552 57.4479 283.531 56.6562C284.51 55.8438 285.406 54.0417 286.219 51.25L295.656 19.3438C292.406 19.4479 289.688 20.1562 287.5 21.4688C285.312 22.7812 283.312 24.9688 281.5 28.0312H280.281L283.625 16.625ZM336.688 18.9688L331.969 35.4062H333.406C337.198 35.4062 339.958 34.9062 341.688 33.9062C343.438 32.9062 344.917 31.1354 346.125 28.5938H347.281L342.531 45.0938H341.438C341.625 43.9896 341.719 43.0938 341.719 42.4062C341.719 41.2604 341.375 40.3229 340.688 39.5938C340.021 38.8646 339.146 38.3438 338.062 38.0312C337.354 37.8229 335.885 37.7188 333.656 37.7188H331.219L327.156 51.9375C326.802 53.1875 326.625 54.1146 326.625 54.7188C326.625 55.1979 326.854 55.5833 327.312 55.875C327.979 56.2917 329.24 56.5 331.094 56.5C334.656 56.5 338.01 55.75 341.156 54.25C344.302 52.7292 347.125 50.4375 349.625 47.375H350.906L346.5 59H310.25L310.625 57.8438C312.75 57.8438 314.302 57.4479 315.281 56.6562C316.26 55.8438 317.146 54.0729 317.938 51.3438L325.906 24.0625C326.344 22.5417 326.562 21.3438 326.562 20.4688C326.562 19.6771 326.281 19.0729 325.719 18.6562C325.156 18.2188 323.875 17.9271 321.875 17.7812L322.219 16.625H356L353.281 27.2188H352.156C352.073 25.1354 351.75 23.6667 351.188 22.8125C350.312 21.4792 349.146 20.5104 347.688 19.9062C346.25 19.2812 343.906 18.9688 340.656 18.9688H336.688Z" fill="white" fill-opacity="0.75"/>
<path d="M109.59 76.3184H102.207L100.73 78.1465L99.043 80.168C98.7148 80.6016 98.4746 80.9941 98.3223 81.3457C98.2051 81.6152 98.1465 81.8848 98.1465 82.1543C98.1465 82.4355 98.293 82.6992 98.5859 82.9453C98.8906 83.1797 99.3887 83.3145 100.08 83.3496V84H92.9609L93.1367 83.3496C93.7695 83.2441 94.332 83.0215 94.8242 82.6816C95.4805 82.2129 96.4238 81.2461 97.6543 79.7812L114.547 59.6191H115.338L114.547 79.1309C114.512 80.1504 114.494 80.7656 114.494 80.9766C114.494 81.7734 114.652 82.3535 114.969 82.7168C115.297 83.0801 115.836 83.291 116.586 83.3496L116.41 84H106.092L106.285 83.3496C107.305 83.2559 107.891 83.1738 108.043 83.1035C108.371 82.9395 108.67 82.5996 108.939 82.084C109.209 81.5566 109.373 80.6484 109.432 79.3594L109.59 76.3184ZM109.59 74.877L110.047 67.1074L103.42 74.877H109.59ZM129.348 72.3633L127.238 79.5879C126.934 80.6074 126.781 81.3574 126.781 81.8379C126.781 82.2832 126.963 82.6406 127.326 82.9102C127.689 83.1797 128.445 83.3262 129.594 83.3496L129.348 84H117.869L118.08 83.3496C119.229 83.3496 120.066 83.127 120.594 82.6816C121.133 82.2363 121.625 81.2402 122.07 79.6934L126.5 64.4004C126.746 63.5449 126.869 62.8711 126.869 62.3789C126.869 61.9102 126.717 61.5527 126.412 61.3066C126.107 61.0605 125.398 60.8965 124.285 60.8145L124.461 60.1641H134.34C137.164 60.1641 139.15 60.6562 140.299 61.6406C141.447 62.625 142.021 63.8906 142.021 65.4375C142.021 67.0664 141.354 68.5371 140.018 69.8496C139.174 70.6699 137.68 71.3789 135.535 71.9766L137.68 79.2012C138.254 81.1348 138.752 82.3008 139.174 82.6992C139.607 83.0977 140.322 83.3145 141.318 83.3496V84H133.9L130.525 72.3633L129.945 72.3984C129.816 72.3984 129.617 72.3867 129.348 72.3633ZM129.594 71.3086C130.004 71.332 130.35 71.3438 130.631 71.3438C132.342 71.3438 133.748 70.7578 134.85 69.5859C135.951 68.4141 136.502 66.8789 136.502 64.9805C136.502 63.8555 136.209 63 135.623 62.4141C135.037 61.8281 134.264 61.5352 133.303 61.5352C133.068 61.5352 132.793 61.541 132.477 61.5527L129.594 71.3086ZM148.789 60.1641H167.967L166.156 66.5801H165.523C165.547 66.2402 165.559 65.9414 165.559 65.6836C165.559 64.4648 165.201 63.5215 164.486 62.8535C163.771 62.1738 162.564 61.7871 160.865 61.6934L155.557 79.6406C155.264 80.6367 155.117 81.375 155.117 81.8555C155.117 82.3008 155.299 82.6582 155.662 82.9277C156.025 83.1855 156.764 83.3262 157.877 83.3496L157.719 84H145.889L146.1 83.3496C147.307 83.3496 148.186 83.127 148.736 82.6816C149.287 82.2246 149.791 81.2109 150.248 79.6406L155.557 61.6934C153.729 61.752 152.199 62.1504 150.969 62.8887C149.738 63.627 148.613 64.8574 147.594 66.5801H146.908L148.789 60.1641ZM175.736 71.1328H184.455L186.389 64.4707C186.646 63.5566 186.775 62.8594 186.775 62.3789C186.775 61.9102 186.617 61.5527 186.301 61.3066C185.984 61.0605 185.223 60.8965 184.016 60.8145L184.209 60.1641H196.057L195.863 60.8145C194.703 60.8145 193.824 61.0605 193.227 61.5527C192.629 62.0449 192.119 63.0176 191.697 64.4707L187.268 79.7285C186.975 80.7246 186.828 81.4395 186.828 81.873C186.828 82.3066 186.986 82.6348 187.303 82.8574C187.713 83.1621 188.457 83.3262 189.535 83.3496L189.359 84H177.74L178.004 83.3496C179.129 83.3496 179.955 83.1328 180.482 82.6992C181.021 82.2539 181.514 81.2637 181.959 79.7285L184.016 72.627H175.332L173.293 79.7285C173 80.7012 172.854 81.4219 172.854 81.8906C172.854 82.3125 173.029 82.6582 173.381 82.9277C173.744 83.1855 174.453 83.3262 175.508 83.3496L175.332 84H163.871L164.064 83.3496C165.189 83.3496 166.01 83.1328 166.525 82.6992C167.053 82.2539 167.539 81.2637 167.984 79.7285L172.414 64.4707C172.672 63.5918 172.801 62.9004 172.801 62.3965C172.801 61.916 172.643 61.5527 172.326 61.3066C172.021 61.0605 171.283 60.8965 170.111 60.8145L170.305 60.1641H181.959L181.695 60.8145C180.617 60.8145 179.803 61.0488 179.252 61.5176C178.701 61.9746 178.197 62.959 177.74 64.4707L175.736 71.1328ZM214.092 60.1641H222.16L222.002 60.8145C221.076 60.8848 220.361 61.1074 219.857 61.4824C219.049 62.0801 218.445 63.0645 218.047 64.4355L214.883 75.3691C213.898 78.7793 212.562 81.1641 210.875 82.5234C209.188 83.8711 207.043 84.5449 204.441 84.5449C202.965 84.5449 201.664 84.334 200.539 83.9121C199.414 83.4902 198.588 83.0156 198.061 82.4883C197.533 81.9609 197.129 81.3105 196.848 80.5371C196.566 79.752 196.426 79.0957 196.426 78.5684C196.426 77.7363 196.66 76.5059 197.129 74.877L200.152 64.4355C200.422 63.498 200.557 62.8008 200.557 62.3438C200.557 61.8984 200.387 61.5527 200.047 61.3066C199.719 61.0605 198.945 60.8965 197.727 60.8145L197.92 60.1641H209.803L209.592 60.8145C208.443 60.8145 207.564 61.0605 206.955 61.5527C206.357 62.0449 205.854 63.0059 205.443 64.4355L202.402 74.877C201.898 76.623 201.646 78.0234 201.646 79.0781C201.646 80.0391 202.033 80.877 202.807 81.5918C203.58 82.3066 204.658 82.6641 206.041 82.6641C207.307 82.6641 208.379 82.4355 209.258 81.9785C210.148 81.5098 210.887 80.8594 211.473 80.0273C212.246 78.9141 212.938 77.3203 213.547 75.2461L216.658 64.4355C216.834 63.8145 216.922 63.2988 216.922 62.8887C216.922 62.1621 216.664 61.6055 216.148 61.2188C215.785 60.9492 215.035 60.8145 213.898 60.8145L214.092 60.1641ZM229.402 72.3633L227.293 79.5879C226.988 80.6074 226.836 81.3574 226.836 81.8379C226.836 82.2832 227.018 82.6406 227.381 82.9102C227.744 83.1797 228.5 83.3262 229.648 83.3496L229.402 84H217.924L218.135 83.3496C219.283 83.3496 220.121 83.127 220.648 82.6816C221.188 82.2363 221.68 81.2402 222.125 79.6934L226.555 64.4004C226.801 63.5449 226.924 62.8711 226.924 62.3789C226.924 61.9102 226.771 61.5527 226.467 61.3066C226.162 61.0605 225.453 60.8965 224.34 60.8145L224.516 60.1641H234.395C237.219 60.1641 239.205 60.6562 240.354 61.6406C241.502 62.625 242.076 63.8906 242.076 65.4375C242.076 67.0664 241.408 68.5371 240.072 69.8496C239.229 70.6699 237.734 71.3789 235.59 71.9766L237.734 79.2012C238.309 81.1348 238.807 82.3008 239.229 82.6992C239.662 83.0977 240.377 83.3145 241.373 83.3496V84H233.955L230.58 72.3633L230 72.3984C229.871 72.3984 229.672 72.3867 229.402 72.3633ZM229.648 71.3086C230.059 71.332 230.404 71.3438 230.686 71.3438C232.396 71.3438 233.803 70.7578 234.904 69.5859C236.006 68.4141 236.557 66.8789 236.557 64.9805C236.557 63.8555 236.264 63 235.678 62.4141C235.092 61.8281 234.318 61.5352 233.357 61.5352C233.123 61.5352 232.848 61.541 232.531 61.5527L229.648 71.3086ZM100.572 95.1641H109.994C112.092 95.1641 113.592 95.2754 114.494 95.498C115.678 95.7793 116.592 96.3301 117.236 97.1504C117.893 97.959 118.221 98.8789 118.221 99.9102C118.221 100.754 117.963 101.615 117.447 102.494C116.932 103.373 116.158 104.1 115.127 104.674C114.107 105.236 112.537 105.758 110.416 106.238C112.619 106.859 114.148 107.656 115.004 108.629C115.859 109.602 116.287 110.732 116.287 112.021C116.287 113.229 115.865 114.424 115.021 115.607C114.178 116.779 113.059 117.641 111.664 118.191C110.27 118.73 107.715 119 104 119H94.0859L94.3145 118.35C95.2754 118.35 95.9609 118.262 96.3711 118.086C96.793 117.91 97.127 117.641 97.373 117.277C97.6309 116.902 97.9297 116.129 98.2695 114.957L102.523 100.297C102.957 98.8086 103.174 97.8125 103.174 97.3086C103.174 96.8984 102.998 96.5586 102.646 96.2891C102.307 96.0195 101.557 95.8613 100.396 95.8145L100.572 95.1641ZM105.969 105.693C107.562 105.67 108.816 105.418 109.73 104.938C110.656 104.457 111.395 103.672 111.945 102.582C112.508 101.48 112.789 100.443 112.789 99.4707C112.789 98.5566 112.502 97.8125 111.928 97.2383C111.354 96.6641 110.586 96.3887 109.625 96.4121L108.658 96.4473L105.969 105.693ZM105.547 107.012L102.506 117.611C103.092 117.635 103.531 117.646 103.824 117.646C106.438 117.646 108.254 116.92 109.273 115.467C110.293 114.002 110.803 112.438 110.803 110.773C110.803 109.977 110.604 109.273 110.205 108.664C109.818 108.043 109.314 107.615 108.693 107.381C108.072 107.135 107.023 107.012 105.547 107.012ZM132.617 96.4824L129.963 105.729H130.771C132.904 105.729 134.457 105.447 135.43 104.885C136.414 104.322 137.246 103.326 137.926 101.896H138.576L135.904 111.178H135.289C135.395 110.557 135.447 110.053 135.447 109.666C135.447 109.021 135.254 108.494 134.867 108.084C134.492 107.674 134 107.381 133.391 107.205C132.992 107.088 132.166 107.029 130.912 107.029H129.541L127.256 115.027C127.057 115.73 126.957 116.252 126.957 116.592C126.957 116.861 127.086 117.078 127.344 117.242C127.719 117.477 128.428 117.594 129.471 117.594C131.475 117.594 133.361 117.172 135.131 116.328C136.9 115.473 138.488 114.184 139.895 112.461H140.615L138.137 119H117.746L117.957 118.35C119.152 118.35 120.025 118.127 120.576 117.682C121.127 117.225 121.625 116.229 122.07 114.693L126.553 99.3477C126.799 98.4922 126.922 97.8184 126.922 97.3262C126.922 96.8809 126.764 96.541 126.447 96.3066C126.131 96.0605 125.41 95.8965 124.285 95.8145L124.479 95.1641H143.48L141.951 101.123H141.318C141.271 99.9512 141.09 99.125 140.773 98.6445C140.281 97.8945 139.625 97.3496 138.805 97.0098C137.996 96.6582 136.678 96.4824 134.85 96.4824H132.617ZM153.359 107.363L151.25 114.588C150.945 115.607 150.793 116.357 150.793 116.838C150.793 117.283 150.975 117.641 151.338 117.91C151.701 118.18 152.457 118.326 153.605 118.35L153.359 119H141.881L142.092 118.35C143.24 118.35 144.078 118.127 144.605 117.682C145.145 117.236 145.637 116.24 146.082 114.693L150.512 99.4004C150.758 98.5449 150.881 97.8711 150.881 97.3789C150.881 96.9102 150.729 96.5527 150.424 96.3066C150.119 96.0605 149.41 95.8965 148.297 95.8145L148.473 95.1641H158.352C161.176 95.1641 163.162 95.6562 164.311 96.6406C165.459 97.625 166.033 98.8906 166.033 100.438C166.033 102.066 165.365 103.537 164.029 104.85C163.186 105.67 161.691 106.379 159.547 106.977L161.691 114.201C162.266 116.135 162.764 117.301 163.186 117.699C163.619 118.098 164.334 118.314 165.33 118.35V119H157.912L154.537 107.363L153.957 107.398C153.828 107.398 153.629 107.387 153.359 107.363ZM153.605 106.309C154.016 106.332 154.361 106.344 154.643 106.344C156.354 106.344 157.76 105.758 158.861 104.586C159.963 103.414 160.514 101.879 160.514 99.9805C160.514 98.8555 160.221 98 159.635 97.4141C159.049 96.8281 158.275 96.5352 157.314 96.5352C157.08 96.5352 156.805 96.541 156.488 96.5527L153.605 106.309ZM172.801 95.1641H191.979L190.168 101.58H189.535C189.559 101.24 189.57 100.941 189.57 100.684C189.57 99.4648 189.213 98.5215 188.498 97.8535C187.783 97.1738 186.576 96.7871 184.877 96.6934L179.568 114.641C179.275 115.637 179.129 116.375 179.129 116.855C179.129 117.301 179.311 117.658 179.674 117.928C180.037 118.186 180.775 118.326 181.889 118.35L181.73 119H169.9L170.111 118.35C171.318 118.35 172.197 118.127 172.748 117.682C173.299 117.225 173.803 116.211 174.26 114.641L179.568 96.6934C177.74 96.752 176.211 97.1504 174.98 97.8887C173.75 98.627 172.625 99.8574 171.605 101.58H170.92L172.801 95.1641ZM199.379 107.363L197.27 114.588C196.965 115.607 196.812 116.357 196.812 116.838C196.812 117.283 196.994 117.641 197.357 117.91C197.721 118.18 198.477 118.326 199.625 118.35L199.379 119H187.9L188.111 118.35C189.26 118.35 190.098 118.127 190.625 117.682C191.164 117.236 191.656 116.24 192.102 114.693L196.531 99.4004C196.777 98.5449 196.9 97.8711 196.9 97.3789C196.9 96.9102 196.748 96.5527 196.443 96.3066C196.139 96.0605 195.43 95.8965 194.316 95.8145L194.492 95.1641H204.371C207.195 95.1641 209.182 95.6562 210.33 96.6406C211.479 97.625 212.053 98.8906 212.053 100.438C212.053 102.066 211.385 103.537 210.049 104.85C209.205 105.67 207.711 106.379 205.566 106.977L207.711 114.201C208.285 116.135 208.783 117.301 209.205 117.699C209.639 118.098 210.354 118.314 211.35 118.35V119H203.932L200.557 107.363L199.977 107.398C199.848 107.398 199.648 107.387 199.379 107.363ZM199.625 106.309C200.035 106.332 200.381 106.344 200.662 106.344C202.373 106.344 203.779 105.758 204.881 104.586C205.982 103.414 206.533 101.879 206.533 99.9805C206.533 98.8555 206.24 98 205.654 97.4141C205.068 96.8281 204.295 96.5352 203.334 96.5352C203.1 96.5352 202.824 96.541 202.508 96.5527L199.625 106.309ZM227.645 111.318H220.262L218.785 113.146L217.098 115.168C216.77 115.602 216.529 115.994 216.377 116.346C216.26 116.615 216.201 116.885 216.201 117.154C216.201 117.436 216.348 117.699 216.641 117.945C216.945 118.18 217.443 118.314 218.135 118.35V119H211.016L211.191 118.35C211.824 118.244 212.387 118.021 212.879 117.682C213.535 117.213 214.479 116.246 215.709 114.781L232.602 94.6191H233.393L232.602 114.131C232.566 115.15 232.549 115.766 232.549 115.977C232.549 116.773 232.707 117.354 233.023 117.717C233.352 118.08 233.891 118.291 234.641 118.35L234.465 119H224.146L224.34 118.35C225.359 118.256 225.945 118.174 226.098 118.104C226.426 117.939 226.725 117.6 226.994 117.084C227.264 116.557 227.428 115.648 227.486 114.359L227.645 111.318ZM227.645 109.877L228.102 102.107L221.475 109.877H227.645ZM249.898 95.1641L257.352 111.055L260.709 99.5234C260.885 98.8906 260.973 98.3281 260.973 97.8359C260.973 97.25 260.785 96.7812 260.41 96.4297C260.047 96.0781 259.414 95.873 258.512 95.8145L258.705 95.1641H266.264L266.088 95.8145C265.127 95.873 264.33 96.1426 263.697 96.623C263.076 97.1035 262.549 98.0703 262.115 99.5234L256.297 119.264H255.629L246.066 98.9434L241.443 114.781C241.291 115.332 241.215 115.824 241.215 116.258C241.215 116.891 241.42 117.4 241.83 117.787C242.252 118.162 242.92 118.35 243.834 118.35L243.676 119H235.906L236.064 118.35C236.732 118.35 237.207 118.291 237.488 118.174C237.98 117.986 238.461 117.629 238.93 117.102C239.398 116.562 239.779 115.789 240.072 114.781L245.117 97.4668C244.496 96.7754 243.975 96.3301 243.553 96.1309C243.131 95.9316 242.498 95.8262 241.654 95.8145L241.848 95.1641H249.898ZM261.781 119L261.992 118.35C263.141 118.35 264.008 118.115 264.594 117.646C265.191 117.166 265.684 116.275 266.07 114.975L270.395 99.9453C270.676 98.9609 270.816 98.1523 270.816 97.5195C270.816 96.9805 270.652 96.582 270.324 96.3242C269.996 96.0664 269.158 95.8965 267.811 95.8145L268.021 95.1641H276.178C280.479 95.1641 283.578 96.0371 285.477 97.7832C287.387 99.5176 288.342 101.955 288.342 105.096C288.342 107.311 287.902 109.168 287.023 110.668C285.301 113.598 283.256 115.719 280.889 117.031C278.521 118.344 275.48 119 271.766 119H261.781ZM276.67 96.5703L271.432 114.641C271.186 115.473 271.062 116.07 271.062 116.434C271.062 116.762 271.197 117.025 271.467 117.225C271.818 117.494 272.34 117.629 273.031 117.629C274.684 117.629 276.16 117.113 277.461 116.082C279.125 114.758 280.391 112.977 281.258 110.738C282.137 108.5 282.576 106.279 282.576 104.076C282.576 102.482 282.324 101.094 281.82 99.9102C281.316 98.7266 280.537 97.8242 279.482 97.2031C278.744 96.7812 277.807 96.5703 276.67 96.5703Z" fill="white" fill-opacity="0.75"/>
<path d="M59.4401 70.4448C59.1622 68.3005 58.9438 66.3745 58.7849 64.667C58.6261 62.9197 58.5467 61.3908 58.5467 60.0804C58.5467 52.1383 61.0087 45.5464 65.9328 40.3046C70.8569 35.0231 76.6745 32.3823 83.3856 32.3823C87.6743 32.3823 91.1093 33.5935 93.6904 36.0158C96.3113 38.4382 97.6218 41.3371 97.6218 44.7124C97.6218 48.9615 96.351 52.6148 93.8096 55.6725C90.0371 60.279 84.0011 64.3493 75.7016 67.8835C78.3622 76.4213 80.1889 81.941 81.1816 84.4428C82.1744 86.9445 83.5047 89.6647 85.1725 92.6033C87.436 90.1015 89.0642 87.6792 90.0569 85.3363C91.0497 82.9536 91.5461 81.0078 91.5461 79.4988C91.5461 78.2281 91.1688 77.1162 90.4143 76.1631C89.6598 75.2101 88.4288 74.5152 86.7212 74.0783L87.436 71.934H110.309L109.416 74.0783C107.271 74.5946 105.465 75.4682 103.995 76.6992C102.526 77.9303 99.8058 81.2064 95.8348 86.5276C93.0154 90.3398 90.2158 93.6953 87.436 96.5942C90.6129 101.002 93.5117 104.04 96.1326 105.708C97.8005 106.82 99.7066 107.376 101.851 107.376C103.082 107.376 104.154 107.177 105.067 106.78C105.981 106.383 107.093 105.628 108.403 104.516H110.309C108.403 108.607 105.882 111.684 102.744 113.749C99.6073 115.814 96.0532 116.847 92.0822 116.847C88.7465 116.847 85.7483 116.191 83.0877 114.881C80.4271 113.531 77.6077 111.267 74.6294 108.09C70.5392 110.989 66.4093 113.173 62.2397 114.643C58.1098 116.112 53.9402 116.847 49.7309 116.847C43.6155 116.847 38.751 115.139 35.1373 111.724C31.5237 108.309 29.7168 104.298 29.7168 99.6916C29.7168 96.0382 30.4912 92.782 32.0399 89.9228C33.5886 87.0637 36.5272 84.006 40.8556 80.7497C45.1841 77.4934 51.3789 74.0585 59.4401 70.4448ZM74.6294 63.4161C77.9254 61.0732 80.3279 58.6707 81.8369 56.2086C83.9415 52.8332 84.9938 49.2394 84.9938 45.4272C84.9938 42.5681 84.3982 40.3641 83.2069 38.8154C82.2538 37.6638 81.0426 37.088 79.5734 37.088C77.7864 37.088 76.3767 37.8028 75.3442 39.2324C73.8352 41.3768 73.0807 44.6926 73.0807 49.1799C73.0807 51.2051 73.1998 53.409 73.4381 55.7917C73.7161 58.1346 74.1132 60.6761 74.6294 63.4161ZM60.3336 74.9123C55.7669 77.414 52.4908 80.0151 50.5053 82.7154C48.5595 85.376 47.5866 88.5727 47.5866 92.3055C47.5866 96.8722 48.9963 100.724 51.8157 103.861C54.6749 106.959 57.8517 108.507 61.3462 108.507C62.8552 108.507 64.5231 108.17 66.3498 107.495C68.1764 106.82 70.162 105.827 72.3063 104.516C69.884 100.863 67.5411 96.2567 65.2776 90.6972C63.0538 85.1377 61.4058 79.8761 60.3336 74.9123Z" fill="black"/>
</svg>
