<svg width="375" height="140" viewBox="0 0 375 140" fill="none" xmlns="http://www.w3.org/2000/svg">
<path d="M113.849 66.4448C113.571 64.3005 113.352 62.3745 113.193 60.667C113.035 58.9197 112.955 57.3908 112.955 56.0804C112.955 48.1383 115.417 41.5464 120.341 36.3046C125.265 31.0231 131.083 28.3823 137.794 28.3823C142.083 28.3823 145.518 29.5935 148.099 32.0158C150.72 34.4382 152.03 37.3371 152.03 40.7124C152.03 44.9615 150.759 48.6148 148.218 51.6725C144.446 56.279 138.41 60.3493 130.11 63.8835C132.771 72.4213 134.597 77.941 135.59 80.4428C136.583 82.9445 137.913 85.6647 139.581 88.6033C141.844 86.1015 143.473 83.6792 144.465 81.3363C145.458 78.9536 145.955 77.0078 145.955 75.4988C145.955 74.2281 145.577 73.1162 144.823 72.1631C144.068 71.2101 142.837 70.5152 141.13 70.0783L141.844 67.934H164.718L163.824 70.0783C161.68 70.5946 159.873 71.4682 158.404 72.6992C156.934 73.9303 154.214 77.2064 150.243 82.5276C147.424 86.3398 144.624 89.6953 141.844 92.5942C145.021 97.0021 147.92 100.04 150.541 101.708C152.209 102.82 154.115 103.376 156.259 103.376C157.49 103.376 158.563 103.177 159.476 102.78C160.389 102.383 161.501 101.628 162.812 100.516H164.718C162.812 104.607 160.29 107.684 157.153 109.749C154.016 111.814 150.462 112.847 146.491 112.847C143.155 112.847 140.157 112.191 137.496 110.881C134.836 109.531 132.016 107.267 129.038 104.09C124.948 106.989 120.818 109.173 116.648 110.643C112.518 112.112 108.349 112.847 104.139 112.847C98.024 112.847 93.1594 111.139 89.5458 107.724C85.9321 104.309 84.1253 100.298 84.1253 95.6916C84.1253 92.0382 84.8996 88.782 86.4484 85.9228C87.9971 83.0637 90.9356 80.006 95.2641 76.7497C99.5925 73.4934 105.787 70.0585 113.849 66.4448ZM129.038 59.4161C132.334 57.0732 134.736 54.6707 136.245 52.2086C138.35 48.8332 139.402 45.2394 139.402 41.4272C139.402 38.5681 138.807 36.3641 137.615 34.8154C136.662 33.6638 135.451 33.088 133.982 33.088C132.195 33.088 130.785 33.8028 129.753 35.2324C128.244 37.3768 127.489 40.6926 127.489 45.1799C127.489 47.2051 127.608 49.409 127.847 51.7917C128.125 54.1346 128.522 56.6761 129.038 59.4161ZM114.742 70.9123C110.175 73.414 106.899 76.0151 104.914 78.7154C102.968 81.376 101.995 84.5727 101.995 88.3055C101.995 92.8722 103.405 96.7241 106.224 99.8612C109.083 102.959 112.26 104.507 115.755 104.507C117.264 104.507 118.932 104.17 120.758 103.495C122.585 102.82 124.57 101.827 126.715 100.516C124.292 96.8631 121.95 92.2567 119.686 86.6972C117.462 81.1377 115.814 75.8761 114.742 70.9123Z" fill="black"/>
<path d="M100.91 60.8145L101.104 60.1641H112.74L112.512 60.8145C111.457 60.8145 110.648 61.0488 110.086 61.5176C109.535 61.9863 109.049 62.9648 108.627 64.4531L104.268 79.7109C103.951 80.7891 103.793 81.5098 103.793 81.873C103.793 82.2949 103.957 82.623 104.285 82.8574C104.707 83.1621 105.504 83.3262 106.676 83.3496L106.5 84H94.6699L94.8633 83.3496C96.0469 83.3496 96.9141 83.127 97.4648 82.6816C98.0156 82.2246 98.5137 81.2344 98.959 79.7109L103.354 64.4531C103.623 63.5156 103.758 62.8066 103.758 62.3262C103.758 61.8926 103.594 61.5527 103.266 61.3066C102.938 61.0605 102.152 60.8965 100.91 60.8145ZM114.938 60.8145L115.131 60.1641H126.768L126.539 60.8145C125.484 60.8145 124.676 61.0488 124.113 61.5176C123.562 61.9863 123.076 62.9648 122.654 64.4531L118.295 79.7109C117.979 80.7891 117.82 81.5098 117.82 81.873C117.82 82.2949 117.984 82.623 118.312 82.8574C118.734 83.1621 119.531 83.3262 120.703 83.3496L120.527 84H108.697L108.891 83.3496C110.074 83.3496 110.941 83.127 111.492 82.6816C112.043 82.2246 112.541 81.2344 112.986 79.7109L117.381 64.4531C117.65 63.5156 117.785 62.8066 117.785 62.3262C117.785 61.8926 117.621 61.5527 117.293 61.3066C116.965 61.0605 116.18 60.8965 114.938 60.8145ZM138.756 60.1641H157.934L156.123 66.5801H155.49C155.514 66.2402 155.525 65.9414 155.525 65.6836C155.525 64.4648 155.168 63.5215 154.453 62.8535C153.738 62.1738 152.531 61.7871 150.832 61.6934L145.523 79.6406C145.23 80.6367 145.084 81.375 145.084 81.8555C145.084 82.3008 145.266 82.6582 145.629 82.9277C145.992 83.1855 146.73 83.3262 147.844 83.3496L147.686 84H135.855L136.066 83.3496C137.273 83.3496 138.152 83.127 138.703 82.6816C139.254 82.2246 139.758 81.2109 140.215 79.6406L145.523 61.6934C143.695 61.752 142.166 62.1504 140.936 62.8887C139.705 63.627 138.58 64.8574 137.561 66.5801H136.875L138.756 60.1641ZM176.039 60.1641H184.107L183.949 60.8145C183.023 60.8848 182.309 61.1074 181.805 61.4824C180.996 62.0801 180.393 63.0645 179.994 64.4355L176.83 75.3691C175.846 78.7793 174.51 81.1641 172.822 82.5234C171.135 83.8711 168.99 84.5449 166.389 84.5449C164.912 84.5449 163.611 84.334 162.486 83.9121C161.361 83.4902 160.535 83.0156 160.008 82.4883C159.48 81.9609 159.076 81.3105 158.795 80.5371C158.514 79.752 158.373 79.0957 158.373 78.5684C158.373 77.7363 158.607 76.5059 159.076 74.877L162.1 64.4355C162.369 63.498 162.504 62.8008 162.504 62.3438C162.504 61.8984 162.334 61.5527 161.994 61.3066C161.666 61.0605 160.893 60.8965 159.674 60.8145L159.867 60.1641H171.75L171.539 60.8145C170.391 60.8145 169.512 61.0605 168.902 61.5527C168.305 62.0449 167.801 63.0059 167.391 64.4355L164.35 74.877C163.846 76.623 163.594 78.0234 163.594 79.0781C163.594 80.0391 163.98 80.877 164.754 81.5918C165.527 82.3066 166.605 82.6641 167.988 82.6641C169.254 82.6641 170.326 82.4355 171.205 81.9785C172.096 81.5098 172.834 80.8594 173.42 80.0273C174.193 78.9141 174.885 77.3203 175.494 75.2461L178.605 64.4355C178.781 63.8145 178.869 63.2988 178.869 62.8887C178.869 62.1621 178.611 61.6055 178.096 61.2188C177.732 60.9492 176.982 60.8145 175.846 60.8145L176.039 60.1641ZM193.846 60.1641L201.299 76.0547L204.656 64.5234C204.832 63.8906 204.92 63.3281 204.92 62.8359C204.92 62.25 204.732 61.7812 204.357 61.4297C203.994 61.0781 203.361 60.873 202.459 60.8145L202.652 60.1641H210.211L210.035 60.8145C209.074 60.873 208.277 61.1426 207.645 61.623C207.023 62.1035 206.496 63.0703 206.062 64.5234L200.244 84.2637H199.576L190.014 63.9434L185.391 79.7812C185.238 80.332 185.162 80.8242 185.162 81.2578C185.162 81.8906 185.367 82.4004 185.777 82.7871C186.199 83.1621 186.867 83.3496 187.781 83.3496L187.623 84H179.854L180.012 83.3496C180.68 83.3496 181.154 83.291 181.436 83.1738C181.928 82.9863 182.408 82.6289 182.877 82.1016C183.346 81.5625 183.727 80.7891 184.02 79.7812L189.064 62.4668C188.443 61.7754 187.922 61.3301 187.5 61.1309C187.078 60.9316 186.445 60.8262 185.602 60.8145L185.795 60.1641H193.846ZM219.861 60.1641L227.314 76.0547L230.672 64.5234C230.848 63.8906 230.936 63.3281 230.936 62.8359C230.936 62.25 230.748 61.7812 230.373 61.4297C230.01 61.0781 229.377 60.873 228.475 60.8145L228.668 60.1641H236.227L236.051 60.8145C235.09 60.873 234.293 61.1426 233.66 61.623C233.039 62.1035 232.512 63.0703 232.078 64.5234L226.26 84.2637H225.592L216.029 63.9434L211.406 79.7812C211.254 80.332 211.178 80.8242 211.178 81.2578C211.178 81.8906 211.383 82.4004 211.793 82.7871C212.215 83.1621 212.883 83.3496 213.797 83.3496L213.639 84H205.869L206.027 83.3496C206.695 83.3496 207.17 83.291 207.451 83.1738C207.943 82.9863 208.424 82.6289 208.893 82.1016C209.361 81.5625 209.742 80.7891 210.035 79.7812L215.08 62.4668C214.459 61.7754 213.938 61.3301 213.516 61.1309C213.094 60.9316 212.461 60.8262 211.617 60.8145L211.811 60.1641H219.861ZM246.65 61.4824L243.996 70.7285H244.805C246.938 70.7285 248.49 70.4473 249.463 69.8848C250.447 69.3223 251.279 68.3262 251.959 66.8965H252.609L249.938 76.1777H249.322C249.428 75.5566 249.48 75.0527 249.48 74.666C249.48 74.0215 249.287 73.4941 248.9 73.084C248.525 72.6738 248.033 72.3809 247.424 72.2051C247.025 72.0879 246.199 72.0293 244.945 72.0293H243.574L241.289 80.0273C241.09 80.7305 240.99 81.252 240.99 81.5918C240.99 81.8613 241.119 82.0781 241.377 82.2422C241.752 82.4766 242.461 82.5938 243.504 82.5938C245.508 82.5938 247.395 82.1719 249.164 81.3281C250.934 80.4727 252.521 79.1836 253.928 77.4609H254.648L252.17 84H231.779L231.99 83.3496C233.186 83.3496 234.059 83.127 234.609 82.6816C235.16 82.2246 235.658 81.2285 236.104 79.6934L240.586 64.3477C240.832 63.4922 240.955 62.8184 240.955 62.3262C240.955 61.8809 240.797 61.541 240.48 61.3066C240.164 61.0605 239.443 60.8965 238.318 60.8145L238.512 60.1641H257.514L255.984 66.123H255.352C255.305 64.9512 255.123 64.125 254.807 63.6445C254.314 62.8945 253.658 62.3496 252.838 62.0098C252.029 61.6582 250.711 61.4824 248.883 61.4824H246.65ZM274.934 84H255.896L256.09 83.3496C257.227 83.3496 258.053 83.1328 258.568 82.6992C259.096 82.2539 259.582 81.2637 260.027 79.7285L264.457 64.418C264.703 63.5742 264.826 62.9121 264.826 62.4316C264.826 61.9629 264.65 61.5879 264.299 61.3066C263.947 61.0254 263.256 60.8613 262.225 60.8145L262.418 60.1641H273.861L273.668 60.8145C272.566 60.8379 271.74 61.084 271.189 61.5527C270.65 62.0215 270.17 62.9766 269.748 64.418L265.705 78.4277C265.189 80.209 264.932 81.293 264.932 81.6797C264.932 81.9141 265.061 82.1367 265.318 82.3477C265.588 82.5469 266.016 82.6465 266.602 82.6465C268.547 82.6465 270.422 82.2012 272.227 81.3105C274.043 80.4199 275.578 79.0898 276.832 77.3203H277.57L274.934 84Z" fill="white" fill-opacity="0.75"/>
</svg>
