<svg width="306" height="140" viewBox="0 0 306 140" fill="none" xmlns="http://www.w3.org/2000/svg">
<path d="M11.8438 28.7812L12.1875 27.625H32.875L32.4688 28.7812C30.5938 28.7812 29.1562 29.1979 28.1562 30.0312C27.1771 30.8646 26.3125 32.6042 25.5625 35.25L17.8125 62.375C17.25 64.2917 16.9688 65.5729 16.9688 66.2188C16.9688 66.9688 17.2604 67.5521 17.8438 67.9688C18.5938 68.5104 20.0104 68.8021 22.0938 68.8438L21.7812 70H0.75L1.09375 68.8438C3.19792 68.8438 4.73958 68.4479 5.71875 67.6562C6.69792 66.8438 7.58333 65.0833 8.375 62.375L16.1875 35.25C16.6667 33.5833 16.9062 32.3229 16.9062 31.4688C16.9062 30.6979 16.6146 30.0938 16.0312 29.6562C15.4479 29.2188 14.0521 28.9271 11.8438 28.7812ZM50.75 27.625L64 55.875L69.9688 35.375C70.2812 34.25 70.4375 33.25 70.4375 32.375C70.4375 31.3333 70.1042 30.5 69.4375 29.875C68.7917 29.25 67.6667 28.8854 66.0625 28.7812L66.4062 27.625H79.8438L79.5312 28.7812C77.8229 28.8854 76.4062 29.3646 75.2812 30.2188C74.1771 31.0729 73.2396 32.7917 72.4688 35.375L62.125 70.4688H60.9375L43.9375 34.3438L35.7188 62.5C35.4479 63.4792 35.3125 64.3542 35.3125 65.125C35.3125 66.25 35.6771 67.1562 36.4062 67.8438C37.1562 68.5104 38.3438 68.8438 39.9688 68.8438L39.6875 70H25.875L26.1562 68.8438C27.3438 68.8438 28.1875 68.7396 28.6875 68.5312C29.5625 68.1979 30.4167 67.5625 31.25 66.625C32.0833 65.6667 32.7604 64.2917 33.2812 62.5L42.25 31.7188C41.1458 30.4896 40.2188 29.6979 39.4688 29.3438C38.7188 28.9896 37.5938 28.8021 36.0938 28.7812L36.4375 27.625H50.75ZM100.375 30L95.6875 46C98.875 45.9583 100.948 45.8333 101.906 45.625C103.469 45.3125 104.885 44.6562 106.156 43.6562C107.427 42.6354 108.49 41.2292 109.344 39.4375H110.562L105.719 56.1562H104.469C104.677 55.0729 104.781 54.2083 104.781 53.5625C104.781 52.2708 104.51 51.2396 103.969 50.4688C103.448 49.6979 102.771 49.1771 101.938 48.9062C101.104 48.6146 98.8125 48.4271 95.0625 48.3438L91.25 61.5625L90.5 64.2188C90.3958 64.7396 90.3438 65.25 90.3438 65.75C90.3438 66.4792 90.4792 67.0521 90.75 67.4688C91.0417 67.8854 91.5 68.2188 92.125 68.4688C92.75 68.6979 93.9375 68.8229 95.6875 68.8438L95.3438 70H74.1875L74.5312 68.8438C76.5729 68.8438 78.0625 68.4688 79 67.7188C79.9375 66.9479 80.7812 65.2812 81.5312 62.7188L89.0938 36.7812C89.8854 34.0521 90.3021 32.3021 90.3438 31.5312C90.3021 30.8021 89.9688 30.1875 89.3438 29.6875C88.7188 29.1667 87.4375 28.8646 85.5 28.7812L85.8125 27.625H120.438L117.594 38.8125H116.438C116.312 36.4792 115.948 34.75 115.344 33.625C114.74 32.4792 113.74 31.5938 112.344 30.9688C110.969 30.3229 108.76 30 105.719 30H100.375ZM134.875 71C131.458 71 128.698 70.3021 126.594 68.9062C124.49 67.5104 122.906 65.6042 121.844 63.1875C120.802 60.7708 120.281 58.4167 120.281 56.125C120.281 51.5 121.604 46.8438 124.25 42.1562C126.896 37.4479 130.458 33.6875 134.938 30.875C139.438 28.0417 143.875 26.625 148.25 26.625C150.812 26.625 153.24 27.2708 155.531 28.5625C157.844 29.8542 159.635 31.6562 160.906 33.9688C162.198 36.2812 162.844 38.6146 162.844 40.9688C162.844 46.2396 161.167 51.5312 157.812 56.8438C154.458 62.1354 150.688 65.9688 146.5 68.3438C143.333 70.1146 139.458 71 134.875 71ZM147.219 29.1875C145.573 29.1875 144.167 29.4896 143 30.0938C141.854 30.6771 140.656 31.6667 139.406 33.0625C138.156 34.4583 136.885 36.4583 135.594 39.0625C134.302 41.6458 133.083 45.1667 131.938 49.625C130.812 54.0833 130.25 57.8021 130.25 60.7812C130.25 63.3229 130.802 65.25 131.906 66.5625C133.01 67.8542 134.427 68.5 136.156 68.5C138.448 68.5 140.396 67.7396 142 66.2188C145.188 63.1979 147.781 58.7708 149.781 52.9375C151.802 47.0833 152.812 41.875 152.812 37.3125C152.812 34.4583 152.271 32.3958 151.188 31.125C150.125 29.8333 148.802 29.1875 147.219 29.1875ZM200.469 26.6562L196.938 41.0312H195.906C195.677 38.7812 195.271 36.9792 194.688 35.625C193.812 33.6667 192.646 32.1562 191.188 31.0938C189.75 30.0312 188.188 29.5 186.5 29.5C184.875 29.5 183.448 30.125 182.219 31.375C181.01 32.6042 180.406 34 180.406 35.5625C180.406 37.1042 180.823 38.625 181.656 40.125C182.51 41.6042 184.51 43.8438 187.656 46.8438C190.177 49.2396 191.865 51.3021 192.719 53.0312C193.594 54.7604 194.031 56.6354 194.031 58.6562C194.031 60.9271 193.427 63.0208 192.219 64.9375C191.01 66.8542 189.25 68.3438 186.938 69.4062C184.646 70.4479 182.042 70.9688 179.125 70.9688C177.333 70.9688 175.073 70.6979 172.344 70.1562C169.635 69.6354 167.833 69.375 166.938 69.375C166.229 69.375 165.594 69.4896 165.031 69.7188C164.469 69.9271 163.771 70.3438 162.938 70.9688H161.719L165.5 54.8125H166.688C166.958 57.6458 167.531 60.0625 168.406 62.0625C169.281 64.0417 170.531 65.5938 172.156 66.7188C173.781 67.8229 175.635 68.375 177.719 68.375C179.781 68.375 181.5 67.6979 182.875 66.3438C184.271 64.9688 184.969 63.3646 184.969 61.5312C184.969 59.9688 184.573 58.4688 183.781 57.0312C183.01 55.5938 181.229 53.5 178.438 50.75C175.667 48 173.75 45.5417 172.688 43.375C171.917 41.7708 171.531 40.0625 171.531 38.25C171.531 35.1042 172.771 32.3854 175.25 30.0938C177.729 27.8021 180.969 26.6562 184.969 26.6562C186.781 26.6562 189.167 27.0625 192.125 27.875C193.854 28.3542 195.073 28.5938 195.781 28.5938C196.385 28.5938 196.927 28.4688 197.406 28.2188C197.885 27.9479 198.448 27.4271 199.094 26.6562H200.469Z" fill="white" fill-opacity="0.75"/>
<path d="M84.1624 69.9872H117.965L114.774 81.2959H113.658C113.699 80.6969 113.72 80.1702 113.72 79.7158C113.72 77.5677 113.09 75.9049 111.83 74.7276C110.57 73.5296 108.443 72.8479 105.448 72.6827L96.0908 104.316C95.5744 106.072 95.3162 107.373 95.3162 108.22C95.3162 109.005 95.6364 109.635 96.2767 110.11C96.917 110.564 98.2183 110.812 100.181 110.854L99.9017 112H79.0502L79.422 110.854C81.5495 110.854 83.0986 110.461 84.0694 109.676C85.0402 108.871 85.9284 107.084 86.734 104.316L96.0908 72.6827C92.8686 72.786 90.1731 73.4882 88.0043 74.7895C85.8355 76.0908 83.8526 78.2596 82.0556 81.2959H80.8472L84.1624 69.9872ZM134.974 98.4605H121.962L119.359 101.683L116.385 105.246C115.806 106.01 115.383 106.702 115.114 107.322C114.908 107.797 114.804 108.272 114.804 108.747C114.804 109.243 115.063 109.707 115.579 110.141C116.116 110.554 116.994 110.792 118.213 110.854V112H105.665L105.974 110.854C107.09 110.668 108.081 110.275 108.949 109.676C110.105 108.85 111.768 107.146 113.937 104.564L143.712 69.0267H145.106L143.712 103.418C143.65 105.215 143.619 106.299 143.619 106.671C143.619 108.075 143.897 109.098 144.455 109.738C145.033 110.379 145.984 110.75 147.306 110.854L146.996 112H128.809L129.15 110.854C130.947 110.688 131.979 110.544 132.248 110.42C132.826 110.131 133.353 109.532 133.828 108.623C134.303 107.693 134.592 106.093 134.696 103.821L134.974 98.4605ZM134.974 95.9199L135.78 82.2254L124.099 95.9199H134.974ZM169.799 91.4893L166.081 104.223C165.544 106.02 165.276 107.342 165.276 108.189C165.276 108.974 165.596 109.604 166.236 110.079C166.876 110.554 168.209 110.812 170.233 110.854L169.799 112H149.567L149.939 110.854C151.963 110.854 153.44 110.461 154.37 109.676C155.32 108.891 156.187 107.136 156.972 104.409L164.78 77.4541C165.214 75.9462 165.431 74.7585 165.431 73.891C165.431 73.0648 165.162 72.4348 164.625 72.0011C164.088 71.5673 162.838 71.2781 160.876 71.1335L161.186 69.9872H178.598C183.576 69.9872 187.077 70.8547 189.101 72.5897C191.126 74.3248 192.138 76.5556 192.138 79.2821C192.138 82.1531 190.96 84.7454 188.606 87.0588C187.119 88.5046 184.485 89.7543 180.705 90.8077L184.485 103.542C185.497 106.95 186.375 109.005 187.119 109.707C187.883 110.41 189.143 110.792 190.899 110.854V112H177.824L171.875 91.4893L170.853 91.5513C170.625 91.5513 170.274 91.5306 169.799 91.4893ZM170.233 89.6303C170.956 89.6717 171.565 89.6923 172.061 89.6923C175.077 89.6923 177.555 88.6595 179.497 86.594C181.438 84.5285 182.409 81.8226 182.409 78.4765C182.409 76.4936 181.893 74.9858 180.86 73.953C179.827 72.9202 178.464 72.4038 176.77 72.4038C176.357 72.4038 175.872 72.4142 175.314 72.4348L170.233 89.6303ZM202.672 71.1335L203.013 69.9872H223.524L223.121 71.1335C221.262 71.1335 219.837 71.5467 218.845 72.3729C217.874 73.1991 217.017 74.9238 216.274 77.547L208.59 104.44C208.032 106.34 207.753 107.611 207.753 108.251C207.753 108.995 208.042 109.573 208.621 109.986C209.364 110.523 210.769 110.812 212.834 110.854L212.525 112H191.673L192.014 110.854C194.1 110.854 195.629 110.461 196.599 109.676C197.57 108.871 198.448 107.125 199.233 104.44L206.979 77.547C207.454 75.8946 207.691 74.6449 207.691 73.7981C207.691 73.0338 207.402 72.4348 206.824 72.0011C206.245 71.5673 204.861 71.2781 202.672 71.1335ZM244.592 72.3419L239.944 88.2051C243.105 88.1638 245.16 88.0399 246.11 87.8333C247.659 87.5235 249.064 86.8729 250.324 85.8814C251.584 84.8693 252.637 83.4751 253.484 81.6987H254.692L249.89 98.2746H248.651C248.857 97.2005 248.96 96.3433 248.96 95.703C248.96 94.4224 248.692 93.3999 248.155 92.6357C247.639 91.8714 246.967 91.3551 246.141 91.0865C245.315 90.7974 243.043 90.6115 239.325 90.5288L235.545 103.635L234.801 106.268C234.698 106.785 234.646 107.291 234.646 107.786C234.646 108.509 234.781 109.077 235.049 109.49C235.338 109.903 235.793 110.234 236.412 110.482C237.032 110.709 238.209 110.833 239.944 110.854L239.604 112H218.628L218.969 110.854C220.993 110.854 222.47 110.482 223.4 109.738C224.329 108.974 225.166 107.322 225.909 104.781L233.407 79.0652C234.192 76.3593 234.605 74.6243 234.646 73.86C234.605 73.1371 234.275 72.5278 233.655 72.0321C233.035 71.5157 231.765 71.2162 229.844 71.1335L230.154 69.9872H264.483L261.663 81.0791H260.517C260.393 78.7657 260.032 77.0513 259.433 75.9359C258.834 74.7999 257.842 73.922 256.458 73.3024C255.095 72.662 252.906 72.3419 249.89 72.3419H244.592ZM297.975 69.0267L294.474 83.2788H293.452C293.225 81.0481 292.822 79.2614 292.244 77.9188C291.376 75.9772 290.219 74.4797 288.774 73.4263C287.348 72.3729 285.799 71.8462 284.126 71.8462C282.515 71.8462 281.1 72.4658 279.881 73.7051C278.683 74.9238 278.084 76.3077 278.084 77.8568C278.084 79.3853 278.498 80.8932 279.324 82.3803C280.171 83.8469 282.154 86.0673 285.272 89.0417C287.772 91.417 289.445 93.4619 290.292 95.1763C291.159 96.8907 291.593 98.7496 291.593 100.753C291.593 103.005 290.994 105.08 289.796 106.981C288.598 108.881 286.853 110.358 284.56 111.411C282.288 112.444 279.706 112.96 276.814 112.96C275.038 112.96 272.797 112.692 270.091 112.155C267.406 111.639 265.619 111.38 264.731 111.38C264.029 111.38 263.399 111.494 262.841 111.721C262.283 111.928 261.591 112.341 260.765 112.96H259.557L263.306 96.9423H264.483C264.751 99.7514 265.319 102.147 266.187 104.13C267.054 106.093 268.294 107.631 269.905 108.747C271.516 109.842 273.354 110.389 275.42 110.389C277.465 110.389 279.169 109.718 280.532 108.375C281.916 107.012 282.608 105.421 282.608 103.604C282.608 102.054 282.215 100.567 281.431 99.1421C280.666 97.7169 278.9 95.641 276.132 92.9145C273.385 90.188 271.485 87.7507 270.432 85.6026C269.667 84.0121 269.285 82.3184 269.285 80.5214C269.285 77.4024 270.514 74.7069 272.972 72.4348C275.43 70.1627 278.642 69.0267 282.608 69.0267C284.405 69.0267 286.77 69.4295 289.703 70.235C291.417 70.7101 292.626 70.9476 293.328 70.9476C293.927 70.9476 294.464 70.8237 294.939 70.5759C295.414 70.3073 295.972 69.791 296.612 69.0267H297.975Z" fill="white" fill-opacity="0.75"/>
<path d="M36.4401 66.4448C36.1622 64.3005 35.9438 62.3745 35.7849 60.667C35.6261 58.9197 35.5467 57.3908 35.5467 56.0804C35.5467 48.1383 38.0087 41.5464 42.9328 36.3046C47.8569 31.0231 53.6745 28.3823 60.3856 28.3823C64.6743 28.3823 68.1093 29.5935 70.6904 32.0158C73.3113 34.4382 74.6218 37.3371 74.6218 40.7124C74.6218 44.9615 73.351 48.6148 70.8096 51.6725C67.0371 56.279 61.0011 60.3493 52.7016 63.8835C55.3622 72.4213 57.1889 77.941 58.1816 80.4428C59.1744 82.9445 60.5047 85.6647 62.1725 88.6033C64.436 86.1015 66.0642 83.6792 67.0569 81.3363C68.0497 78.9536 68.5461 77.0078 68.5461 75.4988C68.5461 74.2281 68.1688 73.1162 67.4143 72.1631C66.6598 71.2101 65.4288 70.5152 63.7212 70.0783L64.436 67.934H87.3093L86.4158 70.0783C84.2714 70.5946 82.4646 71.4682 80.9953 72.6992C79.526 73.9303 76.8058 77.2064 72.8348 82.5276C70.0154 86.3398 67.2158 89.6953 64.436 92.5942C67.6129 97.0021 70.5117 100.04 73.1326 101.708C74.8005 102.82 76.7066 103.376 78.8509 103.376C80.082 103.376 81.1541 103.177 82.0675 102.78C82.9808 102.383 84.0927 101.628 85.4032 100.516H87.3093C85.4032 104.607 82.8816 107.684 79.7444 109.749C76.6073 111.814 73.0532 112.847 69.0822 112.847C65.7465 112.847 62.7483 112.191 60.0877 110.881C57.4271 109.531 54.6077 107.267 51.6294 104.09C47.5392 106.989 43.4093 109.173 39.2397 110.643C35.1098 112.112 30.9402 112.847 26.7309 112.847C20.6155 112.847 15.751 111.139 12.1373 107.724C8.52367 104.309 6.71684 100.298 6.71684 95.6916C6.71684 92.0382 7.4912 88.782 9.03991 85.9228C10.5886 83.0637 13.5272 80.006 17.8556 76.7497C22.1841 73.4934 28.3789 70.0585 36.4401 66.4448ZM51.6294 59.4161C54.9254 57.0732 57.3279 54.6707 58.8369 52.2086C60.9415 48.8332 61.9938 45.2394 61.9938 41.4272C61.9938 38.5681 61.3982 36.3641 60.2069 34.8154C59.2538 33.6638 58.0426 33.088 56.5734 33.088C54.7864 33.088 53.3767 33.8028 52.3442 35.2324C50.8352 37.3768 50.0807 40.6926 50.0807 45.1799C50.0807 47.2051 50.1998 49.409 50.4381 51.7917C50.7161 54.1346 51.1132 56.6761 51.6294 59.4161ZM37.3336 70.9123C32.7669 73.414 29.4908 76.0151 27.5053 78.7154C25.5595 81.376 24.5866 84.5727 24.5866 88.3055C24.5866 92.8722 25.9963 96.7241 28.8157 99.8612C31.6749 102.959 34.8517 104.507 38.3462 104.507C39.8552 104.507 41.5231 104.17 43.3498 103.495C45.1764 102.82 47.162 101.827 49.3063 100.516C46.884 96.8631 44.5411 92.2567 42.2776 86.6972C40.0538 81.1377 38.4058 75.8761 37.3336 70.9123Z" fill="black"/>
</svg>
