<svg width="375" height="140" viewBox="0 0 375 140" fill="none" xmlns="http://www.w3.org/2000/svg">
<path d="M113.849 66.4448C113.571 64.3005 113.352 62.3745 113.193 60.667C113.035 58.9197 112.955 57.3908 112.955 56.0804C112.955 48.1383 115.417 41.5464 120.341 36.3046C125.265 31.0231 131.083 28.3823 137.794 28.3823C142.083 28.3823 145.518 29.5935 148.099 32.0158C150.72 34.4382 152.03 37.3371 152.03 40.7124C152.03 44.9615 150.759 48.6148 148.218 51.6725C144.446 56.279 138.41 60.3493 130.11 63.8835C132.771 72.4213 134.597 77.941 135.59 80.4428C136.583 82.9445 137.913 85.6647 139.581 88.6033C141.844 86.1015 143.473 83.6792 144.465 81.3363C145.458 78.9536 145.955 77.0078 145.955 75.4988C145.955 74.2281 145.577 73.1162 144.823 72.1631C144.068 71.2101 142.837 70.5152 141.13 70.0783L141.844 67.934H164.718L163.824 70.0783C161.68 70.5946 159.873 71.4682 158.404 72.6992C156.934 73.9303 154.214 77.2064 150.243 82.5276C147.424 86.3398 144.624 89.6953 141.844 92.5942C145.021 97.0021 147.92 100.04 150.541 101.708C152.209 102.82 154.115 103.376 156.259 103.376C157.49 103.376 158.563 103.177 159.476 102.78C160.389 102.383 161.501 101.628 162.812 100.516H164.718C162.812 104.607 160.29 107.684 157.153 109.749C154.016 111.814 150.462 112.847 146.491 112.847C143.155 112.847 140.157 112.191 137.496 110.881C134.836 109.531 132.016 107.267 129.038 104.09C124.948 106.989 120.818 109.173 116.648 110.643C112.518 112.112 108.349 112.847 104.139 112.847C98.024 112.847 93.1594 111.139 89.5458 107.724C85.9321 104.309 84.1253 100.298 84.1253 95.6916C84.1253 92.0382 84.8996 88.782 86.4484 85.9228C87.9971 83.0637 90.9356 80.006 95.2641 76.7497C99.5925 73.4934 105.787 70.0585 113.849 66.4448ZM129.038 59.4161C132.334 57.0732 134.736 54.6707 136.245 52.2086C138.35 48.8332 139.402 45.2394 139.402 41.4272C139.402 38.5681 138.807 36.3641 137.615 34.8154C136.662 33.6638 135.451 33.088 133.982 33.088C132.195 33.088 130.785 33.8028 129.753 35.2324C128.244 37.3768 127.489 40.6926 127.489 45.1799C127.489 47.2051 127.608 49.409 127.847 51.7917C128.125 54.1346 128.522 56.6761 129.038 59.4161ZM114.742 70.9123C110.175 73.414 106.899 76.0151 104.914 78.7154C102.968 81.376 101.995 84.5727 101.995 88.3055C101.995 92.8722 103.405 96.7241 106.224 99.8612C109.083 102.959 112.26 104.507 115.755 104.507C117.264 104.507 118.932 104.17 120.758 103.495C122.585 102.82 124.57 101.827 126.715 100.516C124.292 96.8631 121.95 92.2567 119.686 86.6972C117.462 81.1377 115.814 75.8761 114.742 70.9123Z" fill="black"/>
<path d="M83.4727 63H73.1543L73.3477 62.3496C74.0273 62.291 74.5312 62.0977 74.8594 61.7695C75.1875 61.4297 75.3516 61.0137 75.3516 60.5215C75.3516 59.9941 75.1699 59.1562 74.8066 58.0078L72.2754 49.8867L69.7617 58.5879C69.4805 59.5605 69.3398 60.2637 69.3398 60.6973C69.3398 61.1895 69.5332 61.5879 69.9199 61.8926C70.3066 62.1855 71.0039 62.3379 72.0117 62.3496L71.8184 63H60.2344L60.4277 62.3496C61.3535 62.3262 62.0449 62.2031 62.502 61.9805C62.959 61.7578 63.3223 61.4121 63.5918 60.9434C63.8613 60.4746 64.1836 59.5781 64.5586 58.2539L68.5664 44.3848C69.0234 42.791 69.252 41.7773 69.252 41.3438C69.252 40.9453 69.0645 40.5996 68.6895 40.3066C68.3262 40.0137 67.6289 39.8496 66.5977 39.8145L66.791 39.1641H78.0059L77.8125 39.8145C77.0625 39.8145 76.4883 39.9258 76.0898 40.1484C75.5625 40.4531 75.1348 40.8984 74.8066 41.4844C74.584 41.8711 74.2793 42.7676 73.8926 44.1738L72.2754 49.8691L78.4805 44.1738C79.6875 43.0605 80.3613 42.3926 80.502 42.1699C80.6895 41.877 80.7832 41.5664 80.7832 41.2383C80.7832 40.8867 80.6543 40.582 80.3965 40.3242C80.1504 40.0664 79.7168 39.8965 79.0957 39.8145L79.2891 39.1641H88.2715L88.0781 39.8145C87.3867 39.873 86.8242 39.9727 86.3906 40.1133C85.8164 40.3008 85.1602 40.623 84.4219 41.0801C83.6836 41.5254 82.9336 42.0527 82.1719 42.6621L80.5371 44.1738L76.7578 47.5664L79.5703 56.3555C80.4844 59.25 81.1934 60.9609 81.6973 61.4883C82.2012 62.0156 82.8574 62.3027 83.666 62.3496L83.4727 63ZM95.5312 63.5625C93.6094 63.5625 92.0566 63.1699 90.873 62.3848C89.6895 61.5996 88.7988 60.5273 88.2012 59.168C87.6152 57.8086 87.3223 56.4844 87.3223 55.1953C87.3223 52.5938 88.0664 49.9746 89.5547 47.3379C91.043 44.6895 93.0469 42.5742 95.5664 40.9922C98.0977 39.3984 100.594 38.6016 103.055 38.6016C104.496 38.6016 105.861 38.9648 107.15 39.6914C108.451 40.418 109.459 41.4316 110.174 42.7324C110.9 44.0332 111.264 45.3457 111.264 46.6699C111.264 49.6348 110.32 52.6113 108.434 55.5996C106.547 58.5762 104.426 60.7324 102.07 62.0684C100.289 63.0645 98.1094 63.5625 95.5312 63.5625ZM102.475 40.043C101.549 40.043 100.758 40.2129 100.102 40.5527C99.457 40.8809 98.7832 41.4375 98.0801 42.2227C97.377 43.0078 96.6621 44.1328 95.9355 45.5977C95.209 47.0508 94.5234 49.0312 93.8789 51.5391C93.2461 54.0469 92.9297 56.1387 92.9297 57.8145C92.9297 59.2441 93.2402 60.3281 93.8613 61.0664C94.4824 61.793 95.2793 62.1562 96.252 62.1562C97.541 62.1562 98.6367 61.7285 99.5391 60.873C101.332 59.1738 102.791 56.6836 103.916 53.4023C105.053 50.1094 105.621 47.1797 105.621 44.6133C105.621 43.0078 105.316 41.8477 104.707 41.1328C104.109 40.4062 103.365 40.043 102.475 40.043ZM125.045 39.1641L126.803 55.5469L138.141 39.1641H146.49L146.279 39.8145C145.131 39.8145 144.258 40.0605 143.66 40.5527C143.062 41.0449 142.553 42.0176 142.131 43.4707L137.736 58.7285C137.455 59.6895 137.314 60.4043 137.314 60.873C137.314 61.3066 137.49 61.6582 137.842 61.9277C138.193 62.1855 138.885 62.3262 139.916 62.3496L139.758 63H127.857L128.068 62.3496C129.346 62.3496 130.289 62.1094 130.898 61.6289C131.508 61.1367 132.023 60.1699 132.445 58.7285L136.928 43.2773L123.287 63H122.566L120.422 42.8906L115.869 58.7285C115.682 59.373 115.588 59.9121 115.588 60.3457C115.588 60.9316 115.787 61.4062 116.186 61.7695C116.596 62.1211 117.287 62.3145 118.26 62.3496L118.084 63H110.209L110.367 62.3496C111.316 62.3145 112.043 62.1152 112.547 61.752C113.438 61.0957 114.082 60.0879 114.48 58.7285L119.631 41.1152C119.139 40.5762 118.693 40.2246 118.295 40.0605C117.908 39.8965 117.252 39.8145 116.326 39.8145L116.537 39.1641H125.045ZM153.662 52.0488L151.729 58.6934C151.459 59.6309 151.324 60.293 151.324 60.6797C151.324 61.2188 151.5 61.6289 151.852 61.9102C152.203 62.1797 153 62.3262 154.242 62.3496L154.014 63H142.377L142.57 62.3496C143.555 62.3379 144.252 62.2441 144.662 62.0684C145.072 61.8809 145.412 61.582 145.682 61.1719C145.881 60.9023 146.18 60.0762 146.578 58.6934L150.99 43.5586C151.295 42.5508 151.447 41.8301 151.447 41.3965C151.447 40.9629 151.254 40.5996 150.867 40.3066C150.48 40.002 149.777 39.8379 148.758 39.8145L148.951 39.1641H158.391C160.98 39.1641 162.844 39.4922 163.98 40.1484C165.738 41.1797 166.617 42.7266 166.617 44.7891C166.617 46.7812 165.738 48.5391 163.98 50.0625C162.234 51.5742 159.879 52.3301 156.914 52.3301C156.023 52.3301 154.939 52.2363 153.662 52.0488ZM154.014 50.6953C154.775 50.7891 155.408 50.8359 155.912 50.8359C157.529 50.8359 158.801 50.0977 159.727 48.6211C160.652 47.1445 161.115 45.6035 161.115 43.998C161.115 42.9082 160.816 42.0645 160.219 41.4668C159.621 40.8574 158.795 40.5527 157.74 40.5527C157.518 40.5527 157.242 40.5645 156.914 40.5879L154.014 50.6953ZM175.582 63.5625C173.66 63.5625 172.107 63.1699 170.924 62.3848C169.74 61.5996 168.85 60.5273 168.252 59.168C167.666 57.8086 167.373 56.4844 167.373 55.1953C167.373 52.5938 168.117 49.9746 169.605 47.3379C171.094 44.6895 173.098 42.5742 175.617 40.9922C178.148 39.3984 180.645 38.6016 183.105 38.6016C184.547 38.6016 185.912 38.9648 187.201 39.6914C188.502 40.418 189.51 41.4316 190.225 42.7324C190.951 44.0332 191.314 45.3457 191.314 46.6699C191.314 49.6348 190.371 52.6113 188.484 55.5996C186.598 58.5762 184.477 60.7324 182.121 62.0684C180.34 63.0645 178.16 63.5625 175.582 63.5625ZM182.525 40.043C181.6 40.043 180.809 40.2129 180.152 40.5527C179.508 40.8809 178.834 41.4375 178.131 42.2227C177.428 43.0078 176.713 44.1328 175.986 45.5977C175.26 47.0508 174.574 49.0312 173.93 51.5391C173.297 54.0469 172.98 56.1387 172.98 57.8145C172.98 59.2441 173.291 60.3281 173.912 61.0664C174.533 61.793 175.33 62.1562 176.303 62.1562C177.592 62.1562 178.688 61.7285 179.59 60.873C181.383 59.1738 182.842 56.6836 183.967 53.4023C185.104 50.1094 185.672 47.1797 185.672 44.6133C185.672 43.0078 185.367 41.8477 184.758 41.1328C184.16 40.4062 183.416 40.043 182.525 40.043ZM212.479 38.6191L210.492 46.7051H209.912C209.783 45.4395 209.555 44.4258 209.227 43.6641C208.734 42.5625 208.078 41.7129 207.258 41.1152C206.449 40.5176 205.57 40.2188 204.621 40.2188C203.707 40.2188 202.904 40.5703 202.213 41.2734C201.533 41.9648 201.193 42.75 201.193 43.6289C201.193 44.4961 201.428 45.3516 201.896 46.1953C202.377 47.0273 203.502 48.2871 205.271 49.9746C206.689 51.3223 207.639 52.4824 208.119 53.4551C208.611 54.4277 208.857 55.4824 208.857 56.6191C208.857 57.8965 208.518 59.0742 207.838 60.1523C207.158 61.2305 206.168 62.0684 204.867 62.666C203.578 63.252 202.113 63.5449 200.473 63.5449C199.465 63.5449 198.193 63.3926 196.658 63.0879C195.135 62.7949 194.121 62.6484 193.617 62.6484C193.219 62.6484 192.861 62.7129 192.545 62.8418C192.229 62.959 191.836 63.1934 191.367 63.5449H190.682L192.809 54.457H193.477C193.629 56.0508 193.951 57.4102 194.443 58.5352C194.936 59.6484 195.639 60.5215 196.553 61.1543C197.467 61.7754 198.51 62.0859 199.682 62.0859C200.842 62.0859 201.809 61.7051 202.582 60.9434C203.367 60.1699 203.76 59.2676 203.76 58.2363C203.76 57.3574 203.537 56.5137 203.092 55.7051C202.658 54.8965 201.656 53.7188 200.086 52.1719C198.527 50.625 197.449 49.2422 196.852 48.0234C196.418 47.1211 196.201 46.1602 196.201 45.1406C196.201 43.3711 196.898 41.8418 198.293 40.5527C199.688 39.2637 201.51 38.6191 203.76 38.6191C204.779 38.6191 206.121 38.8477 207.785 39.3047C208.758 39.5742 209.443 39.709 209.842 39.709C210.182 39.709 210.486 39.6387 210.756 39.498C211.025 39.3457 211.342 39.0527 211.705 38.6191H212.479ZM216.486 39.8145L216.68 39.1641H228.316L228.088 39.8145C227.033 39.8145 226.225 40.0488 225.662 40.5176C225.111 40.9863 224.625 41.9648 224.203 43.4531L219.844 58.7109C219.527 59.7891 219.369 60.5098 219.369 60.873C219.369 61.2949 219.533 61.623 219.861 61.8574C220.283 62.1621 221.08 62.3262 222.252 62.3496L222.076 63H210.246L210.439 62.3496C211.623 62.3496 212.49 62.127 213.041 61.6816C213.592 61.2246 214.09 60.2344 214.535 58.7109L218.93 43.4531C219.199 42.5156 219.334 41.8066 219.334 41.3262C219.334 40.8926 219.17 40.5527 218.842 40.3066C218.514 40.0605 217.729 39.8965 216.486 39.8145ZM231.305 39.1641H250.482L248.672 45.5801H248.039C248.062 45.2402 248.074 44.9414 248.074 44.6836C248.074 43.4648 247.717 42.5215 247.002 41.8535C246.287 41.1738 245.08 40.7871 243.381 40.6934L238.072 58.6406C237.779 59.6367 237.633 60.375 237.633 60.8555C237.633 61.3008 237.814 61.6582 238.178 61.9277C238.541 62.1855 239.279 62.3262 240.393 62.3496L240.234 63H228.404L228.615 62.3496C229.822 62.3496 230.701 62.127 231.252 61.6816C231.803 61.2246 232.307 60.2109 232.764 58.6406L238.072 40.6934C236.244 40.752 234.715 41.1504 233.484 41.8887C232.254 42.627 231.129 43.8574 230.109 45.5801H229.424L231.305 39.1641ZM252.521 39.8145L252.715 39.1641H264.352L264.123 39.8145C263.068 39.8145 262.26 40.0488 261.697 40.5176C261.146 40.9863 260.66 41.9648 260.238 43.4531L255.879 58.7109C255.562 59.7891 255.404 60.5098 255.404 60.873C255.404 61.2949 255.568 61.623 255.896 61.8574C256.318 62.1621 257.115 62.3262 258.287 62.3496L258.111 63H246.281L246.475 62.3496C247.658 62.3496 248.525 62.127 249.076 61.6816C249.627 61.2246 250.125 60.2344 250.57 58.7109L254.965 43.4531C255.234 42.5156 255.369 41.8066 255.369 41.3262C255.369 40.8926 255.205 40.5527 254.877 40.3066C254.549 40.0605 253.764 39.8965 252.521 39.8145ZM271.699 63.5625C269.777 63.5625 268.225 63.1699 267.041 62.3848C265.857 61.5996 264.967 60.5273 264.369 59.168C263.783 57.8086 263.49 56.4844 263.49 55.1953C263.49 52.5938 264.234 49.9746 265.723 47.3379C267.211 44.6895 269.215 42.5742 271.734 40.9922C274.266 39.3984 276.762 38.6016 279.223 38.6016C280.664 38.6016 282.029 38.9648 283.318 39.6914C284.619 40.418 285.627 41.4316 286.342 42.7324C287.068 44.0332 287.432 45.3457 287.432 46.6699C287.432 49.6348 286.488 52.6113 284.602 55.5996C282.715 58.5762 280.594 60.7324 278.238 62.0684C276.457 63.0645 274.277 63.5625 271.699 63.5625ZM278.643 40.043C277.717 40.043 276.926 40.2129 276.27 40.5527C275.625 40.8809 274.951 41.4375 274.248 42.2227C273.545 43.0078 272.83 44.1328 272.104 45.5977C271.377 47.0508 270.691 49.0312 270.047 51.5391C269.414 54.0469 269.098 56.1387 269.098 57.8145C269.098 59.2441 269.408 60.3281 270.029 61.0664C270.65 61.793 271.447 62.1562 272.42 62.1562C273.709 62.1562 274.805 61.7285 275.707 60.873C277.5 59.1738 278.959 56.6836 280.084 53.4023C281.221 50.1094 281.789 47.1797 281.789 44.6133C281.789 43.0078 281.484 41.8477 280.875 41.1328C280.277 40.4062 279.533 40.043 278.643 40.043ZM300.422 39.1641L307.875 55.0547L311.232 43.5234C311.408 42.8906 311.496 42.3281 311.496 41.8359C311.496 41.25 311.309 40.7812 310.934 40.4297C310.57 40.0781 309.938 39.873 309.035 39.8145L309.229 39.1641H316.787L316.611 39.8145C315.65 39.873 314.854 40.1426 314.221 40.623C313.6 41.1035 313.072 42.0703 312.639 43.5234L306.82 63.2637H306.152L296.59 42.9434L291.967 58.7812C291.814 59.332 291.738 59.8242 291.738 60.2578C291.738 60.8906 291.943 61.4004 292.354 61.7871C292.775 62.1621 293.443 62.3496 294.357 62.3496L294.199 63H286.43L286.588 62.3496C287.256 62.3496 287.73 62.291 288.012 62.1738C288.504 61.9863 288.984 61.6289 289.453 61.1016C289.922 60.5625 290.303 59.7891 290.596 58.7812L295.641 41.4668C295.02 40.7754 294.498 40.3301 294.076 40.1309C293.654 39.9316 293.021 39.8262 292.178 39.8145L292.371 39.1641H300.422ZM124.395 79.6191L122.637 87.1953H121.951C121.869 85.1328 121.359 83.5977 120.422 82.5898C119.496 81.5703 118.283 81.0605 116.783 81.0605C115.166 81.0605 113.555 81.752 111.949 83.1348C110.344 84.5176 108.984 86.6328 107.871 89.4805C106.969 91.7891 106.518 94.0684 106.518 96.3184C106.518 98.334 107.01 99.875 107.994 100.941C108.99 101.996 110.35 102.523 112.072 102.523C113.467 102.523 114.738 102.219 115.887 101.609C117.035 101 118.195 100.01 119.367 98.6387H120.211C118.758 100.818 117.287 102.348 115.799 103.227C114.322 104.105 112.512 104.545 110.367 104.545C107.496 104.545 105.182 103.678 103.424 101.943C101.678 100.197 100.805 97.9238 100.805 95.123C100.805 92.498 101.502 89.9961 102.896 87.6172C104.291 85.2266 106.295 83.2988 108.908 81.834C111.533 80.3574 114.141 79.6191 116.73 79.6191C117.715 79.6191 118.939 79.8301 120.404 80.252C121.154 80.4629 121.676 80.5684 121.969 80.5684C122.555 80.5684 123.146 80.252 123.744 79.6191H124.395ZM133.166 91.1328H141.885L143.818 84.4707C144.076 83.5566 144.205 82.8594 144.205 82.3789C144.205 81.9102 144.047 81.5527 143.73 81.3066C143.414 81.0605 142.652 80.8965 141.445 80.8145L141.639 80.1641H153.486L153.293 80.8145C152.133 80.8145 151.254 81.0605 150.656 81.5527C150.059 82.0449 149.549 83.0176 149.127 84.4707L144.697 99.7285C144.404 100.725 144.258 101.439 144.258 101.873C144.258 102.307 144.416 102.635 144.732 102.857C145.143 103.162 145.887 103.326 146.965 103.35L146.789 104H135.17L135.434 103.35C136.559 103.35 137.385 103.133 137.912 102.699C138.451 102.254 138.943 101.264 139.389 99.7285L141.445 92.627H132.762L130.723 99.7285C130.43 100.701 130.283 101.422 130.283 101.891C130.283 102.312 130.459 102.658 130.811 102.928C131.174 103.186 131.883 103.326 132.938 103.35L132.762 104H121.301L121.494 103.35C122.619 103.35 123.439 103.133 123.955 102.699C124.482 102.254 124.969 101.264 125.414 99.7285L129.844 84.4707C130.102 83.5918 130.23 82.9004 130.23 82.3965C130.23 81.916 130.072 81.5527 129.756 81.3066C129.451 81.0605 128.713 80.8965 127.541 80.8145L127.734 80.1641H139.389L139.125 80.8145C138.047 80.8145 137.232 81.0488 136.682 81.5176C136.131 81.9746 135.627 82.959 135.17 84.4707L133.166 91.1328ZM165.07 96.3184H157.688L156.211 98.1465L154.523 100.168C154.195 100.602 153.955 100.994 153.803 101.346C153.686 101.615 153.627 101.885 153.627 102.154C153.627 102.436 153.773 102.699 154.066 102.945C154.371 103.18 154.869 103.314 155.561 103.35V104H148.441L148.617 103.35C149.25 103.244 149.812 103.021 150.305 102.682C150.961 102.213 151.904 101.246 153.135 99.7812L170.027 79.6191H170.818L170.027 99.1309C169.992 100.15 169.975 100.766 169.975 100.977C169.975 101.773 170.133 102.354 170.449 102.717C170.777 103.08 171.316 103.291 172.066 103.35L171.891 104H161.572L161.766 103.35C162.785 103.256 163.371 103.174 163.523 103.104C163.852 102.939 164.15 102.6 164.42 102.084C164.689 101.557 164.854 100.648 164.912 99.3594L165.07 96.3184ZM165.07 94.877L165.527 87.1074L158.9 94.877H165.07ZM184.828 92.3633L182.719 99.5879C182.414 100.607 182.262 101.357 182.262 101.838C182.262 102.283 182.443 102.641 182.807 102.91C183.17 103.18 183.926 103.326 185.074 103.35L184.828 104H173.35L173.561 103.35C174.709 103.35 175.547 103.127 176.074 102.682C176.613 102.236 177.105 101.24 177.551 99.6934L181.98 84.4004C182.227 83.5449 182.35 82.8711 182.35 82.3789C182.35 81.9102 182.197 81.5527 181.893 81.3066C181.588 81.0605 180.879 80.8965 179.766 80.8145L179.941 80.1641H189.82C192.645 80.1641 194.631 80.6562 195.779 81.6406C196.928 82.625 197.502 83.8906 197.502 85.4375C197.502 87.0664 196.834 88.5371 195.498 89.8496C194.654 90.6699 193.16 91.3789 191.016 91.9766L193.16 99.2012C193.734 101.135 194.232 102.301 194.654 102.699C195.088 103.098 195.803 103.314 196.799 103.35V104H189.381L186.006 92.3633L185.426 92.3984C185.297 92.3984 185.098 92.3867 184.828 92.3633ZM185.074 91.3086C185.484 91.332 185.83 91.3438 186.111 91.3438C187.822 91.3438 189.229 90.7578 190.33 89.5859C191.432 88.4141 191.982 86.8789 191.982 84.9805C191.982 83.8555 191.689 83 191.104 82.4141C190.518 81.8281 189.744 81.5352 188.783 81.5352C188.549 81.5352 188.273 81.541 187.957 81.5527L185.074 91.3086ZM204.27 80.1641H223.447L221.637 86.5801H221.004C221.027 86.2402 221.039 85.9414 221.039 85.6836C221.039 84.4648 220.682 83.5215 219.967 82.8535C219.252 82.1738 218.045 81.7871 216.346 81.6934L211.037 99.6406C210.744 100.637 210.598 101.375 210.598 101.855C210.598 102.301 210.779 102.658 211.143 102.928C211.506 103.186 212.244 103.326 213.357 103.35L213.199 104H201.369L201.58 103.35C202.787 103.35 203.666 103.127 204.217 102.682C204.768 102.225 205.271 101.211 205.729 99.6406L211.037 81.6934C209.209 81.752 207.68 82.1504 206.449 82.8887C205.219 83.627 204.094 84.8574 203.074 86.5801H202.389L204.27 80.1641ZM234.117 81.4824L231.463 90.7285H232.271C234.404 90.7285 235.957 90.4473 236.93 89.8848C237.914 89.3223 238.746 88.3262 239.426 86.8965H240.076L237.404 96.1777H236.789C236.895 95.5566 236.947 95.0527 236.947 94.666C236.947 94.0215 236.754 93.4941 236.367 93.084C235.992 92.6738 235.5 92.3809 234.891 92.2051C234.492 92.0879 233.666 92.0293 232.412 92.0293H231.041L228.756 100.027C228.557 100.73 228.457 101.252 228.457 101.592C228.457 101.861 228.586 102.078 228.844 102.242C229.219 102.477 229.928 102.594 230.971 102.594C232.975 102.594 234.861 102.172 236.631 101.328C238.4 100.473 239.988 99.1836 241.395 97.4609H242.115L239.637 104H219.246L219.457 103.35C220.652 103.35 221.525 103.127 222.076 102.682C222.627 102.225 223.125 101.229 223.57 99.6934L228.053 84.3477C228.299 83.4922 228.422 82.8184 228.422 82.3262C228.422 81.8809 228.264 81.541 227.947 81.3066C227.631 81.0605 226.91 80.8965 225.785 80.8145L225.979 80.1641H244.98L243.451 86.123H242.818C242.771 84.9512 242.59 84.125 242.273 83.6445C241.781 82.8945 241.125 82.3496 240.305 82.0098C239.496 81.6582 238.178 81.4824 236.35 81.4824H234.117ZM258.146 80.1641L259.904 96.5469L271.242 80.1641H279.592L279.381 80.8145C278.232 80.8145 277.359 81.0605 276.762 81.5527C276.164 82.0449 275.654 83.0176 275.232 84.4707L270.838 99.7285C270.557 100.689 270.416 101.404 270.416 101.873C270.416 102.307 270.592 102.658 270.943 102.928C271.295 103.186 271.986 103.326 273.018 103.35L272.859 104H260.959L261.17 103.35C262.447 103.35 263.391 103.109 264 102.629C264.609 102.137 265.125 101.17 265.547 99.7285L270.029 84.2773L256.389 104H255.668L253.523 83.8906L248.971 99.7285C248.783 100.373 248.689 100.912 248.689 101.346C248.689 101.932 248.889 102.406 249.287 102.77C249.697 103.121 250.389 103.314 251.361 103.35L251.186 104H243.311L243.469 103.35C244.418 103.314 245.145 103.115 245.648 102.752C246.539 102.096 247.184 101.088 247.582 99.7285L252.732 82.1152C252.24 81.5762 251.795 81.2246 251.396 81.0605C251.01 80.8965 250.354 80.8145 249.428 80.8145L249.639 80.1641H258.146Z" fill="white" fill-opacity="0.75"/>
</svg>
