<svg width="217" height="140" viewBox="0 0 217 140" fill="none" xmlns="http://www.w3.org/2000/svg">
<path d="M34.8486 66.4448C34.5706 64.3005 34.3522 62.3745 34.1934 60.667C34.0345 58.9197 33.9551 57.3908 33.9551 56.0804C33.9551 48.1383 36.4172 41.5464 41.3413 36.3046C46.2654 31.0231 52.0829 28.3823 58.794 28.3823C63.0827 28.3823 66.5177 29.5935 69.0989 32.0158C71.7198 34.4382 73.0302 37.3371 73.0302 40.7124C73.0302 44.9615 71.7595 48.6148 69.218 51.6725C65.4455 56.279 59.4095 60.3493 51.11 63.8835C53.7706 72.4213 55.5973 77.941 56.5901 80.4428C57.5828 82.9445 58.9131 85.6647 60.581 88.6033C62.8445 86.1015 64.4726 83.6792 65.4654 81.3363C66.4581 78.9536 66.9545 77.0078 66.9545 75.4988C66.9545 74.2281 66.5773 73.1162 65.8228 72.1631C65.0683 71.2101 63.8372 70.5152 62.1297 70.0783L62.8445 67.934H85.7177L84.8242 70.0783C82.6799 70.5946 80.873 71.4682 79.4038 72.6992C77.9345 73.9303 75.2143 77.2064 71.2433 82.5276C68.4238 86.3398 65.6242 89.6953 62.8445 92.5942C66.0213 97.0021 68.9202 100.04 71.5411 101.708C73.2089 102.82 75.115 103.376 77.2594 103.376C78.4904 103.376 79.5626 103.177 80.4759 102.78C81.3893 102.383 82.5012 101.628 83.8116 100.516H85.7177C83.8116 104.607 81.29 107.684 78.1529 109.749C75.0157 111.814 71.4617 112.847 67.4906 112.847C64.1549 112.847 61.1568 112.191 58.4962 110.881C55.8356 109.531 53.0161 107.267 50.0379 104.09C45.9477 106.989 41.8178 109.173 37.6482 110.643C33.5183 112.112 29.3487 112.847 25.1394 112.847C19.024 112.847 14.1594 111.139 10.5458 107.724C6.93212 104.309 5.12529 100.298 5.12529 95.6916C5.12529 92.0382 5.89965 88.782 7.44836 85.9228C8.99707 83.0637 11.9356 80.006 16.2641 76.7497C20.5925 73.4934 26.7874 70.0585 34.8486 66.4448ZM50.0379 59.4161C53.3338 57.0732 55.7363 54.6707 57.2453 52.2086C59.35 48.8332 60.4023 45.2394 60.4023 41.4272C60.4023 38.5681 59.8066 36.3641 58.6153 34.8154C57.6623 33.6638 56.4511 33.088 54.9818 33.088C53.1948 33.088 51.7851 33.8028 50.7526 35.2324C49.2436 37.3768 48.4891 40.6926 48.4891 45.1799C48.4891 47.2051 48.6083 49.409 48.8465 51.7917C49.1245 54.1346 49.5216 56.6761 50.0379 59.4161ZM35.7421 70.9123C31.1754 73.414 27.8993 76.0151 25.9137 78.7154C23.9679 81.376 22.995 84.5727 22.995 88.3055C22.995 92.8722 24.4047 96.7241 27.2242 99.8612C30.0833 102.959 33.2602 104.507 36.7547 104.507C38.2637 104.507 39.9315 104.17 41.7582 103.495C43.5849 102.82 45.5704 101.827 47.7148 100.516C45.2924 96.8631 42.9495 92.2567 40.686 86.6972C38.4622 81.1377 36.8143 75.8761 35.7421 70.9123Z" fill="black"/>
<path d="M28.753 83.5625C26.8311 83.5625 25.2784 83.1699 24.0948 82.3848C22.9112 81.5996 22.0206 80.5273 21.4229 79.168C20.837 77.8086 20.544 76.4844 20.544 75.1953C20.544 72.5938 21.2881 69.9746 22.7764 67.3379C24.2647 64.6895 26.2686 62.5742 28.7881 60.9922C31.3194 59.3984 33.8155 58.6016 36.2764 58.6016C37.7178 58.6016 39.0831 58.9648 40.3721 59.6914C41.6729 60.418 42.6807 61.4316 43.3956 62.7324C44.1221 64.0332 44.4854 65.3457 44.4854 66.6699C44.4854 69.6348 43.5421 72.6113 41.6553 75.5996C39.7686 78.5762 37.6475 80.7324 35.2921 82.0684C33.5108 83.0645 31.3311 83.5625 28.753 83.5625ZM35.6964 60.043C34.7706 60.043 33.9796 60.2129 33.3233 60.5527C32.6788 60.8809 32.0049 61.4375 31.3018 62.2227C30.5987 63.0078 29.8839 64.1328 29.1573 65.5977C28.4307 67.0508 27.7452 69.0312 27.1006 71.5391C26.4678 74.0469 26.1514 76.1387 26.1514 77.8145C26.1514 79.2441 26.462 80.3281 27.0831 81.0664C27.7042 81.793 28.501 82.1562 29.4737 82.1562C30.7628 82.1562 31.8585 81.7285 32.7608 80.873C34.5538 79.1738 36.0128 76.6836 37.1378 73.4023C38.2745 70.1094 38.8428 67.1797 38.8428 64.6133C38.8428 63.0078 38.5381 61.8477 37.9288 61.1328C37.3311 60.4062 36.587 60.043 35.6964 60.043ZM50.2159 59.1641H59.6378C61.7354 59.1641 63.2354 59.2754 64.1378 59.498C65.3214 59.7793 66.2354 60.3301 66.8799 61.1504C67.5362 61.959 67.8643 62.8789 67.8643 63.9102C67.8643 64.7539 67.6065 65.6152 67.0909 66.4941C66.5753 67.373 65.8018 68.0996 64.7706 68.6738C63.751 69.2363 62.1807 69.7578 60.0596 70.2383C62.2628 70.8594 63.7921 71.6562 64.6475 72.6289C65.503 73.6016 65.9307 74.7324 65.9307 76.0215C65.9307 77.2285 65.5089 78.4238 64.6651 79.6074C63.8214 80.7793 62.7022 81.6406 61.3077 82.1914C59.9131 82.7305 57.3585 83 53.6436 83H43.7296L43.9581 82.3496C44.919 82.3496 45.6046 82.2617 46.0147 82.0859C46.4366 81.9102 46.7706 81.6406 47.0167 81.2773C47.2745 80.9023 47.5733 80.1289 47.9131 78.957L52.1671 64.2969C52.6006 62.8086 52.8174 61.8125 52.8174 61.3086C52.8174 60.8984 52.6417 60.5586 52.2901 60.2891C51.9503 60.0195 51.2003 59.8613 50.0401 59.8145L50.2159 59.1641ZM55.6124 69.6934C57.2061 69.6699 58.46 69.418 59.3741 68.9375C60.2999 68.457 61.0381 67.6719 61.5889 66.582C62.1514 65.4805 62.4327 64.4434 62.4327 63.4707C62.4327 62.5566 62.1456 61.8125 61.5714 61.2383C60.9971 60.6641 60.2296 60.3887 59.2686 60.4121L58.3018 60.4473L55.6124 69.6934ZM55.1905 71.0117L52.1495 81.6113C52.7354 81.6348 53.1749 81.6465 53.4678 81.6465C56.0811 81.6465 57.8975 80.9199 58.9171 79.4668C59.9366 78.002 60.4464 76.4375 60.4464 74.7734C60.4464 73.9766 60.2471 73.2734 59.8487 72.6641C59.462 72.043 58.9581 71.6152 58.337 71.3809C57.7159 71.1348 56.6671 71.0117 55.1905 71.0117ZM78.9913 71.3633L76.8819 78.5879C76.5772 79.6074 76.4249 80.3574 76.4249 80.8379C76.4249 81.2832 76.6065 81.6406 76.9698 81.9102C77.3331 82.1797 78.0889 82.3262 79.2374 82.3496L78.9913 83H67.5128L67.7237 82.3496C68.8721 82.3496 69.71 82.127 70.2374 81.6816C70.7764 81.2363 71.2686 80.2402 71.7139 78.6934L76.1436 63.4004C76.3897 62.5449 76.5128 61.8711 76.5128 61.3789C76.5128 60.9102 76.3604 60.5527 76.0557 60.3066C75.751 60.0605 75.0421 59.8965 73.9288 59.8145L74.1046 59.1641H83.9835C86.8077 59.1641 88.794 59.6562 89.9424 60.6406C91.0909 61.625 91.6651 62.8906 91.6651 64.4375C91.6651 66.0664 90.9971 67.5371 89.6612 68.8496C88.8174 69.6699 87.3233 70.3789 85.1788 70.9766L87.3233 78.2012C87.8975 80.1348 88.3956 81.3008 88.8174 81.6992C89.251 82.0977 89.9659 82.3145 90.962 82.3496V83H83.544L80.169 71.3633L79.5889 71.3984C79.46 71.3984 79.2608 71.3867 78.9913 71.3633ZM79.2374 70.3086C79.6475 70.332 79.9932 70.3438 80.2745 70.3438C81.9854 70.3438 83.3917 69.7578 84.4932 68.5859C85.5948 67.4141 86.1456 65.8789 86.1456 63.9805C86.1456 62.8555 85.8526 62 85.2667 61.4141C84.6807 60.8281 83.9073 60.5352 82.9464 60.5352C82.712 60.5352 82.4366 60.541 82.1202 60.5527L79.2374 70.3086ZM106.273 60.4824L103.618 69.7285H104.427C106.56 69.7285 108.112 69.4473 109.085 68.8848C110.069 68.3223 110.901 67.3262 111.581 65.8965H112.232L109.56 75.1777H108.944C109.05 74.5566 109.103 74.0527 109.103 73.666C109.103 73.0215 108.909 72.4941 108.523 72.084C108.148 71.6738 107.655 71.3809 107.046 71.2051C106.648 71.0879 105.821 71.0293 104.567 71.0293H103.196L100.911 79.0273C100.712 79.7305 100.612 80.252 100.612 80.5918C100.612 80.8613 100.741 81.0781 100.999 81.2422C101.374 81.4766 102.083 81.5938 103.126 81.5938C105.13 81.5938 107.017 81.1719 108.786 80.3281C110.556 79.4727 112.144 78.1836 113.55 76.4609H114.271L111.792 83H91.4014L91.6124 82.3496C92.8077 82.3496 93.6807 82.127 94.2315 81.6816C94.7823 81.2246 95.2803 80.2285 95.7256 78.6934L100.208 63.3477C100.454 62.4922 100.577 61.8184 100.577 61.3262C100.577 60.8809 100.419 60.541 100.103 60.3066C99.7862 60.0605 99.0655 59.8965 97.9405 59.8145L98.1339 59.1641H117.136L115.607 65.123H114.974C114.927 63.9512 114.745 63.125 114.429 62.6445C113.937 61.8945 113.28 61.3496 112.46 61.0098C111.651 60.6582 110.333 60.4824 108.505 60.4824H106.273ZM127.015 71.3633L124.905 78.5879C124.601 79.6074 124.448 80.3574 124.448 80.8379C124.448 81.2832 124.63 81.6406 124.993 81.9102C125.357 82.1797 126.112 82.3262 127.261 82.3496L127.015 83H115.536L115.747 82.3496C116.896 82.3496 117.733 82.127 118.261 81.6816C118.8 81.2363 119.292 80.2402 119.737 78.6934L124.167 63.4004C124.413 62.5449 124.536 61.8711 124.536 61.3789C124.536 60.9102 124.384 60.5527 124.079 60.3066C123.774 60.0605 123.065 59.8965 121.952 59.8145L122.128 59.1641H132.007C134.831 59.1641 136.817 59.6562 137.966 60.6406C139.114 61.625 139.689 62.8906 139.689 64.4375C139.689 66.0664 139.021 67.5371 137.685 68.8496C136.841 69.6699 135.347 70.3789 133.202 70.9766L135.347 78.2012C135.921 80.1348 136.419 81.3008 136.841 81.6992C137.274 82.0977 137.989 82.3145 138.985 82.3496V83H131.567L128.192 71.3633L127.612 71.3984C127.483 71.3984 127.284 71.3867 127.015 71.3633ZM127.261 70.3086C127.671 70.332 128.017 70.3438 128.298 70.3438C130.009 70.3438 131.415 69.7578 132.517 68.5859C133.618 67.4141 134.169 65.8789 134.169 63.9805C134.169 62.8555 133.876 62 133.29 61.4141C132.704 60.8281 131.931 60.5352 130.97 60.5352C130.735 60.5352 130.46 60.541 130.144 60.5527L127.261 70.3086ZM150.815 83.5625C148.894 83.5625 147.341 83.1699 146.157 82.3848C144.974 81.5996 144.083 80.5273 143.485 79.168C142.899 77.8086 142.607 76.4844 142.607 75.1953C142.607 72.5938 143.351 69.9746 144.839 67.3379C146.327 64.6895 148.331 62.5742 150.851 60.9922C153.382 59.3984 155.878 58.6016 158.339 58.6016C159.78 58.6016 161.146 58.9648 162.435 59.6914C163.735 60.418 164.743 61.4316 165.458 62.7324C166.185 64.0332 166.548 65.3457 166.548 66.6699C166.548 69.6348 165.605 72.6113 163.718 75.5996C161.831 78.5762 159.71 80.7324 157.355 82.0684C155.573 83.0645 153.394 83.5625 150.815 83.5625ZM157.759 60.043C156.833 60.043 156.042 60.2129 155.386 60.5527C154.741 60.8809 154.067 61.4375 153.364 62.2227C152.661 63.0078 151.946 64.1328 151.22 65.5977C150.493 67.0508 149.808 69.0312 149.163 71.5391C148.53 74.0469 148.214 76.1387 148.214 77.8145C148.214 79.2441 148.524 80.3281 149.146 81.0664C149.767 81.793 150.564 82.1562 151.536 82.1562C152.825 82.1562 153.921 81.7285 154.823 80.873C156.616 79.1738 158.075 76.6836 159.2 73.4023C160.337 70.1094 160.905 67.1797 160.905 64.6133C160.905 63.0078 160.601 61.8477 159.991 61.1328C159.394 60.4062 158.649 60.043 157.759 60.043ZM179.538 59.1641L186.991 75.0547L190.349 63.5234C190.524 62.8906 190.612 62.3281 190.612 61.8359C190.612 61.25 190.425 60.7812 190.05 60.4297C189.687 60.0781 189.054 59.873 188.151 59.8145L188.345 59.1641H195.903L195.728 59.8145C194.767 59.873 193.97 60.1426 193.337 60.623C192.716 61.1035 192.189 62.0703 191.755 63.5234L185.937 83.2637H185.269L175.706 62.9434L171.083 78.7812C170.931 79.332 170.855 79.8242 170.855 80.2578C170.855 80.8906 171.06 81.4004 171.47 81.7871C171.892 82.1621 172.56 82.3496 173.474 82.3496L173.315 83H165.546L165.704 82.3496C166.372 82.3496 166.847 82.291 167.128 82.1738C167.62 81.9863 168.101 81.6289 168.569 81.1016C169.038 80.5625 169.419 79.7891 169.712 78.7812L174.757 61.4668C174.136 60.7754 173.614 60.3301 173.192 60.1309C172.771 59.9316 172.138 59.8262 171.294 59.8145L171.487 59.1641H179.538Z" fill="white" fill-opacity="0.75"/>
</svg>
