<svg width="64" height="64" viewBox="0 0 64 64" fill="none" xmlns="http://www.w3.org/2000/svg">
<g clip-path="url(#clip0_1227_443)">
<path d="M64 0.59436H0V63.9999H64V0.59436Z" fill="white"/>
<path d="M25.6181 8.69568V16.5758H24.9965C24.7949 15.0636 24.4308 13.8595 23.9044 12.9634C23.389 12.0673 22.6498 11.356 21.6864 10.8295C20.7232 10.3031 19.7262 10.0398 18.6957 10.0398C17.5308 10.0398 16.5674 10.3983 15.8058 11.1151C15.0441 11.8208 14.6632 12.6273 14.6632 13.5346C14.6632 14.2291 14.9041 14.862 15.3857 15.4332C16.0802 16.2734 17.7324 17.3935 20.3422 18.7936C22.4706 19.9361 23.9211 20.8154 24.6941 21.4316C25.4781 22.0364 26.0773 22.7532 26.4917 23.5822C26.9175 24.4112 27.1303 25.2793 27.1303 26.1865C27.1303 27.9114 26.4581 29.4012 25.114 30.6558C23.7812 31.8992 22.0617 32.5209 19.9559 32.5209C19.2949 32.5209 18.6733 32.4704 18.0909 32.3696C17.7436 32.3136 17.0211 32.112 15.9234 31.7648C14.8369 31.4064 14.148 31.227 13.8567 31.227C13.5767 31.227 13.3527 31.3111 13.1847 31.4791C13.0278 31.6471 12.9102 31.9943 12.8318 32.5209H12.2101V24.7079H12.8318C13.1231 26.3433 13.5151 27.5699 14.008 28.3875C14.5008 29.1941 15.2513 29.8661 16.2594 30.4037C17.2787 30.9415 18.3933 31.2103 19.603 31.2103C21.0032 31.2103 22.1065 30.8407 22.9129 30.1013C23.7307 29.3621 24.1396 28.4883 24.1396 27.4803C24.1396 26.9201 23.9828 26.3545 23.669 25.7833C23.3666 25.2121 22.8905 24.68 22.2409 24.187C21.8041 23.851 20.611 23.1397 18.6621 22.0533C16.7131 20.9555 15.3241 20.0817 14.4952 19.4321C13.6775 18.7824 13.0558 18.0656 12.6302 17.2815C12.2045 16.4974 11.9917 15.6349 11.9917 14.694C11.9917 13.0586 12.619 11.6528 13.8735 10.4767C15.1281 9.28933 16.7243 8.69568 18.6621 8.69568C19.8718 8.69568 21.1543 8.9925 22.5097 9.58617C23.1371 9.8662 23.5794 10.0062 23.8372 10.0062C24.1284 10.0062 24.3636 9.9222 24.5428 9.75419C24.7332 9.57497 24.8845 9.22213 24.9965 8.69568H25.6181Z" fill="black"/>
<path d="M33.8901 27.8683H40.6914V28.4674C39.7522 28.543 39.0558 28.7535 38.6025 29.0989C38.1598 29.4336 37.4635 30.4592 36.5134 32.1757C35.5636 33.8921 34.4948 35.4953 33.3072 36.9851C34.2681 38.1078 35.1262 38.8959 35.882 39.3494C36.6377 39.7919 37.3988 40.0132 38.1652 40.0132C38.9101 40.0132 39.5417 39.8135 40.0599 39.4141C40.578 39.0039 40.9451 38.4047 41.1611 37.6166L41.7602 38.0539C41.3607 39.576 40.7184 40.6987 39.8331 41.4221C38.9479 42.1453 37.917 42.5071 36.7403 42.5071C35.8549 42.5071 34.9536 42.2695 34.0359 41.7945C33.1291 41.3087 32.136 40.4937 31.0564 39.3494C29.7177 40.5367 28.5086 41.3627 27.429 41.8269C26.3604 42.2804 25.216 42.5071 23.9961 42.5071C22.2148 42.5071 20.8005 42.032 19.7534 41.082C18.7063 40.1319 18.1828 38.9984 18.1828 37.6815C18.1828 36.3751 18.6523 35.0743 19.5915 33.7789C20.5307 32.4726 22.2958 31.1231 24.8868 29.7305C24.3794 28.6077 24.034 27.6902 23.8503 26.9776C23.6669 26.2543 23.5751 25.5634 23.5751 24.9049C23.5751 23.0589 24.2551 21.65 25.6155 20.6784C26.6734 19.9227 27.8772 19.5449 29.2265 19.5449C30.5111 19.5449 31.5584 19.9282 32.368 20.6946C33.1776 21.4503 33.5826 22.3842 33.5826 23.496C33.5826 24.6404 33.1885 25.6443 32.4004 26.5079C31.6231 27.3716 30.2413 28.3163 28.2549 29.3419C29.626 31.7817 31.0564 34.0164 32.5461 36.0459C34.4462 33.7789 35.3961 31.8679 35.3961 30.3135C35.3961 29.8169 35.2343 29.3743 34.9104 28.9856C34.6729 28.6941 34.3328 28.5215 33.8901 28.4674V27.8683ZM27.7044 28.2893C29.043 27.6523 30.0416 26.9291 30.7001 26.1193C31.3694 25.3097 31.7042 24.4082 31.7042 23.4151C31.7042 22.6379 31.4612 21.9954 30.9755 21.488C30.5005 20.9807 29.9067 20.727 29.1941 20.727C28.2549 20.727 27.5424 21.0562 27.0565 21.7149C26.5817 22.3625 26.3442 22.9995 26.3442 23.6256C26.3442 24.1545 26.4359 24.7483 26.6194 25.407C26.8029 26.0546 27.1646 27.0155 27.7044 28.2893ZM30.2144 38.4102C28.7893 36.4669 27.8014 35.0473 27.251 34.1513C26.7005 33.2553 26.0958 32.1433 25.4373 30.8155C24.1419 31.5604 23.1648 32.3808 22.5063 33.2768C21.8585 34.1728 21.5348 35.1444 21.5348 36.1917C21.5348 37.3467 21.9072 38.3615 22.6521 39.2359C23.397 40.1104 24.4009 40.5476 25.664 40.5476C26.3442 40.5476 26.9972 40.4127 27.6235 40.1428C28.2603 39.8729 29.1239 39.2953 30.2144 38.4102Z" fill="#151515"/>
<path d="M40.4443 33.8047V42.76H44.5945C45.5465 42.76 46.241 42.5529 46.6778 42.1385C47.1258 41.7127 47.4227 40.8783 47.5683 39.6349H48.19V47.3471H47.5683C47.5571 46.4621 47.4395 45.8125 47.2155 45.3981C47.0027 44.9835 46.7003 44.6756 46.3083 44.474C45.9273 44.261 45.3561 44.1547 44.5945 44.1547H40.4443V51.3122C40.4443 52.466 40.5171 53.2278 40.6627 53.5974C40.7747 53.8774 41.0099 54.1183 41.3683 54.3199C41.8613 54.5887 42.3765 54.7231 42.9141 54.7231H43.7376V55.3447H33.9587V54.7231H34.7653C35.7061 54.7231 36.3895 54.4487 36.8151 53.8998C37.0839 53.5414 37.2183 52.6788 37.2183 51.3122V36.5938C37.2183 35.44 37.1456 34.6784 37 34.3087C36.888 34.0287 36.6583 33.7879 36.3111 33.5862C35.8293 33.3174 35.3141 33.183 34.7653 33.183H33.9587V32.5613H50.912L51.1303 37.5684H50.5422C50.251 36.5042 49.9095 35.7257 49.5173 35.2329C49.1365 34.7287 48.6604 34.3647 48.0892 34.1407C47.529 33.9167 46.6554 33.8047 45.4681 33.8047H40.4443Z" fill="black"/>
</g>
<defs>
<clipPath id="clip0_1227_443">
<rect width="64" height="64" fill="white"/>
</clipPath>
</defs>
</svg>
