<svg width="305" height="140" viewBox="0 0 305 140" fill="none" xmlns="http://www.w3.org/2000/svg">
<path d="M35.4401 66.4448C35.1622 64.3005 34.9438 62.3745 34.7849 60.667C34.6261 58.9197 34.5467 57.3908 34.5467 56.0804C34.5467 48.1383 37.0087 41.5464 41.9328 36.3046C46.8569 31.0231 52.6745 28.3823 59.3856 28.3823C63.6743 28.3823 67.1093 29.5935 69.6904 32.0158C72.3113 34.4382 73.6218 37.3371 73.6218 40.7124C73.6218 44.9615 72.351 48.6148 69.8096 51.6725C66.0371 56.279 60.0011 60.3493 51.7016 63.8835C54.3622 72.4213 56.1889 77.941 57.1816 80.4428C58.1744 82.9445 59.5047 85.6647 61.1725 88.6033C63.436 86.1015 65.0642 83.6792 66.0569 81.3363C67.0497 78.9536 67.5461 77.0078 67.5461 75.4988C67.5461 74.2281 67.1688 73.1162 66.4143 72.1631C65.6598 71.2101 64.4288 70.5152 62.7212 70.0783L63.436 67.934H86.3093L85.4158 70.0783C83.2714 70.5946 81.4646 71.4682 79.9953 72.6992C78.526 73.9303 75.8058 77.2064 71.8348 82.5276C69.0154 86.3398 66.2158 89.6953 63.436 92.5942C66.6129 97.0021 69.5117 100.04 72.1326 101.708C73.8005 102.82 75.7066 103.376 77.8509 103.376C79.082 103.376 80.1541 103.177 81.0675 102.78C81.9808 102.383 83.0927 101.628 84.4032 100.516H86.3093C84.4032 104.607 81.8816 107.684 78.7444 109.749C75.6073 111.814 72.0532 112.847 68.0822 112.847C64.7465 112.847 61.7483 112.191 59.0877 110.881C56.4271 109.531 53.6077 107.267 50.6294 104.09C46.5392 106.989 42.4093 109.173 38.2397 110.643C34.1098 112.112 29.9402 112.847 25.7309 112.847C19.6155 112.847 14.751 111.139 11.1373 107.724C7.52367 104.309 5.71684 100.298 5.71684 95.6916C5.71684 92.0382 6.4912 88.782 8.03991 85.9228C9.58861 83.0637 12.5272 80.006 16.8556 76.7497C21.1841 73.4934 27.3789 70.0585 35.4401 66.4448ZM50.6294 59.4161C53.9254 57.0732 56.3279 54.6707 57.8369 52.2086C59.9415 48.8332 60.9938 45.2394 60.9938 41.4272C60.9938 38.5681 60.3982 36.3641 59.2069 34.8154C58.2538 33.6638 57.0426 33.088 55.5734 33.088C53.7864 33.088 52.3767 33.8028 51.3442 35.2324C49.8352 37.3768 49.0807 40.6926 49.0807 45.1799C49.0807 47.2051 49.1998 49.409 49.4381 51.7917C49.7161 54.1346 50.1132 56.6761 50.6294 59.4161ZM36.3336 70.9123C31.7669 73.414 28.4908 76.0151 26.5053 78.7154C24.5595 81.376 23.5866 84.5727 23.5866 88.3055C23.5866 92.8722 24.9963 96.7241 27.8157 99.8612C30.6749 102.959 33.8517 104.507 37.3462 104.507C38.8552 104.507 40.5231 104.17 42.3498 103.495C44.1764 102.82 46.162 101.827 48.3063 100.516C45.884 96.8631 43.5411 92.2567 41.2776 86.6972C39.0538 81.1377 37.4058 75.8761 36.3336 70.9123Z" fill="black"/>
<path d="M39.3438 27.6562L35.8125 42.0312H34.7812C34.5521 39.7812 34.1458 37.9792 33.5625 36.625C32.6875 34.6667 31.5208 33.1562 30.0625 32.0938C28.625 31.0312 27.0625 30.5 25.375 30.5C23.75 30.5 22.3229 31.125 21.0938 32.375C19.8854 33.6042 19.2812 35 19.2812 36.5625C19.2812 38.1042 19.6979 39.625 20.5312 41.125C21.3854 42.6042 23.3854 44.8438 26.5312 47.8438C29.0521 50.2396 30.7396 52.3021 31.5938 54.0312C32.4688 55.7604 32.9062 57.6354 32.9062 59.6562C32.9062 61.9271 32.3021 64.0208 31.0938 65.9375C29.8854 67.8542 28.125 69.3438 25.8125 70.4062C23.5208 71.4479 20.9167 71.9688 18 71.9688C16.2083 71.9688 13.9479 71.6979 11.2188 71.1562C8.51042 70.6354 6.70833 70.375 5.8125 70.375C5.10417 70.375 4.46875 70.4896 3.90625 70.7188C3.34375 70.9271 2.64583 71.3438 1.8125 71.9688H0.59375L4.375 55.8125H5.5625C5.83333 58.6458 6.40625 61.0625 7.28125 63.0625C8.15625 65.0417 9.40625 66.5938 11.0312 67.7188C12.6562 68.8229 14.5104 69.375 16.5938 69.375C18.6562 69.375 20.375 68.6979 21.75 67.3438C23.1458 65.9688 23.8438 64.3646 23.8438 62.5312C23.8438 60.9688 23.4479 59.4688 22.6562 58.0312C21.8854 56.5938 20.1042 54.5 17.3125 51.75C14.5417 49 12.625 46.5417 11.5625 44.375C10.7917 42.7708 10.4062 41.0625 10.4062 39.25C10.4062 36.1042 11.6458 33.3854 14.125 31.0938C16.6042 28.8021 19.8438 27.6562 23.8438 27.6562C25.6562 27.6562 28.0417 28.0625 31 28.875C32.7292 29.3542 33.9479 29.5938 34.6562 29.5938C35.2604 29.5938 35.8021 29.4688 36.2812 29.2188C36.7604 28.9479 37.3229 28.4271 37.9688 27.6562H39.3438ZM55.7812 51.5312L52.3438 63.3438C51.8646 65.0104 51.625 66.1875 51.625 66.875C51.625 67.8333 51.9375 68.5625 52.5625 69.0625C53.1875 69.5417 54.6042 69.8021 56.8125 69.8438L56.4062 71H35.7188L36.0625 69.8438C37.8125 69.8229 39.0521 69.6562 39.7812 69.3438C40.5104 69.0104 41.1146 68.4792 41.5938 67.75C41.9479 67.2708 42.4792 65.8021 43.1875 63.3438L51.0312 36.4375C51.5729 34.6458 51.8438 33.3646 51.8438 32.5938C51.8438 31.8229 51.5 31.1771 50.8125 30.6562C50.125 30.1146 48.875 29.8229 47.0625 29.7812L47.4062 28.625H64.1875C68.7917 28.625 72.1042 29.2083 74.125 30.375C77.25 32.2083 78.8125 34.9583 78.8125 38.625C78.8125 42.1667 77.25 45.2917 74.125 48C71.0208 50.6875 66.8333 52.0312 61.5625 52.0312C59.9792 52.0312 58.0521 51.8646 55.7812 51.5312ZM56.4062 49.125C57.7604 49.2917 58.8854 49.375 59.7812 49.375C62.6562 49.375 64.9167 48.0625 66.5625 45.4375C68.2083 42.8125 69.0312 40.0729 69.0312 37.2188C69.0312 35.2812 68.5 33.7812 67.4375 32.7188C66.375 31.6354 64.9062 31.0938 63.0312 31.0938C62.6354 31.0938 62.1458 31.1146 61.5625 31.1562L56.4062 49.125ZM97.9375 57.3438H84.8125L82.1875 60.5938L79.1875 64.1875C78.6042 64.9583 78.1771 65.6562 77.9062 66.2812C77.6979 66.7604 77.5938 67.2396 77.5938 67.7188C77.5938 68.2188 77.8542 68.6875 78.375 69.125C78.9167 69.5417 79.8021 69.7812 81.0312 69.8438V71H68.375L68.6875 69.8438C69.8125 69.6562 70.8125 69.2604 71.6875 68.6562C72.8542 67.8229 74.5312 66.1042 76.7188 63.5L106.75 27.6562H108.156L106.75 62.3438C106.688 64.1562 106.656 65.25 106.656 65.625C106.656 67.0417 106.938 68.0729 107.5 68.7188C108.083 69.3646 109.042 69.7396 110.375 69.8438L110.062 71H91.7188L92.0625 69.8438C93.875 69.6771 94.9167 69.5312 95.1875 69.4062C95.7708 69.1146 96.3021 68.5104 96.7812 67.5938C97.2604 66.6562 97.5521 65.0417 97.6562 62.75L97.9375 57.3438ZM97.9375 54.7812L98.75 40.9688L86.9688 54.7812H97.9375ZM121.375 28.625H155.469L152.25 40.0312H151.125C151.167 39.4271 151.188 38.8958 151.188 38.4375C151.188 36.2708 150.552 34.5938 149.281 33.4062C148.01 32.1979 145.865 31.5104 142.844 31.3438L133.406 63.25C132.885 65.0208 132.625 66.3333 132.625 67.1875C132.625 67.9792 132.948 68.6146 133.594 69.0938C134.24 69.5521 135.552 69.8021 137.531 69.8438L137.25 71H116.219L116.594 69.8438C118.74 69.8438 120.302 69.4479 121.281 68.6562C122.26 67.8438 123.156 66.0417 123.969 63.25L133.406 31.3438C130.156 31.4479 127.438 32.1562 125.25 33.4688C123.062 34.7812 121.062 36.9688 119.25 40.0312H118.031L121.375 28.625ZM159.094 29.7812L159.438 28.625H180.125L179.719 29.7812C177.844 29.7812 176.406 30.1979 175.406 31.0312C174.427 31.8646 173.562 33.6042 172.812 36.25L165.062 63.375C164.5 65.2917 164.219 66.5729 164.219 67.2188C164.219 67.9688 164.51 68.5521 165.094 68.9688C165.844 69.5104 167.26 69.8021 169.344 69.8438L169.031 71H148L148.344 69.8438C150.448 69.8438 151.99 69.4479 152.969 68.6562C153.948 67.8438 154.833 66.0833 155.625 63.375L163.438 36.25C163.917 34.5833 164.156 33.3229 164.156 32.4688C164.156 31.6979 163.865 31.0938 163.281 30.6562C162.698 30.2188 161.302 29.9271 159.094 29.7812ZM185.188 71.9688L186.562 36.5312C186.625 34.4688 186.656 33.3854 186.656 33.2812C186.656 32.1354 186.375 31.2917 185.812 30.75C185.271 30.2083 184.26 29.8854 182.781 29.7812L183.156 28.625H200.969L200.625 29.7812C199.104 29.7812 197.948 30.2396 197.156 31.1562C196.385 32.0729 195.938 33.9688 195.812 36.8438L194.812 58.9375L211.344 39.75C213.49 37.2708 214.812 35.5521 215.312 34.5938C215.812 33.6354 216.062 32.8021 216.062 32.0938C216.062 31.5729 215.833 31.1146 215.375 30.7188C214.917 30.3021 214.042 29.9896 212.75 29.7812L213.188 28.625H224.875V29.7812C223.875 30.0312 223.062 30.3958 222.438 30.875C221.521 31.5625 220.104 33.0208 218.188 35.25L186.562 71.9688H185.188ZM242.094 28.625L245.219 57.75L265.375 28.625H280.219L279.844 29.7812C277.802 29.7812 276.25 30.2188 275.188 31.0938C274.125 31.9688 273.219 33.6979 272.469 36.2812L264.656 63.4062C264.156 65.1146 263.906 66.3854 263.906 67.2188C263.906 67.9896 264.219 68.6146 264.844 69.0938C265.469 69.5521 266.698 69.8021 268.531 69.8438L268.25 71H247.094L247.469 69.8438C249.74 69.8438 251.417 69.4167 252.5 68.5625C253.583 67.6875 254.5 65.9688 255.25 63.4062L263.219 35.9375L238.969 71H237.688L233.875 35.25L225.781 63.4062C225.448 64.5521 225.281 65.5104 225.281 66.2812C225.281 67.3229 225.635 68.1667 226.344 68.8125C227.073 69.4375 228.302 69.7812 230.031 69.8438L229.719 71H215.719L216 69.8438C217.688 69.7812 218.979 69.4271 219.875 68.7812C221.458 67.6146 222.604 65.8229 223.312 63.4062L232.469 32.0938C231.594 31.1354 230.802 30.5104 230.094 30.2188C229.406 29.9271 228.24 29.7812 226.594 29.7812L226.969 28.625H242.094Z" fill="white" fill-opacity="0.75"/>
<path d="M101.69 72.3419L97.0427 88.2051C100.203 88.1638 102.258 88.0399 103.208 87.8333C104.757 87.5235 106.162 86.8729 107.422 85.8814C108.682 84.8693 109.735 83.4751 110.582 81.6987H111.791L106.988 98.2746H105.749C105.955 97.2005 106.059 96.3433 106.059 95.703C106.059 94.4224 105.79 93.3999 105.253 92.6357C104.737 91.8714 104.066 91.3551 103.239 91.0865C102.413 90.7974 100.141 90.6115 96.4231 90.5288L92.6432 103.635L91.8996 106.268C91.7963 106.785 91.7446 107.291 91.7446 107.786C91.7446 108.509 91.8789 109.077 92.1474 109.49C92.4366 109.903 92.891 110.234 93.5107 110.482C94.1303 110.709 95.3077 110.833 97.0427 110.854L96.7019 112H75.7265L76.0673 110.854C78.0915 110.854 79.5684 110.482 80.4979 109.738C81.4273 108.974 82.2639 107.322 83.0075 104.781L90.5053 79.0652C91.2902 76.3593 91.7033 74.6243 91.7446 73.86C91.7033 73.1371 91.3729 72.5278 90.7532 72.0321C90.1335 71.5157 88.8632 71.2162 86.9423 71.1335L87.2521 69.9872H121.581L118.762 81.0791H117.615C117.491 78.7657 117.13 77.0513 116.531 75.9359C115.932 74.7999 114.941 73.922 113.557 73.3024C112.193 72.662 110.004 72.3419 106.988 72.3419H101.69ZM135.895 112.991C132.508 112.991 129.771 112.3 127.685 110.916C125.599 109.532 124.029 107.642 122.975 105.246C121.943 102.85 121.426 100.516 121.426 98.2436C121.426 93.6581 122.738 89.0417 125.361 84.3942C127.984 79.7261 131.516 75.9979 135.957 73.2094C140.419 70.4003 144.818 68.9957 149.156 68.9957C151.697 68.9957 154.103 69.636 156.375 70.9167C158.668 72.1973 160.444 73.984 161.704 76.2767C162.985 78.5694 163.625 80.8828 163.625 83.2169C163.625 88.4427 161.962 93.6891 158.637 98.9562C155.311 104.203 151.573 108.003 147.421 110.358C144.281 112.114 140.439 112.991 135.895 112.991ZM148.134 71.5363C146.502 71.5363 145.108 71.8358 143.951 72.4348C142.815 73.0132 141.627 73.9943 140.388 75.3782C139.148 76.7621 137.889 78.745 136.608 81.3269C135.327 83.8882 134.119 87.3789 132.983 91.7991C131.868 96.2194 131.31 99.9063 131.31 102.86C131.31 105.38 131.857 107.291 132.952 108.592C134.047 109.873 135.451 110.513 137.166 110.513C139.438 110.513 141.369 109.759 142.959 108.251C146.12 105.256 148.691 100.867 150.674 95.0833C152.678 89.2792 153.679 84.1154 153.679 79.5919C153.679 76.7621 153.142 74.7172 152.068 73.4573C151.015 72.1766 149.703 71.5363 148.134 71.5363ZM182.122 91.4893L178.404 104.223C177.867 106.02 177.598 107.342 177.598 108.189C177.598 108.974 177.918 109.604 178.559 110.079C179.199 110.554 180.531 110.812 182.556 110.854L182.122 112H161.89L162.262 110.854C164.286 110.854 165.763 110.461 166.692 109.676C167.642 108.891 168.51 107.136 169.295 104.409L177.103 77.4541C177.536 75.9462 177.753 74.7585 177.753 73.891C177.753 73.0648 177.485 72.4348 176.948 72.0011C176.411 71.5673 175.161 71.2781 173.199 71.1335L173.509 69.9872H190.921C195.899 69.9872 199.4 70.8547 201.424 72.5897C203.448 74.3248 204.46 76.5556 204.46 79.2821C204.46 82.1531 203.283 84.7454 200.928 87.0588C199.441 88.5046 196.808 89.7543 193.028 90.8077L196.808 103.542C197.82 106.95 198.698 109.005 199.441 109.707C200.205 110.41 201.465 110.792 203.221 110.854V112H190.146L184.198 91.4893L183.175 91.5513C182.948 91.5513 182.597 91.5306 182.122 91.4893ZM182.556 89.6303C183.278 89.6717 183.888 89.6923 184.384 89.6923C187.399 89.6923 189.878 88.6595 191.819 86.594C193.761 84.5285 194.732 81.8226 194.732 78.4765C194.732 76.4936 194.215 74.9858 193.183 73.953C192.15 72.9202 190.787 72.4038 189.093 72.4038C188.68 72.4038 188.194 72.4142 187.637 72.4348L182.556 89.6303ZM230.238 69.9872L233.337 98.8632L253.321 69.9872H268.037L267.666 71.1335C265.641 71.1335 264.103 71.5673 263.049 72.4348C261.996 73.3024 261.097 75.0167 260.354 77.578L252.608 104.471C252.112 106.165 251.864 107.425 251.864 108.251C251.864 109.015 252.174 109.635 252.794 110.11C253.413 110.564 254.632 110.812 256.45 110.854L256.171 112H235.196L235.567 110.854C237.819 110.854 239.481 110.43 240.556 109.583C241.63 108.716 242.538 107.012 243.282 104.471L251.183 77.2372L227.14 112H225.87L222.09 76.5556L214.065 104.471C213.735 105.607 213.569 106.557 213.569 107.322C213.569 108.354 213.921 109.191 214.623 109.831C215.346 110.451 216.564 110.792 218.279 110.854L217.969 112H204.089L204.368 110.854C206.041 110.792 207.321 110.441 208.209 109.8C209.779 108.644 210.915 106.867 211.618 104.471L220.696 73.4263C219.828 72.4761 219.043 71.8565 218.341 71.5673C217.659 71.2781 216.502 71.1335 214.871 71.1335L215.243 69.9872H230.238ZM288.393 98.4605H275.38L272.778 101.683L269.803 105.246C269.225 106.01 268.802 106.702 268.533 107.322C268.327 107.797 268.223 108.272 268.223 108.747C268.223 109.243 268.481 109.707 268.998 110.141C269.535 110.554 270.413 110.792 271.631 110.854V112H259.083L259.393 110.854C260.509 110.668 261.5 110.275 262.368 109.676C263.524 108.85 265.187 107.146 267.356 104.564L297.13 69.0267H298.525L297.13 103.418C297.068 105.215 297.037 106.299 297.037 106.671C297.037 108.075 297.316 109.098 297.874 109.738C298.452 110.379 299.402 110.75 300.724 110.854L300.415 112H282.228L282.568 110.854C284.365 110.688 285.398 110.544 285.667 110.42C286.245 110.131 286.772 109.532 287.247 108.623C287.722 107.693 288.011 106.093 288.114 103.821L288.393 98.4605ZM288.393 95.9199L289.199 82.2254L277.518 95.9199H288.393Z" fill="white" fill-opacity="0.75"/>
</svg>
