<svg width="36" height="36" viewBox="0 0 36 36" fill="none" xmlns="http://www.w3.org/2000/svg">
<rect y="0.334351" width="36" height="35.6656" fill="white"/>
<path d="M14.4102 4.89134V9.3239H14.0605C13.9471 8.4733 13.7423 7.79597 13.4462 7.29191C13.1563 6.78785 12.7405 6.38776 12.1986 6.09162C11.6568 5.79549 11.096 5.64742 10.5163 5.64742C9.86105 5.64742 9.31918 5.84905 8.89073 6.25229C8.46228 6.64924 8.24806 7.10289 8.24806 7.61325C8.24806 8.00389 8.38353 8.35989 8.65446 8.68122C9.0451 9.15378 9.97446 9.78385 11.4425 10.5714C12.6397 11.2141 13.4556 11.7087 13.8904 12.0553C14.3314 12.3955 14.6685 12.7987 14.9016 13.265C15.1411 13.7313 15.2608 14.2196 15.2608 14.7299C15.2608 15.7002 14.8827 16.5382 14.1266 17.2439C13.3769 17.9433 12.4097 18.293 11.2252 18.293C10.8534 18.293 10.5037 18.2646 10.1761 18.2079C9.98076 18.1764 9.57436 18.063 8.95689 17.8677C8.34572 17.6661 7.95823 17.5652 7.79441 17.5652C7.63689 17.5652 7.51087 17.6125 7.41636 17.707C7.32815 17.8015 7.262 17.9968 7.21789 18.293H6.8682V13.8982H7.21789C7.38171 14.8181 7.60223 15.5081 7.87947 15.968C8.1567 16.4217 8.57885 16.7997 9.14591 17.1021C9.71928 17.4046 10.3462 17.5558 11.0267 17.5558C11.8143 17.5558 12.4349 17.3479 12.8885 16.932C13.3485 16.5162 13.5785 16.0247 13.5785 15.4577C13.5785 15.1426 13.4903 14.8244 13.3138 14.5031C13.1437 14.1818 12.8759 13.8825 12.5105 13.6052C12.2648 13.4162 11.5937 13.0161 10.4974 12.405C9.40109 11.7875 8.6198 11.296 8.15355 10.9306C7.6936 10.5651 7.3439 10.1619 7.10448 9.72084C6.86505 9.27979 6.74534 8.79464 6.74534 8.26538C6.74534 7.34547 7.09818 6.55473 7.80386 5.89315C8.50954 5.22527 9.40739 4.89134 10.4974 4.89134C11.1779 4.89134 11.8993 5.0583 12.6617 5.39224C13.0146 5.54976 13.2634 5.62852 13.4084 5.62852C13.5722 5.62852 13.7045 5.58126 13.8053 5.48675C13.9124 5.38594 13.9975 5.18747 14.0605 4.89134H14.4102Z" fill="black"/>
<path d="M19.0632 15.6759H22.8889V16.0129C22.3606 16.0554 21.9689 16.1738 21.7139 16.3681C21.4649 16.5564 21.0732 17.1333 20.5388 18.0988C20.0045 19.0643 19.4033 19.9661 18.7353 20.8041C19.2758 21.4356 19.7585 21.8789 20.1836 22.134C20.6087 22.3829 21.0368 22.5074 21.4679 22.5074C21.8869 22.5074 22.2422 22.3951 22.5337 22.1704C22.8251 21.9397 23.0316 21.6026 23.1531 21.1593L23.4901 21.4053C23.2654 22.2615 22.9041 22.893 22.4061 23.2999C21.9082 23.7067 21.3283 23.9102 20.6664 23.9102C20.1684 23.9102 19.6614 23.7766 19.1452 23.5094C18.6351 23.2361 18.0765 22.7777 17.4692 22.134C16.7162 22.8019 16.0361 23.2665 15.4288 23.5276C14.8277 23.7827 14.184 23.9102 13.4978 23.9102C12.4958 23.9102 11.7003 23.643 11.1113 23.1086C10.5223 22.5742 10.2278 21.9366 10.2278 21.1958C10.2278 20.461 10.4919 19.7293 11.0202 19.0006C11.5485 18.2658 12.5414 17.5067 13.9988 16.7234C13.7134 16.0918 13.5191 15.5757 13.4158 15.1749C13.3126 14.768 13.261 14.3794 13.261 14.009C13.261 12.9706 13.6435 12.1781 14.4087 11.6316C15.0038 11.2065 15.6809 10.994 16.4399 10.994C17.1625 10.994 17.7516 11.2096 18.207 11.6407C18.6624 12.0658 18.8902 12.5911 18.8902 13.2165C18.8902 13.8602 18.6685 14.4249 18.2252 14.9107C17.788 15.3965 17.0107 15.9279 15.8934 16.5048C16.6646 17.8772 17.4692 19.1342 18.3072 20.2758C19.376 19.0006 19.9103 17.9257 19.9103 17.0513C19.9103 16.772 19.8193 16.523 19.6371 16.3044C19.5035 16.1404 19.3122 16.0433 19.0632 16.0129V15.6759ZM15.5837 15.9127C16.3367 15.5544 16.8984 15.1476 17.2688 14.6921C17.6453 14.2367 17.8336 13.7296 17.8336 13.171C17.8336 12.7338 17.6969 12.3724 17.4237 12.087C17.1565 11.8016 16.8225 11.6589 16.4217 11.6589C15.8934 11.6589 15.4926 11.8441 15.2193 12.2146C14.9522 12.5789 14.8186 12.9372 14.8186 13.2894C14.8186 13.5869 14.8702 13.9209 14.9734 14.2914C15.0766 14.6557 15.2801 15.1962 15.5837 15.9127ZM16.9956 21.6057C16.194 20.5126 15.6383 19.7141 15.3287 19.2101C15.019 18.7061 14.6789 18.0806 14.3085 17.3337C13.5798 17.7527 13.0302 18.2142 12.6598 18.7182C12.2954 19.2222 12.1133 19.7687 12.1133 20.3578C12.1133 21.0075 12.3228 21.5783 12.7418 22.0702C13.1608 22.5621 13.7255 22.808 14.436 22.808C14.8186 22.808 15.1859 22.7321 15.5382 22.5803C15.8964 22.4285 16.3822 22.1036 16.9956 21.6057Z" fill="#151515"/>
<path d="M22.7499 19.0151V24.0525H25.0844C25.6199 24.0525 26.0106 23.936 26.2563 23.7029C26.5083 23.4634 26.6753 22.994 26.7572 22.2946H27.1069V26.6327H26.7572C26.7509 26.1349 26.6847 25.7695 26.5587 25.5364C26.439 25.3032 26.2689 25.13 26.0484 25.0166C25.8341 24.8968 25.5128 24.837 25.0844 24.837H22.7499V28.8631C22.7499 29.5121 22.7909 29.9406 22.8728 30.1485C22.9358 30.306 23.0681 30.4415 23.2697 30.5549C23.547 30.7061 23.8368 30.7817 24.1392 30.7817H24.6024V31.1314H19.1018V30.7817H19.5555C20.0847 30.7817 20.4691 30.6274 20.7085 30.3186C20.8597 30.117 20.9353 29.6318 20.9353 28.8631V20.584C20.9353 19.935 20.8944 19.5066 20.8125 19.2986C20.7495 19.1411 20.6203 19.0057 20.425 18.8922C20.154 18.741 19.8642 18.6654 19.5555 18.6654H19.1018V18.3157H28.638L28.7608 21.1322H28.43C28.2662 20.5336 28.0741 20.0957 27.8535 19.8185C27.6393 19.5349 27.3715 19.3301 27.0502 19.2041C26.7351 19.0781 26.2437 19.0151 25.5758 19.0151H22.7499Z" fill="black"/>
</svg>
